<svg width="23" height="5" viewBox="0 0 23 5" fill="none" xmlns="http://www.w3.org/2000/svg">
    <path d="M20.5 4.5C21.6046 4.5 22.5 3.60457 22.5 2.5C22.5 1.39543 21.6046 0.5 20.5 0.5C19.3954 0.5 18.5 1.39543 18.5 2.5C18.5 3.60457 19.3954 4.5 20.5 4.5Z" stroke="#B9B9B9"/>
    <path d="M11.5 4.5C12.6046 4.5 13.5 3.60457 13.5 2.5C13.5 1.39543 12.6046 0.5 11.5 0.5C10.3954 0.5 9.5 1.39543 9.5 2.5C9.5 3.60457 10.3954 4.5 11.5 4.5Z" stroke="#B9B9B9"/>
    <path d="M2.5 4.5C3.60457 4.5 4.5 3.60457 4.5 2.5C4.5 1.39543 3.60457 0.5 2.5 0.5C1.39543 0.5 0.5 1.39543 0.5 2.5C0.5 3.60457 1.39543 4.5 2.5 4.5Z" stroke="#B9B9B9"/>
    </svg>
    