<svg width="375" height="812" viewBox="0 0 375 812" fill="none" xmlns="http://www.w3.org/2000/svg">
    <mask id="mask0_1_7" style="mask-type:luminance" maskUnits="userSpaceOnUse" x="0" y="0" width="375" height="812">
    <path d="M375 0H0V812H375V0Z" fill="white"/>
    </mask>
    <g mask="url(#mask0_1_7)">
    <g opacity="0.61">
    <path opacity="0.08" d="M355.507 -195.2L47.076 113.22L115.906 182.037V182.049L355.506 421.638L595.092 182.049L663.925 113.22L355.507 -195.2ZM362.994 -28.874L478.355 86.476L362.994 372.47V-28.874ZM348.017 370.036L238.646 80.487L348.017 -28.873V370.036ZM227.031 92.103L336.224 381.179L137.084 182.038L227.031 92.103ZM376.191 379.772L489.859 97.983L573.917 182.051L376.191 379.772ZM584.511 171.458L355.511 -57.551L126.501 171.458L68.269 113.221L355.512 -174.02L642.755 113.221L584.511 171.458Z" fill="#D98553" stroke="#D98553" stroke-width="0.5"/>
    <path opacity="0.08" d="M20.005 524.46L-213.543 758L-161.424 810.109V810.118L20.006 991.538L201.424 810.118L253.545 757.999L20.005 524.46ZM25.6741 650.405L113.027 737.75L25.6741 954.308V650.405ZM14.333 952.465L-68.484 733.214L14.333 650.405V952.465ZM-77.2789 742.01L5.40295 960.902L-145.388 810.11L-77.2789 742.01ZM35.665 959.837L121.736 746.462L185.386 810.119L35.665 959.837ZM193.408 802.099L20.005 628.689L-153.405 802.098L-197.499 757.998L20.001 540.498L237.501 757.998L193.408 802.099Z" fill="#D98553" stroke="#D98553" stroke-width="0.5"/>
    </g>
    </g>
    </svg>
    