<svg width="27" height="28" viewBox="0 0 27 28" fill="none" xmlns="http://www.w3.org/2000/svg">
    <path d="M26.905 21.1169C26.862 21.2032 26.7934 21.2738 26.7085 21.3193C26.6236 21.3648 26.5266 21.3828 26.431 21.3708C26.178 21.3228 26.102 21.1489 26.103 20.9099C26.103 19.8239 26.103 18.7379 26.103 17.6519V17.3149H23.4291C23.4291 17.4839 23.4351 17.6479 23.4291 17.8149C23.3991 18.5659 23.419 19.3239 23.322 20.0659C23.3053 20.3549 23.2313 20.6375 23.1041 20.8975C22.9769 21.1575 22.7992 21.3895 22.5814 21.5801C22.3636 21.7706 22.1099 21.9159 21.8353 22.0073C21.5607 22.0988 21.2706 22.1347 20.982 22.1128C20.115 22.1278 19.2481 22.1129 18.3821 22.1179H18.088V26.918H18.405C19.929 26.918 21.453 26.918 22.977 26.918C23.329 26.918 23.482 27.037 23.49 27.304C23.4962 27.3521 23.4929 27.4008 23.48 27.4475C23.467 27.4943 23.4448 27.5381 23.4147 27.5762C23.3845 27.6142 23.3471 27.6456 23.3045 27.6689C23.262 27.6923 23.2152 27.707 23.167 27.7119C23.0893 27.7243 23.0106 27.7292 22.932 27.7268H12.4231C12.3529 27.7291 12.2826 27.7258 12.213 27.7168C12.1623 27.7137 12.1128 27.7003 12.0676 27.6772C12.0224 27.6542 11.9823 27.622 11.9501 27.5828C11.9178 27.5436 11.8939 27.498 11.88 27.4492C11.866 27.4004 11.8623 27.3492 11.869 27.2988C11.8659 27.2501 11.8731 27.2013 11.8899 27.1555C11.9067 27.1097 11.9329 27.0679 11.9668 27.0327C12.0006 26.9975 12.0414 26.9697 12.0865 26.9512C12.1317 26.9326 12.1802 26.9236 12.229 26.9248C12.529 26.9078 12.8291 26.917 13.1221 26.917H17.2671V23.6238H15.967C15.533 23.6238 15.3581 23.5079 15.3561 23.2239C15.3541 22.9399 15.536 22.8149 15.962 22.8149H17.28V22.115H12.38C11.907 22.115 11.7611 21.9539 11.7981 21.4719C11.8239 20.7912 12.0776 20.1388 12.5187 19.6196C12.9597 19.1004 13.5625 18.7445 14.2301 18.6089C14.7461 18.4758 15.2762 18.4047 15.8091 18.397C17.9721 18.373 20.1361 18.386 22.2991 18.386H22.6211V17.3108H8.72105V17.6309C8.72105 20.7755 8.72105 23.92 8.72105 27.064C8.72105 27.143 8.72105 27.2218 8.72105 27.2998C8.72378 27.3531 8.71528 27.4063 8.69615 27.4561C8.67701 27.5058 8.64767 27.5512 8.60997 27.5889C8.57226 27.6266 8.52704 27.6559 8.47728 27.675C8.42751 27.6942 8.37427 27.7027 8.32103 27.7C8.268 27.7059 8.21428 27.6999 8.1638 27.6826C8.11332 27.6653 8.06729 27.6371 8.02903 27.5999C7.99078 27.5627 7.96129 27.5175 7.94261 27.4675C7.92392 27.4175 7.91653 27.364 7.921 27.3108C7.908 26.8378 7.91504 26.3648 7.91404 25.8918C7.91404 25.7698 7.91404 25.6479 7.91404 25.5059H0.796002C0.796002 25.6959 0.796002 25.886 0.796002 26.075C0.796002 26.495 0.801044 26.9159 0.789044 27.3359C0.791786 27.3868 0.783335 27.4376 0.764263 27.4849C0.745191 27.5321 0.715986 27.5747 0.678692 27.6094C0.641398 27.6441 0.596934 27.6701 0.548443 27.6858C0.499952 27.7014 0.448606 27.7063 0.398052 27.7C0.347131 27.7035 0.296056 27.6966 0.247906 27.6797C0.199756 27.6627 0.155495 27.636 0.118023 27.6013C0.0805508 27.5667 0.0506524 27.5247 0.0300104 27.478C0.00936846 27.4313 -0.00154968 27.3809 -0.00197201 27.3298C-0.00797201 27.2688 -0.00197201 27.207 -0.00197201 27.146C-0.00197201 22.9333 -0.00197201 18.7202 -0.00197201 14.5068C-0.00197201 14.0358 0.112017 13.9229 0.587017 13.9229H1.88707C1.17232 12.9616 0.847841 11.7656 0.978985 10.575C0.978985 10.262 1.11408 10.1268 1.42808 10.1228C2.05908 10.1158 2.68905 10.1228 3.32005 10.1228H3.62803V9.44189C3.32595 9.43113 3.02508 9.3976 2.72801 9.3418C2.36325 9.27198 2.02329 9.10746 1.74241 8.8645C1.46153 8.62154 1.24966 8.30891 1.12803 7.95801C0.806033 6.96301 1.10207 6.68678 2.03807 6.57178C2.61539 6.51854 3.19037 6.69554 3.63804 7.06396C3.61704 6.71796 3.73797 6.43779 3.43797 6.15479C3.22043 5.93786 3.05003 5.67838 2.93736 5.39258C2.82468 5.10677 2.7722 4.80091 2.78318 4.4939C2.79417 4.18688 2.8684 3.88542 3.0012 3.6084C3.13401 3.33137 3.32255 3.08462 3.55503 2.88379C3.61207 2.81919 3.68159 2.76682 3.75938 2.72974C3.83717 2.69265 3.92157 2.67161 4.00767 2.66797C4.09377 2.66433 4.17971 2.67811 4.26036 2.7085C4.341 2.73888 4.41474 2.78542 4.47703 2.84497C4.72351 3.03124 4.92772 3.26745 5.07627 3.53833C5.22483 3.80921 5.31429 4.10854 5.33885 4.4165C5.36341 4.72447 5.32247 5.03419 5.21873 5.3252C5.11499 5.6162 4.95088 5.882 4.73704 6.10498C4.61697 6.22464 4.52921 6.37279 4.48216 6.53564C4.4351 6.6985 4.43025 6.87063 4.468 7.03589C4.552 6.98589 4.62403 6.94288 4.69603 6.90088C4.97899 6.71552 5.3023 6.60071 5.63877 6.56592C5.97525 6.53112 6.31508 6.5774 6.62999 6.70093C6.70804 6.71874 6.78172 6.75207 6.84654 6.79907C6.91135 6.84607 6.96599 6.90571 7.00718 6.97437C7.04838 7.04302 7.07532 7.11942 7.08628 7.19873C7.09725 7.27804 7.09204 7.35853 7.07103 7.43579C7.00497 8.00185 6.72587 8.52165 6.29051 8.8894C5.85514 9.25716 5.29617 9.44528 4.72703 9.41577L4.473 9.3999V10.1099C4.56 10.1099 4.652 10.1208 4.744 10.1218C5.322 10.1218 5.90001 10.1218 6.47801 10.1218C6.83101 10.1218 6.98802 10.2688 6.96702 10.6218C6.93502 11.1798 6.89804 11.74 6.81504 12.292C6.72431 12.8957 6.4539 13.4581 6.03904 13.906H14.919V12.5059H9.75401C9.60062 12.5221 9.44551 12.5039 9.30003 12.4526C9.15455 12.4014 9.02238 12.3183 8.91307 12.2095C8.80376 12.1006 8.7201 11.9687 8.66819 11.8235C8.61629 11.6782 8.59743 11.5233 8.61302 11.3699C8.61302 9.39054 8.61302 7.41122 8.61302 5.43188C8.61302 5.20688 8.66509 5.0319 8.90709 4.9729C9.19409 4.8999 9.40001 5.07291 9.40001 5.40991C9.40001 6.67125 9.40001 7.93251 9.40001 9.19385V9.4939H20.0851C20.2231 8.9499 20.3301 8.4008 20.5021 7.8728C20.7999 6.87558 21.3972 5.99417 22.213 5.3479C22.3857 5.21407 22.5709 5.09707 22.766 4.99878C23.121 4.82178 23.391 4.99185 23.411 5.39185C23.417 5.50485 23.411 5.61991 23.411 5.73291V9.49683H24.581C24.581 9.41083 24.594 9.32692 24.594 9.24292C24.594 6.84292 24.594 4.44297 24.594 2.04297C24.594 1.67797 24.539 1.62378 24.164 1.62378H9.84398C9.46498 1.62378 9.40003 1.68899 9.39903 2.06299C9.39903 2.45699 9.39903 2.85087 9.39903 3.24487C9.39903 3.52287 9.262 3.66887 9.015 3.67188C8.768 3.67488 8.61497 3.52689 8.61497 3.23389C8.61497 2.87489 8.63599 2.51398 8.60899 2.15698C8.56127 1.87835 8.61495 1.59163 8.76023 1.34912C8.90552 1.10662 9.13279 0.924339 9.40098 0.834961H24.5961C24.8332 0.903149 25.0409 1.0482 25.1866 1.24731C25.3323 1.44643 25.4077 1.68817 25.401 1.93481C25.401 5.09381 25.401 8.25189 25.401 11.4109C25.4113 11.5577 25.39 11.705 25.3382 11.8428C25.2865 11.9806 25.2057 12.1055 25.1013 12.2092C24.9969 12.313 24.8714 12.393 24.7333 12.4438C24.5952 12.4947 24.4477 12.5152 24.301 12.5039C24.015 12.5039 23.73 12.5039 23.442 12.5039V13.9238H23.742C24.6 13.9238 25.4571 13.9319 26.3141 13.9189C26.4287 13.9043 26.5451 13.9213 26.6509 13.968C26.7566 14.0147 26.8476 14.0892 26.914 14.1838L26.905 21.1169ZM21.972 16.4888C21.62 15.9888 21.249 15.4808 20.912 14.9568C20.8757 14.8773 20.8164 14.8107 20.7417 14.7654C20.6669 14.7201 20.5803 14.6982 20.493 14.7029C14.0264 14.7095 7.5627 14.7113 1.10203 14.708H0.819073V16.4888H21.972ZM7.88707 21.4048H0.814068V24.677H7.88707V21.4048ZM7.88707 17.3108H0.816021V20.5798H7.88707V17.3108ZM22.61 19.1758H22.31C21.032 19.1758 19.7544 19.1758 18.477 19.1758C17.567 19.1758 16.6571 19.168 15.7471 19.188C15.0267 19.1703 14.3144 19.3428 13.682 19.688C13.3873 19.8554 13.1366 20.0903 12.9504 20.3735C12.7642 20.6567 12.648 20.98 12.6111 21.3169C12.7011 21.3169 12.77 21.3279 12.839 21.3279C15.4643 21.3279 18.0897 21.3279 20.7151 21.3279C20.9249 21.3276 21.1344 21.3093 21.341 21.2729C21.5422 21.2536 21.7358 21.1867 21.906 21.0779C22.0762 20.969 22.2181 20.8214 22.32 20.647C22.5394 20.1887 22.6385 19.682 22.608 19.1748L22.61 19.1758ZM20.051 10.3159H9.40501C9.40501 10.6389 9.40501 10.9438 9.40501 11.2488C9.40501 11.6628 9.45703 11.7139 9.87303 11.7139H20.051V10.3159ZM22.589 15.8579V6.07178C22.1732 6.42595 21.8331 6.86036 21.589 7.34888C21.1848 8.15529 20.9468 9.03463 20.889 9.93481C20.7278 11.3385 20.8973 12.7605 21.384 14.0869C21.6401 14.7634 22.0523 15.3699 22.587 15.8569L22.589 15.8579ZM6.15709 10.9358H1.78001C1.77682 11.5722 1.88824 12.2039 2.10899 12.8008C2.20742 13.0602 2.3723 13.2891 2.58714 13.4646C2.80197 13.6401 3.0592 13.7561 3.33299 13.8008C3.6254 13.8545 3.92323 13.8734 4.22007 13.8569C4.5422 13.8619 4.85912 13.7751 5.13389 13.6069C5.40867 13.4387 5.62998 13.1961 5.77208 12.907C6.04638 12.2868 6.17722 11.6126 6.15501 10.9348L6.15709 10.9358ZM23.437 14.7229V16.4768H26.0901V14.7229H23.437ZM18.2521 13.907V12.5198H15.763V13.907H18.2521ZM19.082 13.907H20.4341C20.3441 13.468 20.261 13.0429 20.165 12.6199C20.153 12.591 20.134 12.5656 20.1097 12.5459C20.0855 12.5262 20.0567 12.5127 20.026 12.5068C19.715 12.4968 19.404 12.502 19.082 12.502V13.907ZM24.599 10.3069H23.436V11.7068C23.75 11.7068 24.046 11.7128 24.342 11.7068C24.3774 11.7092 24.4129 11.704 24.446 11.6912C24.4791 11.6783 24.509 11.6582 24.5336 11.6326C24.5581 11.6069 24.5767 11.5761 24.588 11.5425C24.5993 11.5088 24.603 11.4733 24.599 11.438C24.596 11.074 24.5961 10.7068 24.5961 10.3098L24.599 10.3069ZM4.07298 5.6499C4.22195 5.51852 4.34135 5.35682 4.42308 5.17578C4.5048 4.99475 4.54698 4.79848 4.54698 4.59985C4.54698 4.40123 4.5048 4.20496 4.42308 4.02393C4.34135 3.84289 4.22195 3.68118 4.07298 3.5498C3.92044 3.67921 3.79786 3.84025 3.71373 4.02173C3.62959 4.20321 3.58599 4.40079 3.5858 4.60083C3.58561 4.80087 3.62884 4.99853 3.71263 5.18018C3.79642 5.36182 3.91873 5.52314 4.07103 5.65283L4.07298 5.6499ZM6.24607 7.42383C6.05712 7.36532 5.85775 7.34821 5.6616 7.37378C5.46546 7.39934 5.27712 7.46703 5.10948 7.57202C4.94184 7.67701 4.79879 7.81687 4.69017 7.98218C4.58154 8.14748 4.50993 8.33425 4.48008 8.52979C4.66869 8.58813 4.86756 8.60524 5.06334 8.57983C5.25911 8.55443 5.44714 8.48712 5.6146 8.38257C5.78207 8.27801 5.92501 8.13863 6.03379 7.97388C6.14258 7.80913 6.2146 7.62305 6.24498 7.42798L6.24607 7.42383ZM1.84605 7.42383C1.87813 7.61903 1.95166 7.80505 2.06163 7.96948C2.17159 8.13392 2.31548 8.27299 2.48362 8.3772C2.65177 8.4814 2.84029 8.54843 3.03648 8.57373C3.23267 8.59903 3.43199 8.58206 3.62107 8.52393C3.58827 8.32915 3.51414 8.14356 3.40379 7.97974C3.29344 7.81591 3.14936 7.67757 2.98118 7.57397C2.81301 7.47038 2.62464 7.40401 2.42869 7.37915C2.23274 7.35429 2.03379 7.37161 1.84507 7.42993L1.84605 7.42383Z" fill="#B9B9B9"/>
    <path d="M26.905 27.4238C26.8683 27.5131 26.8034 27.5877 26.7201 27.6365C26.6368 27.6852 26.5399 27.7055 26.4441 27.6938C26.2071 27.6638 26.1061 27.5359 26.1051 27.2249C26.1051 26.2559 26.1051 25.2869 26.1051 24.3179C26.1051 24.0039 26.1051 23.6888 26.1051 23.3748C26.1051 23.1478 26.1051 22.9279 26.3611 22.8279C26.6171 22.7279 26.7611 22.8938 26.9071 23.0608L26.905 27.4238Z" fill="#B9B9B9"/>
    <path d="M4.35806 23.431C3.87706 23.431 3.39497 23.431 2.91397 23.431C2.85962 23.4363 2.80473 23.4304 2.75283 23.4134C2.70093 23.3964 2.65325 23.3688 2.61257 23.3324C2.5719 23.2959 2.53918 23.2512 2.51663 23.2015C2.49407 23.1518 2.4821 23.0979 2.48147 23.0433C2.48085 22.9887 2.49155 22.9346 2.51297 22.8844C2.53438 22.8341 2.56604 22.7889 2.60586 22.7516C2.64569 22.7142 2.69279 22.6855 2.74429 22.6673C2.79579 22.6492 2.8506 22.6418 2.90506 22.6458C3.87639 22.6425 4.84797 22.6425 5.81997 22.6458C5.87454 22.6392 5.92996 22.6445 5.98233 22.6612C6.03469 22.6779 6.08281 22.7057 6.12344 22.7428C6.16407 22.7798 6.1963 22.8252 6.2178 22.8758C6.2393 22.9264 6.2495 22.981 6.24795 23.036C6.25223 23.0913 6.24422 23.1468 6.22439 23.1986C6.20457 23.2504 6.17343 23.297 6.13333 23.3353C6.09322 23.3736 6.04522 23.4026 5.99258 23.42C5.93994 23.4374 5.88403 23.4427 5.82901 23.4359C5.33401 23.4339 4.84806 23.431 4.35806 23.431Z" fill="#B9B9B9"/>
    <path d="M4.34801 19.3347C3.87501 19.3347 3.40304 19.3347 2.93004 19.3347C2.64604 19.3347 2.47704 19.1788 2.48204 18.9348C2.48704 18.6908 2.654 18.5447 2.942 18.5437C3.88734 18.5437 4.83273 18.5437 5.77806 18.5437C6.08506 18.5437 6.25003 18.6898 6.24803 18.9438C6.24603 19.1978 6.09408 19.3279 5.79308 19.3289C5.31008 19.3379 4.82901 19.3347 4.34801 19.3347Z" fill="#B9B9B9"/>
    </svg>
    