<svg width="19" height="20" viewBox="0 0 19 20" fill="none" xmlns="http://www.w3.org/2000/svg">
    <path
        d="M1.49996 5.84C1.38163 4.9826 1.49452 4.10915 1.82696 3.31C2.14545 2.83385 2.60336 2.46781 3.13796 2.262C4.16885 1.99233 5.23874 1.90368 6.29996 2H12.7C13.7612 1.90368 14.8311 1.99233 15.862 2.262C16.3966 2.46781 16.8545 2.83385 17.173 3.31C17.5054 4.10913 17.6183 4.9826 17.5 5.84V14.16C17.6183 15.0174 17.5054 15.8909 17.173 16.69C16.8546 17.1665 16.3967 17.5329 15.862 17.739C14.831 18.0083 13.7611 18.0966 12.7 18H6.29996C5.23874 18.0963 4.16885 18.0077 3.13796 17.738C2.60336 17.5322 2.14545 17.1661 1.82696 16.69C1.49452 15.8909 1.38163 15.0174 1.49996 14.16V5.84Z"
        stroke="#B9B9B9" stroke-width="2" stroke-linecap="round" stroke-linejoin="round" />
</svg>
    