<svg width="26" height="19" viewBox="0 0 26 19" fill="none" xmlns="http://www.w3.org/2000/svg">
    <path d="M21.726 16.7509C21.726 17.3059 21.726 17.8279 21.726 18.3509C21.726 18.6979 21.58 18.8429 21.236 18.8449C20.87 18.8449 20.505 18.8369 20.136 18.8449C20.0184 18.8582 19.9 18.8266 19.8046 18.7566C19.7092 18.6865 19.6436 18.5831 19.621 18.4669C19.414 17.8219 19.186 17.183 18.982 16.536C18.9765 16.5029 18.9646 16.4712 18.9468 16.4427C18.9291 16.4143 18.9058 16.3896 18.8785 16.3702C18.8512 16.3508 18.8203 16.337 18.7876 16.3296C18.7549 16.3221 18.7211 16.3213 18.688 16.327C13.474 16.331 8.26031 16.331 3.04697 16.327C3.01187 16.3205 2.97587 16.3212 2.94102 16.3288C2.90616 16.3365 2.87319 16.351 2.84403 16.3715C2.81488 16.3921 2.79011 16.4184 2.77122 16.4487C2.75233 16.479 2.73966 16.5127 2.73399 16.5479C2.53399 17.1789 2.32301 17.8039 2.11301 18.4299C1.99701 18.7759 1.90397 18.842 1.54697 18.843C1.18997 18.844 0.815999 18.843 0.446999 18.843C0.385879 18.8503 0.323866 18.8436 0.265724 18.8233C0.207583 18.8031 0.154871 18.77 0.111489 18.7263C0.068106 18.6826 0.0351921 18.6297 0.0153582 18.5714C-0.00447581 18.5131 -0.0107467 18.4511 -0.00301341 18.39C-0.00301341 17.021 -0.00301341 15.6509 -0.00301341 14.2819C-0.00695014 14.223 0.000755178 14.1639 0.0196917 14.108C0.0386281 14.0521 0.0684189 14.0004 0.107338 13.956C0.146257 13.9116 0.193537 13.8753 0.246498 13.8492C0.29946 13.8231 0.357074 13.8077 0.415993 13.8039C0.415993 13.1629 0.442012 12.5339 0.410012 11.9039C0.37588 11.3914 0.526165 10.8837 0.833718 10.4724C1.14127 10.061 1.58581 9.77321 2.08701 9.66098V9.36093C2.08701 7.93093 2.08701 6.50058 2.08701 5.06991C2.07954 4.7338 2.1401 4.39972 2.26505 4.08761C2.39 3.7755 2.57671 3.49185 2.81406 3.25375C3.05141 3.01565 3.3345 2.82805 3.64622 2.70212C3.95793 2.57619 4.29184 2.51454 4.62797 2.52096C8.77997 2.52096 12.9317 2.52096 17.083 2.52096C17.4191 2.51349 17.7532 2.57399 18.0653 2.69894C18.3775 2.82389 18.6611 3.01066 18.8992 3.24801C19.1373 3.48536 19.325 3.76845 19.4509 4.08017C19.5768 4.39188 19.6384 4.72585 19.632 5.06198C19.632 5.46198 19.632 5.86192 19.632 6.27292H21.702V4.61093C21.329 4.61093 20.95 4.61093 20.57 4.61093C20.17 4.61093 20.011 4.44098 20.06 4.04098C20.19 2.96898 20.329 1.89897 20.469 0.827971C20.4685 0.770669 20.4803 0.713928 20.5036 0.661589C20.527 0.609249 20.5613 0.562555 20.6042 0.524626C20.6472 0.486697 20.6978 0.458412 20.7526 0.44174C20.8074 0.425068 20.8652 0.420351 20.922 0.427946C21.7313 0.427946 22.5407 0.427946 23.35 0.427946C23.4089 0.420047 23.4688 0.425072 23.5255 0.442717C23.5822 0.460361 23.6343 0.490217 23.6783 0.530119C23.7223 0.570021 23.7571 0.619069 23.7802 0.673796C23.8033 0.728522 23.8141 0.787534 23.812 0.846891C23.951 1.90889 24.088 2.9709 24.218 4.0339C24.268 4.4449 24.108 4.60993 23.688 4.61093H22.644C22.6207 4.61374 22.5976 4.61846 22.575 4.62497V6.2839H25.384C25.752 6.2839 25.898 6.4239 25.898 6.7839C25.898 9.94124 25.898 13.0983 25.898 16.255C25.898 16.611 25.751 16.755 25.383 16.755H21.72L21.726 16.7509ZM20.474 13.813C20.474 13.167 20.474 12.5479 20.474 11.9299C20.5001 11.7316 20.4802 11.5301 20.4157 11.3408C20.3512 11.1515 20.244 10.9795 20.1022 10.8385C19.9605 10.6974 19.7881 10.591 19.5985 10.5274C19.4089 10.4639 19.2071 10.4448 19.009 10.4719H2.71598C2.63798 10.4719 2.559 10.4719 2.481 10.4719C2.19518 10.4755 1.91971 10.5795 1.70274 10.7656C1.48577 10.9517 1.34109 11.208 1.29398 11.49C1.25602 11.8098 1.24298 12.1321 1.25498 12.4539C1.24998 12.9039 1.25498 13.354 1.25498 13.812L20.474 13.813ZM11.705 9.62289C11.705 8.86189 11.678 8.11293 11.714 7.36593C11.7442 7.07642 11.8786 6.80772 12.0922 6.60995C12.3058 6.41218 12.584 6.29887 12.875 6.29098C14.1803 6.28165 15.4857 6.28165 16.791 6.29098C17.0859 6.30035 17.3672 6.4174 17.5817 6.62008C17.7962 6.82277 17.929 7.09701 17.955 7.39096C17.983 8.12896 17.962 8.86896 17.962 9.61496H18.803C18.803 8.11496 18.803 6.63199 18.803 5.14999C18.8196 4.90934 18.7844 4.66789 18.6998 4.44198C18.6152 4.21608 18.4832 4.01087 18.3126 3.8403C18.142 3.66973 17.9369 3.53781 17.711 3.45321C17.4851 3.36862 17.2436 3.33337 17.003 3.34994C12.913 3.34994 8.82301 3.34994 4.73301 3.34994C4.49033 3.33268 4.24677 3.36792 4.01896 3.45334C3.79115 3.53875 3.58445 3.67238 3.41294 3.84494C3.24143 4.0175 3.10915 4.22501 3.02512 4.45334C2.94109 4.68166 2.90727 4.92536 2.926 5.16794C2.926 6.56327 2.926 7.95833 2.926 9.35299V9.61899H3.80497C3.79097 9.47899 3.76697 9.35096 3.76597 9.21896C3.76197 8.6523 3.76197 8.08556 3.76597 7.51889C3.7653 7.35532 3.79719 7.19335 3.85972 7.0422C3.92225 6.89105 4.01419 6.75381 4.13023 6.63852C4.24626 6.52323 4.38407 6.43213 4.53562 6.37057C4.68717 6.30902 4.84941 6.27827 5.01298 6.28C6.26631 6.27666 7.51934 6.27666 8.77201 6.28C8.93782 6.27702 9.10254 6.30742 9.25632 6.36947C9.41011 6.43153 9.54978 6.52387 9.66709 6.64108C9.7844 6.7583 9.87689 6.89799 9.93906 7.05173C10.0012 7.20546 10.0318 7.37017 10.029 7.53598C10.029 8.22798 10.029 8.91996 10.029 9.61496L11.705 9.62289ZM25.051 15.9039V10.495H20.902C21.2089 10.937 21.3537 11.4714 21.312 12.0079C21.295 12.6079 21.312 13.2079 21.312 13.7999C21.661 13.9189 21.729 14.0119 21.73 14.3569C21.73 14.8689 21.73 15.381 21.73 15.905L25.051 15.9039ZM20.88 14.6779H0.855995V15.485H20.88V14.6779ZM19.648 9.61899H25.048V7.13791H19.648V9.61899ZM6.89799 9.63791C7.48899 9.63791 8.08002 9.63791 8.67002 9.63791C9.02502 9.63791 9.18802 9.47991 9.19102 9.13791C9.19568 8.63324 9.19568 8.12823 9.19102 7.62289C9.19989 7.55539 9.19302 7.48685 9.17094 7.42245C9.14885 7.35805 9.11213 7.29965 9.0637 7.2518C9.01527 7.20395 8.95642 7.16788 8.89176 7.14657C8.8271 7.12527 8.75841 7.11931 8.69102 7.129C7.49102 7.129 6.29098 7.129 5.09098 7.129C5.02302 7.11909 4.95371 7.12519 4.88853 7.14682C4.82334 7.16844 4.76411 7.20495 4.71555 7.25351C4.66699 7.30207 4.63043 7.3613 4.6088 7.42648C4.58718 7.49166 4.58107 7.56104 4.59098 7.629C4.59098 8.129 4.59098 8.62091 4.59098 9.11691C4.59098 9.48191 4.75097 9.63591 5.11997 9.63791C5.71597 9.63891 6.30799 9.63791 6.89799 9.63791ZM14.843 9.63791C15.434 9.63791 16.025 9.63791 16.615 9.63791C16.967 9.63791 17.127 9.477 17.13 9.129C17.134 8.633 17.134 8.13665 17.13 7.63998C17.13 7.28798 16.969 7.12694 16.62 7.12594C15.43 7.12594 14.2397 7.12594 13.049 7.12594C12.696 7.12594 12.537 7.28498 12.534 7.63498C12.534 8.12198 12.534 8.60989 12.534 9.09689C12.534 9.48289 12.688 9.63591 13.07 9.63791C13.661 9.63891 14.252 9.63791 14.843 9.63791ZM21.264 1.27597L20.955 3.7579H23.335L23.024 1.27597H21.264ZM0.850014 16.3469V18.01C0.914239 18.0047 0.978782 18.0047 1.04301 18.01C1.29601 18.055 1.415 17.9479 1.473 17.6989C1.531 17.4499 1.63998 17.187 1.72398 16.931C1.78698 16.739 1.84497 16.5459 1.90897 16.3449L0.850014 16.3469ZM20.873 17.9969V16.344H19.808C19.948 16.772 20.081 17.184 20.217 17.594C20.367 18.033 20.368 18.0339 20.873 17.9969Z" fill="#B9B9B9"/>
    <path d="M22.543 8.78601H21.743V7.98608H22.543V8.78601Z" fill="#B9B9B9"/>
    </svg>
    