<svg width="27" height="28" viewBox="0 0 27 28" fill="none" xmlns="http://www.w3.org/2000/svg">
    <path d="M3.64002 16.323H23.261C23.261 15.708 23.269 15.106 23.25 14.505C23.25 14.432 23.103 14.355 23.014 14.296C22.5971 14.037 22.2641 13.6627 22.0552 13.2186C21.8462 12.7745 21.7703 12.2794 21.8365 11.7931C21.9026 11.3068 22.1081 10.85 22.4282 10.4779C22.7482 10.1058 23.1691 9.83416 23.64 9.69593C24.2256 9.51949 24.8552 9.56068 25.4127 9.8119C25.9703 10.0631 26.4183 10.5075 26.674 11.063C26.9298 11.6185 26.9761 12.2478 26.8045 12.8347C26.6328 13.4217 26.2548 13.9268 25.74 14.257C25.6396 14.3095 25.5574 14.391 25.5039 14.4909C25.4504 14.5907 25.4281 14.7044 25.44 14.817C25.4494 18.7504 25.4514 22.686 25.446 26.624C25.446 27.176 25.374 27.249 24.832 27.249H23.807C23.361 27.249 23.266 27.149 23.264 26.695C23.264 26.404 23.264 26.1139 23.264 25.8059H3.64002C3.64002 26.1239 3.64002 26.4409 3.64002 26.7579C3.64002 27.1329 3.52202 27.247 3.14802 27.249C2.74802 27.249 2.35069 27.249 1.95602 27.249C1.58002 27.249 1.46302 27.135 1.46202 26.761C1.46202 25.389 1.46202 24.0173 1.46202 22.646C1.46202 20.0067 1.46369 17.3674 1.46702 14.728C1.4759 14.6421 1.45823 14.5554 1.4164 14.4797C1.37456 14.4041 1.31057 14.3431 1.23302 14.3049C0.712252 13.9944 0.320478 13.5071 0.129188 12.9318C-0.0621024 12.3564 -0.0401559 11.7315 0.19102 11.171C0.419674 10.6201 0.834367 10.1667 1.36285 9.89015C1.89134 9.61355 2.50011 9.53124 3.08312 9.65736C3.66613 9.78348 4.18641 10.11 4.55332 10.5803C4.92023 11.0506 5.11051 11.6348 5.09102 12.231C5.08259 12.6545 4.96458 13.0686 4.74849 13.433C4.53241 13.7973 4.22562 14.0994 3.85802 14.3099C3.78381 14.3453 3.7223 14.4027 3.68186 14.4743C3.64142 14.5458 3.62402 14.6282 3.63202 14.71C3.65002 15.232 3.64002 15.766 3.64002 16.323ZM23.249 22.892H3.65902V25.022H23.249V22.892ZM23.249 17.101H3.66502V17.751H23.249V17.101ZM2.54902 10.325C2.06885 10.325 1.60834 10.5157 1.2688 10.8552C0.929269 11.1948 0.738519 11.6553 0.738519 12.1355C0.738519 12.6157 0.929269 13.0761 1.2688 13.4157C1.60834 13.7552 2.06885 13.9459 2.54902 13.9459C3.03153 13.9415 3.49286 13.7472 3.83313 13.405C4.17339 13.0629 4.3652 12.6005 4.36702 12.1179C4.36123 11.6402 4.16732 11.1841 3.82735 10.8484C3.48738 10.5127 3.02877 10.3247 2.55102 10.325H2.54902ZM24.362 10.325C24.1243 10.3236 23.8886 10.369 23.6684 10.4587C23.4482 10.5485 23.2478 10.6806 23.0787 10.8478C22.9096 11.0149 22.7751 11.2137 22.6829 11.4329C22.5906 11.652 22.5424 11.8873 22.541 12.125C22.5396 12.3628 22.5851 12.5984 22.6748 12.8186C22.7645 13.0388 22.8967 13.2391 23.0639 13.4082C23.231 13.5773 23.4298 13.7118 23.649 13.8041C23.8681 13.8963 24.1033 13.9446 24.341 13.9459C24.8235 13.9441 25.2859 13.7524 25.6281 13.4121C25.9702 13.0719 26.1646 12.6104 26.169 12.1279C26.1659 11.6502 25.9745 11.193 25.6364 10.8555C25.2983 10.5179 24.8398 10.3273 24.362 10.325ZM2.87802 26.497V14.676H2.21702V26.497H2.87802ZM24.021 14.676V26.4979H24.689V14.676H24.021ZM5.80402 18.543H3.66402V22.12H5.80402V18.543ZM10.161 18.536H8.02302V22.121H10.16L10.161 18.536ZM14.526 18.536H12.387V22.1229H14.525L14.526 18.536ZM16.75 22.119H18.886V18.5349H16.749L16.75 22.119ZM23.25 18.5389H21.11V22.12H23.25V18.5389ZM10.926 18.531V22.124H11.619V18.531H10.926ZM15.97 22.131V18.5399H15.281V22.131H15.97ZM6.57002 22.131H7.24102V18.544H6.57002V22.131ZM19.652 18.538V22.127H20.324V18.538H19.652Z" fill="#B9B9B9"/>
    <path d="M12.432 7.62595V0.925995C12.432 0.849995 12.432 0.773944 12.432 0.698944C12.4309 0.651105 12.4396 0.603581 12.4577 0.559296C12.4759 0.51501 12.503 0.475011 12.5374 0.441742C12.5718 0.408473 12.6127 0.382705 12.6576 0.366058C12.7024 0.349412 12.7503 0.342159 12.798 0.34494C12.8459 0.343146 12.8935 0.351267 12.9381 0.368622C12.9827 0.385976 13.0233 0.412248 13.0573 0.445892C13.0913 0.479536 13.1181 0.519786 13.1359 0.564178C13.1538 0.608571 13.1623 0.65612 13.161 0.703949C13.168 0.778949 13.161 0.855 13.161 0.931C13.161 3.05 13.161 5.16893 13.161 7.28793C13.161 7.52793 13.1901 7.64096 13.4711 7.68796C14.1553 7.82326 14.7684 8.19939 15.199 8.74802C15.2714 8.81045 15.317 8.89835 15.3263 8.9935C15.3356 9.08865 15.308 9.18372 15.249 9.259C15.1913 9.3352 15.1062 9.38586 15.0117 9.40024C14.9172 9.41462 14.8208 9.39162 14.743 9.33603C14.5366 9.23006 14.3084 9.17333 14.0764 9.1705C13.8443 9.16767 13.6148 9.21878 13.4058 9.31967C13.1969 9.42057 13.0142 9.56858 12.8721 9.75204C12.73 9.93551 12.6324 10.1494 12.587 10.3769C12.5333 10.6387 12.5501 10.9101 12.6357 11.1633C12.7212 11.4165 12.8725 11.6424 13.074 11.818C13.2755 11.9935 13.52 12.1124 13.7825 12.1624C14.045 12.2125 14.3161 12.192 14.568 12.103C14.7901 12.024 15.023 11.878 15.203 12.143C15.397 12.43 15.168 12.618 14.994 12.8C14.6576 13.1443 14.2446 13.4042 13.7887 13.5587C13.3328 13.7132 12.8469 13.7578 12.3705 13.6889C11.8941 13.6201 11.4406 13.4397 11.0471 13.1624C10.6536 12.8852 10.3311 12.5189 10.1059 12.0935C9.88072 11.668 9.75916 11.1955 9.75116 10.7142C9.74315 10.2329 9.84892 9.75651 10.0598 9.32382C10.2708 8.89113 10.5809 8.51438 10.9649 8.22421C11.349 7.93404 11.7962 7.73869 12.27 7.65402C12.316 7.65502 12.36 7.64295 12.432 7.62595ZM13.475 12.872C12.9962 12.7362 12.5751 12.4471 12.2761 12.0492C11.9771 11.6512 11.8168 11.1662 11.8196 10.6684C11.8225 10.1707 11.9883 9.68758 12.2918 9.29306C12.5953 8.89854 13.0197 8.61438 13.5 8.48398C13.0492 8.32738 12.5605 8.31713 12.1035 8.45468C11.6464 8.59223 11.2445 8.87055 10.955 9.24997C10.6375 9.65979 10.4652 10.1635 10.4652 10.682C10.4652 11.2004 10.6375 11.7042 10.955 12.114C11.242 12.4893 11.64 12.7646 12.0924 12.9007C12.5448 13.0368 13.0287 13.0268 13.475 12.872Z" fill="#B9B9B9"/>
    <path d="M17.712 4.10706C17.712 3.01906 17.712 1.93102 17.712 0.843018C17.712 0.516018 17.842 0.343018 18.078 0.343018C18.314 0.343018 18.444 0.529976 18.444 0.849976C18.444 3.00698 18.444 5.16402 18.452 7.32202C18.4668 7.49274 18.5284 7.65599 18.63 7.79395C18.9903 8.23382 19.4682 8.56227 20.008 8.74097C20.4 8.92097 20.469 9.08797 20.24 9.44897C19.8836 10.0178 19.6772 10.6678 19.64 11.338C19.616 11.678 19.475 11.778 19.132 11.748C19.038 11.7398 18.9449 11.7227 18.854 11.697C18.3031 11.5575 17.7251 11.5651 17.178 11.719C16.707 11.833 16.552 11.743 16.513 11.272C16.4572 10.6029 16.2388 9.95755 15.877 9.39197C15.699 9.10897 15.771 8.92195 16.077 8.77795C16.6604 8.57949 17.1766 8.22169 17.567 7.745C17.6473 7.63593 17.6961 7.50685 17.708 7.37195C17.717 6.28295 17.712 5.19506 17.712 4.10706ZM16.688 9.38696C17.0324 9.84865 17.2148 10.411 17.207 10.9869C17.744 10.7972 18.3278 10.7853 18.872 10.953L19.402 9.33997L18.088 8.37805L16.688 9.38696Z" fill="#B9B9B9"/>
    <path d="M8.69702 2.47897C8.69702 3.01797 8.68902 3.55704 8.70302 4.09604C8.71525 4.22222 8.76195 4.34264 8.83802 4.44406C9.20576 4.90128 9.69318 5.24746 10.246 5.44406C10.653 5.62806 10.724 5.80201 10.482 6.17001C10.1261 6.75017 9.91767 7.40867 9.87502 8.08798C9.84302 8.39798 9.70002 8.495 9.39502 8.462C9.27286 8.44969 9.15184 8.42801 9.03302 8.39706C8.50865 8.27361 7.96173 8.28319 7.44202 8.42502C6.94202 8.53802 6.78202 8.44399 6.74802 7.94699C6.70069 7.30764 6.49743 6.68969 6.15602 6.14706C5.95002 5.80706 6.02102 5.62105 6.39002 5.45505C6.92973 5.27563 7.40777 4.94732 7.76902 4.50802C7.86814 4.37992 7.93007 4.22698 7.94802 4.06601C7.96302 3.02601 7.95602 1.98504 7.95602 0.945036C7.95078 0.859997 7.95312 0.774655 7.96302 0.690031C7.96518 0.642244 7.97686 0.595299 7.99739 0.552091C8.01791 0.508884 8.04686 0.470305 8.08255 0.438444C8.11823 0.406583 8.15991 0.38219 8.20516 0.366667C8.2504 0.351144 8.29829 0.344743 8.34602 0.34799C8.394 0.346929 8.44165 0.356047 8.48586 0.374723C8.53006 0.393399 8.56981 0.42125 8.6025 0.456388C8.63518 0.491527 8.66005 0.533141 8.67548 0.578581C8.69091 0.62402 8.69655 0.672286 8.69202 0.72006C8.69202 1.16406 8.69202 1.60907 8.69202 2.05307C8.69702 2.19507 8.69702 2.33697 8.69702 2.47897ZM9.13702 7.60104L9.63702 6.04403L8.31302 5.07797L6.94902 6.09299C7.27361 6.52805 7.44518 7.0583 7.43702 7.60104H9.13702Z" fill="#B9B9B9"/>
    </svg>
    