<svg width="27" height="27" viewBox="0 0 27 27" fill="none" xmlns="http://www.w3.org/2000/svg">
    <path
        d="M26.904 14.373C26.8067 14.5982 26.6301 14.7797 26.4078 14.8832C26.1854 14.9866 25.9328 15.0047 25.698 14.9341V15.2801C25.698 18.5855 25.698 21.8904 25.698 25.1951C25.7162 25.3615 25.6971 25.5299 25.642 25.688C25.5868 25.8461 25.4971 25.9899 25.3794 26.1089C25.2616 26.2279 25.1188 26.3191 24.9613 26.3758C24.8038 26.4326 24.6356 26.4536 24.469 26.4371C22.5217 26.4371 20.574 26.4371 18.626 26.4371C13.5753 26.4371 8.52499 26.4371 3.47499 26.4371C3.29441 26.4536 3.11241 26.4299 2.9421 26.3677C2.77178 26.3054 2.61739 26.2062 2.49001 26.0771C2.29926 25.8707 2.19631 25.5981 2.20299 25.3171C2.20299 24.7271 2.20299 24.1371 2.20299 23.5461V14.946C2.03599 14.946 1.89499 14.953 1.75499 14.946C1.65365 14.9441 1.5537 14.9222 1.46083 14.8816C1.36797 14.841 1.28401 14.7824 1.21379 14.7093C1.14358 14.6362 1.08848 14.55 1.05162 14.4556C1.01476 14.3611 0.996889 14.2604 0.999011 14.159C0.999011 13.859 0.999011 13.569 0.999011 13.274C0.994383 13.1663 1.01209 13.0589 1.05104 12.9584C1.09 12.8578 1.14934 12.7665 1.22533 12.6901C1.30132 12.6136 1.39232 12.5536 1.4926 12.514C1.59288 12.4745 1.70027 12.4561 1.808 12.4601C2.557 12.4601 3.308 12.4601 4.088 12.4601C4.09482 12.2894 4.0928 12.1186 4.08199 11.9481C4.07162 11.9162 4.0542 11.887 4.03099 11.8628C4.00779 11.8385 3.97942 11.8198 3.94799 11.8081C3.74439 11.7614 3.56455 11.6426 3.44161 11.4737C3.31867 11.3049 3.26093 11.0973 3.27901 10.8891C3.27901 10.7371 3.27101 10.5891 3.27901 10.4341C3.28043 10.3854 3.29145 10.3376 3.31145 10.2932C3.33145 10.2488 3.36002 10.2089 3.39553 10.1756C3.43103 10.1424 3.47277 10.1164 3.51833 10.0994C3.56389 10.0823 3.61237 10.0743 3.661 10.076C3.7095 10.0743 3.75786 10.0823 3.80321 10.0996C3.84856 10.1169 3.88998 10.1431 3.92504 10.1766C3.96009 10.2102 3.98808 10.2505 4.00731 10.295C4.02654 10.3396 4.03664 10.3876 4.03701 10.4361C4.03701 10.4611 4.03701 10.4871 4.03701 10.5121C4.05601 11.0571 4.05599 11.0571 4.61299 11.0571H9.903C9.903 10.8571 9.903 10.6801 9.903 10.5061C9.911 10.2301 10.057 10.074 10.294 10.076C10.531 10.078 10.66 10.2211 10.67 10.4901C10.6788 10.6838 10.6755 10.8778 10.66 11.071C10.6553 11.2291 10.6002 11.3816 10.5027 11.5061C10.4052 11.6306 10.2704 11.7206 10.118 11.7631C10.0729 11.7669 10.0293 11.7809 9.99034 11.8039C9.95141 11.827 9.91821 11.8585 9.89321 11.8962C9.8682 11.9339 9.85203 11.9768 9.84593 12.0216C9.83984 12.0664 9.84396 12.1121 9.85799 12.1551C9.86294 12.2551 9.86294 12.3551 9.85799 12.4551H21.812C21.896 12.4551 21.981 12.4501 22.065 12.4551C22.1628 12.4613 22.2546 12.5041 22.3224 12.5748C22.3902 12.6456 22.4289 12.7392 22.431 12.8371C22.4287 12.935 22.389 13.0282 22.3199 13.0976C22.2509 13.1671 22.1578 13.2073 22.06 13.2101C21.968 13.2171 21.875 13.2101 21.782 13.2101H1.77501V14.1521H26.13V13.222C26.045 13.222 25.956 13.211 25.867 13.211C25.133 13.211 24.4 13.211 23.667 13.211C23.361 13.211 23.201 13.0811 23.197 12.8401C23.193 12.5991 23.366 12.4511 23.678 12.4501C24.395 12.4501 25.112 12.4732 25.828 12.4412C26.044 12.4079 26.2649 12.4444 26.4586 12.5455C26.6523 12.6466 26.8087 12.8069 26.905 13.003L26.904 14.373ZM24.926 14.961H14.358V19.9271H24.926V14.961ZM24.934 20.7432H14.366V25.6531C14.435 25.6531 14.484 25.6621 14.534 25.6621H24.52C24.832 25.6621 24.938 25.5531 24.938 25.2331C24.938 23.9605 24.938 22.6881 24.938 21.4161L24.934 20.7432ZM2.96999 14.9601V15.237C2.96999 18.549 2.96999 21.8614 2.96999 25.1741C2.96999 25.5741 3.05401 25.6621 3.45601 25.6621H13.547V14.9621L2.96999 14.9601ZM9.092 11.8451H4.876V12.4371H9.092V11.8451Z"
        fill="#B9B9B9" />
    <path
        d="M26.9041 8.60612C26.8026 8.86976 26.6148 9.09117 26.3712 9.23429C26.1277 9.37741 25.8428 9.43374 25.5631 9.39408C22.2511 9.37708 18.9391 9.38707 15.6271 9.38407C15.4504 9.39074 15.2736 9.37463 15.1011 9.3361C14.888 9.27668 14.7003 9.14886 14.567 8.97233C14.4336 8.79579 14.362 8.58028 14.3631 8.35905C14.3591 6.10038 14.3591 3.84171 14.3631 1.58305C14.363 1.44775 14.3897 1.31382 14.442 1.189C14.4942 1.06419 14.5708 0.950992 14.6672 0.856117C14.7637 0.761241 14.8781 0.68654 15.0037 0.63639C15.1294 0.58624 15.2638 0.561732 15.3991 0.564125C18.8884 0.564125 22.3774 0.564125 25.8661 0.564125C26.1043 0.563467 26.3357 0.642591 26.5237 0.788856C26.7116 0.935121 26.8452 1.14011 26.9031 1.37113L26.9041 8.60612ZM21.0351 8.61307H25.7041C26.0771 8.61307 26.1451 8.54513 26.1451 8.17313C26.1451 6.0398 26.1451 3.90644 26.1451 1.77311C26.1451 1.39411 26.0671 1.31608 25.6881 1.31608H21.2881C21.2061 1.31608 21.1251 1.32306 21.0341 1.32706L21.0351 8.61307ZM20.2351 1.33207C20.1471 1.33207 20.0731 1.32011 20.0001 1.32011H15.5511C15.2101 1.32011 15.1281 1.40505 15.1281 1.76005C15.1281 3.90071 15.1281 6.04107 15.1281 8.18107C15.1281 8.53907 15.2011 8.6121 15.5531 8.6121H19.9771C20.0591 8.6121 20.1411 8.60513 20.2361 8.60013L20.2351 1.33207Z"
        fill="#B9B9B9" />
    <path
        d="M12.105 3.15102C12.29 3.15102 12.458 3.15102 12.626 3.15102C12.7294 3.14823 12.8323 3.16599 12.9288 3.20339C13.0252 3.24078 13.1132 3.29703 13.1876 3.36879C13.2621 3.44056 13.3216 3.5265 13.3625 3.62148C13.4034 3.71646 13.425 3.8186 13.426 3.92202C13.437 4.11502 13.431 4.31005 13.426 4.50405C13.4363 4.6205 13.4206 4.73774 13.3802 4.84743C13.3398 4.95713 13.2756 5.05658 13.1923 5.13857C13.1089 5.22056 13.0085 5.28304 12.8982 5.32168C12.7878 5.36031 12.6703 5.37417 12.554 5.36208C10.8427 5.36208 9.13137 5.36208 7.42004 5.36208H1.90603C1.78189 5.38243 1.65469 5.37289 1.53494 5.33437C1.41518 5.29585 1.30631 5.22943 1.21731 5.14052C1.12831 5.05162 1.06174 4.94285 1.02309 4.82314C0.984447 4.70342 0.974831 4.57621 0.995049 4.45205C0.995049 4.28305 0.995049 4.11506 0.995049 3.94606C0.98785 3.8424 1.00271 3.73838 1.03866 3.64089C1.0746 3.54339 1.13081 3.45457 1.20358 3.38039C1.27634 3.30621 1.36399 3.24829 1.46078 3.21047C1.55756 3.17265 1.66126 3.15583 1.76504 3.16103C1.92173 3.19467 2.08538 3.16494 2.22027 3.07839C2.35515 2.99184 2.45033 2.85545 2.48504 2.69899C2.60564 2.38391 2.82334 2.11533 3.10665 1.93215C3.38997 1.74896 3.72423 1.66075 4.06106 1.68007C6.09306 1.67307 8.12503 1.69799 10.161 1.66799C10.6096 1.63834 11.0537 1.77228 11.4112 2.04494C11.7686 2.31761 12.0151 2.71056 12.105 3.15102ZM11.282 3.15102C11.2227 2.93542 11.0908 2.74691 10.9087 2.61721C10.7265 2.48751 10.5052 2.42452 10.282 2.43898C9.55704 2.43898 8.83306 2.43898 8.10806 2.43898C6.79339 2.43898 5.47872 2.43898 4.16405 2.43898C3.93701 2.41633 3.70935 2.4759 3.52239 2.60671C3.33544 2.73752 3.20156 2.93093 3.14504 3.152C3.48504 3.152 3.82005 3.152 4.15505 3.152C4.49005 3.152 4.64605 3.28397 4.65505 3.52797C4.66405 3.77197 4.49405 3.921 4.15505 3.928C3.55505 3.928 2.95504 3.928 2.36004 3.928H1.77804V4.58303H12.6421V3.92202H12.3281L6.05804 3.928C5.95777 3.93052 5.85748 3.92518 5.75805 3.91201C5.67275 3.90394 5.59366 3.86383 5.53671 3.79982C5.47975 3.73582 5.44915 3.65269 5.45104 3.56704C5.43973 3.48211 5.46023 3.39605 5.5086 3.32534C5.55697 3.25463 5.62979 3.20422 5.71304 3.18398C5.80256 3.16167 5.89489 3.15259 5.98705 3.157C7.65372 3.157 9.32237 3.157 10.993 3.157L11.282 3.15102Z"
        fill="#B9B9B9" />
    <path
        d="M19.64 15.5311C19.968 15.5311 20.2971 15.5311 20.6251 15.5311C20.8911 15.5311 21.043 15.6681 21.05 15.8931C21.0531 15.9483 21.0442 16.0036 21.0237 16.0551C21.0033 16.1065 20.9719 16.1529 20.9318 16.1909C20.8916 16.229 20.8436 16.2579 20.7911 16.2755C20.7387 16.2932 20.6831 16.2991 20.6281 16.2931C19.9614 16.2978 19.2947 16.2978 18.6281 16.2931C18.5752 16.297 18.5221 16.2903 18.472 16.2731C18.4219 16.2559 18.3759 16.2287 18.3366 16.1931C18.2973 16.1576 18.2657 16.1144 18.2436 16.0663C18.2215 16.0182 18.2094 15.966 18.208 15.9131C18.2088 15.8604 18.2204 15.8083 18.2422 15.7603C18.2639 15.7122 18.2953 15.6692 18.3345 15.6338C18.3736 15.5984 18.4196 15.5715 18.4696 15.5547C18.5196 15.5379 18.5725 15.5316 18.6251 15.5361C18.9661 15.5271 19.303 15.5321 19.64 15.5311Z"
        fill="#B9B9B9" />
    <path
        d="M19.638 22.2749C19.31 22.2749 18.9811 22.2749 18.6531 22.2749C18.3841 22.2749 18.2101 22.1129 18.2131 21.8919C18.2156 21.8369 18.2293 21.7833 18.2536 21.7339C18.2778 21.6845 18.312 21.6406 18.354 21.605C18.3959 21.5694 18.4447 21.543 18.4974 21.5271C18.5501 21.5113 18.6055 21.5064 18.6601 21.5129C19.3081 21.5129 19.9564 21.5129 20.6051 21.5129C20.8791 21.5129 21.046 21.659 21.052 21.887C21.058 22.115 20.895 22.2719 20.599 22.2759C20.278 22.2779 19.958 22.2749 19.638 22.2749Z"
        fill="#B9B9B9" />
    <path
        d="M8.33701 24.8979C7.09767 24.8979 5.85801 24.8979 4.61801 24.8979C4.5103 24.9145 4.40019 24.9058 4.29648 24.8723C4.19276 24.8388 4.09829 24.7815 4.0206 24.7051C3.94291 24.6286 3.88414 24.5353 3.84897 24.4321C3.8138 24.329 3.80321 24.2191 3.81802 24.1111C3.81336 22.5511 3.81336 20.9909 3.81802 19.4309C3.81802 18.8569 4.077 18.5969 4.655 18.5959C6.173 18.5959 7.69104 18.5959 9.20804 18.5959C10.1274 18.5959 11.0463 18.5959 11.965 18.5959C12.608 18.5959 12.852 18.8409 12.852 19.4829C12.852 21.0002 12.852 22.5181 12.852 24.0361C12.852 24.6621 12.609 24.8989 11.977 24.8989L8.33701 24.8979ZM4.59805 24.124H12.07V19.3889H4.59805V24.124Z"
        fill="#B9B9B9" />
    <path
        d="M8.33304 15.532C8.49724 15.5308 8.66 15.5623 8.81199 15.6244C8.96398 15.6866 9.10214 15.7782 9.21848 15.8941C9.33482 16.0099 9.42704 16.1477 9.48978 16.2995C9.55252 16.4512 9.58455 16.6138 9.58402 16.778C9.5815 17.1095 9.44742 17.4265 9.21122 17.6591C8.97502 17.8917 8.65602 18.0211 8.3245 18.0186C7.99298 18.0161 7.6761 17.8819 7.44346 17.6457C7.21082 17.4095 7.0815 17.0906 7.08402 16.7591C7.08824 16.4311 7.2219 16.1182 7.45585 15.8883C7.6898 15.6585 8.0051 15.5304 8.33304 15.532ZM8.80301 16.778C8.80301 16.6857 8.77563 16.5956 8.72434 16.519C8.67305 16.4423 8.60013 16.3825 8.51487 16.3473C8.4296 16.3121 8.33585 16.3031 8.2454 16.3212C8.15495 16.3393 8.0719 16.3839 8.00681 16.4493C7.94172 16.5146 7.89749 16.5979 7.87974 16.6884C7.86198 16.7789 7.8715 16.8727 7.90708 16.9578C7.94266 17.0429 8.00267 17.1156 8.07956 17.1665C8.15646 17.2175 8.24678 17.2444 8.33903 17.2441C8.46193 17.2427 8.57942 17.1931 8.66605 17.1059C8.75268 17.0187 8.8025 16.9009 8.80301 16.778Z"
        fill="#B9B9B9" />
    <path
        d="M5.06803 15.532C5.39613 15.5331 5.7105 15.6639 5.9426 15.8958C6.1747 16.1277 6.30572 16.442 6.30704 16.7701C6.30361 17.1027 6.1684 17.4204 5.93106 17.6534C5.69373 17.8864 5.37365 18.0158 5.04105 18.0131C4.71304 18.0071 4.40072 17.8714 4.17233 17.6359C3.94394 17.4004 3.81797 17.0841 3.82199 16.756C3.8221 16.5935 3.85458 16.4325 3.91751 16.2827C3.98044 16.1328 4.0726 15.9969 4.18857 15.883C4.30454 15.7691 4.442 15.6793 4.59299 15.6191C4.74398 15.5588 4.90548 15.5293 5.06803 15.532ZM5.53201 16.761C5.52965 16.6688 5.50024 16.5793 5.44742 16.5036C5.3946 16.4279 5.32068 16.3694 5.2349 16.3354C5.14911 16.3013 5.05522 16.2932 4.96488 16.3121C4.87453 16.3309 4.79177 16.3759 4.72678 16.4415C4.66179 16.507 4.61745 16.5902 4.59934 16.6807C4.58122 16.7712 4.59009 16.865 4.62485 16.9505C4.65961 17.036 4.71871 17.1094 4.79483 17.1616C4.87095 17.2137 4.96073 17.2425 5.05301 17.2441C5.17954 17.2417 5.30012 17.1897 5.38877 17.0994C5.47741 17.0091 5.52703 16.8876 5.52701 16.761H5.53201Z"
        fill="#B9B9B9" />
    <path
        d="M22.549 4.98898C22.549 5.26698 22.549 5.54499 22.549 5.82199C22.5537 5.87664 22.5471 5.93163 22.5296 5.98361C22.5121 6.03559 22.4841 6.08353 22.4473 6.12423C22.4105 6.16494 22.3658 6.19762 22.3159 6.2203C22.266 6.24298 22.2119 6.25517 22.157 6.25607C22.104 6.25491 22.0519 6.24258 22.0039 6.22006C21.9559 6.19754 21.9131 6.16524 21.8784 6.12521C21.8436 6.08518 21.8177 6.03831 21.8021 5.98764C21.7865 5.93697 21.7817 5.88365 21.788 5.83102C21.7827 5.27569 21.7827 4.72003 21.788 4.16403C21.7812 4.11148 21.7859 4.05812 21.8017 4.00753C21.8174 3.95695 21.8439 3.91034 21.8793 3.87094C21.9147 3.83153 21.9582 3.80018 22.0069 3.77914C22.0555 3.7581 22.1081 3.74783 22.161 3.74899C22.394 3.74899 22.544 3.90902 22.549 4.18002C22.554 4.45102 22.549 4.72298 22.549 4.98898Z"
        fill="#B9B9B9" />
    <path
        d="M18.7161 5.01306C18.7161 4.73506 18.7111 4.45708 18.7161 4.17908C18.7096 4.12428 18.715 4.06865 18.7319 4.01611C18.7488 3.96358 18.7768 3.91529 18.8139 3.87451C18.8511 3.83373 18.8966 3.80144 18.9474 3.77978C18.9981 3.75813 19.0529 3.74764 19.1081 3.74902C19.1611 3.74793 19.2139 3.75828 19.2626 3.7793C19.3113 3.80031 19.355 3.83151 19.3907 3.87085C19.4263 3.91019 19.4531 3.95675 19.4692 4.00732C19.4853 4.0579 19.4904 4.11135 19.4841 4.16406C19.4928 4.71939 19.4928 5.27505 19.4841 5.83105C19.4893 5.88385 19.4836 5.93718 19.4673 5.98767C19.451 6.03816 19.4245 6.08472 19.3894 6.12451C19.3543 6.1643 19.3115 6.19641 19.2634 6.21887C19.2153 6.24133 19.1631 6.25361 19.1101 6.255C19.0551 6.25438 19.0008 6.24241 18.9506 6.21985C18.9004 6.19729 18.8554 6.16463 18.8184 6.1239C18.7815 6.08317 18.7533 6.03527 18.7357 5.98315C18.7181 5.93104 18.7114 5.87586 18.7161 5.82104C18.7111 5.55204 18.7161 5.28206 18.7161 5.01306Z"
        fill="#B9B9B9" />
</svg>
    