<svg width="165" height="173" viewBox="0 0 165 173" fill="none" xmlns="http://www.w3.org/2000/svg">
<path d="M165 123.223C164.254 123.817 163.683 123.595 163.026 122.972C158.22 118.412 153.139 114.124 149.338 108.598C147.92 106.632 146.282 104.834 144.457 103.238C140.392 99.516 138.457 94.474 136.344 89.577C135.146 86.7033 134.205 83.7294 133.531 80.69C132.452 76.7607 130.765 73.0244 128.531 69.617C126.037 65.466 123.157 61.576 120.315 57.663C119.873 57.055 119.415 56.217 118.515 56.618C117.405 57.109 118.006 58.018 118.252 58.765C119.302 61.96 120.389 65.143 121.42 68.343C121.668 69.1319 121.829 69.9453 121.902 70.769C121.993 71.739 121.968 72.769 120.739 73.057C119.62 73.32 119.121 72.52 118.763 71.666C117.192 67.92 115.65 64.166 114.085 60.413C112.299 56.136 110.522 51.854 108.376 47.738C107.735 46.3526 106.871 45.0817 105.818 43.976C105.419 45.3094 105.471 46.7377 105.968 48.038C108.625 56.918 111.593 65.706 113.807 74.717C114.145 75.9043 114.131 77.1641 113.768 78.3439C115.619 77.3109 117.195 76.407 118.796 75.552C119.445 75.205 120.26 74.652 120.735 75.691C121.176 76.656 120.198 76.791 119.635 77.106C111.591 81.642 104.035 86.9349 96.3349 92.0059C95.9099 92.2859 95.502 92.594 95.061 92.846C94.9714 92.915 94.8682 92.9641 94.7583 92.9903C94.6484 93.0165 94.5341 93.019 94.4231 92.9979C94.3121 92.9767 94.2069 92.9323 94.1143 92.8675C94.0217 92.8027 93.9438 92.7191 93.8859 92.622C93.8178 92.5325 93.7682 92.4303 93.7401 92.3214C93.712 92.2124 93.7059 92.0991 93.7222 91.9877C93.7385 91.8764 93.7769 91.7695 93.835 91.6732C93.8932 91.5769 93.97 91.4932 94.061 91.427C94.256 91.266 94.4739 91.134 94.6789 90.984C97.1949 89.153 97.208 89.148 96.079 86.252C93.3836 79.3327 90.6743 72.4186 87.9509 65.51C87.7839 65.086 87.8159 64.492 87.2059 64.236C86.1851 69.2544 86.2154 74.4299 87.2949 79.436C89.6109 91.486 91.7519 103.575 94.9779 115.42C96.6046 121.698 99.5121 127.572 103.518 132.673C107.523 137.773 112.54 141.99 118.254 145.059C127.954 150.493 137.73 155.788 147.473 161.143C148.089 161.481 148.926 161.803 148.478 162.671C147.968 163.66 147.202 163.078 146.535 162.711C136.289 157.071 126.007 151.496 115.81 145.77C110.01 142.512 105.372 137.87 101.266 132.678C97.5475 127.578 94.7963 121.839 93.1489 115.746C91.3729 108.846 89.8379 101.897 88.4329 94.916C87.8559 92.049 87.327 89.172 86.786 86.297C86.259 83.492 85.7449 80.684 85.2259 77.877L84.639 77.76C81.4079 96.767 75.3246 115.177 66.5949 132.367C61.3058 138.491 54.906 143.56 47.7329 147.305C45.4745 148.466 43.3521 149.875 41.4049 151.505C33.771 158.065 26.7043 165.257 20.2799 173.005H19.1309C18.6509 172.114 19.0889 171.442 19.6539 170.799C26.4076 162.886 33.8103 155.551 41.785 148.871C43.2847 147.692 44.907 146.677 46.6239 145.845C52.9333 142.488 58.6914 138.184 63.6979 133.084C65.4389 131.384 66.3449 129.055 67.3389 126.853C74.1006 112.122 79.1548 96.6652 82.4029 80.785C83.8029 73.776 85.308 66.839 85.523 59.685C85.54 58.6668 85.503 57.6483 85.4119 56.634C85.3769 56.171 85.4859 55.559 84.7359 55.465C84.4829 55.4152 84.2208 55.4417 83.9829 55.5412C83.745 55.6408 83.5421 55.8088 83.3999 56.024C82.9896 56.665 82.6292 57.3367 82.3219 58.033C78.3653 66.975 74.4163 75.9203 70.475 84.869C70.2905 85.34 70.0698 85.796 69.8149 86.233C69.715 86.4004 69.5548 86.5232 69.3671 86.5762C69.1795 86.6292 68.9787 86.6084 68.8059 86.518C68.6988 86.4856 68.5996 86.431 68.5148 86.3577C68.43 86.2845 68.3616 86.1943 68.3139 86.093C68.2662 85.9916 68.2403 85.8815 68.2379 85.7695C68.2355 85.6575 68.2566 85.5462 68.2999 85.4429C68.4059 85.1429 68.5439 84.8579 68.6709 84.5679C72.8779 75.0419 77.192 65.561 81.251 55.968C83.3294 50.8894 84.4538 45.4712 84.5679 39.985C84.6022 39.0895 84.3971 38.2009 83.9739 37.411C83.7896 36.9316 83.4763 36.5125 83.0686 36.2002C82.661 35.8878 82.1748 35.6942 81.6639 35.641C80.9299 35.669 80.9229 36.824 80.6759 37.508C75.8189 51.008 70.5109 64.34 65.0039 77.591C64.9309 77.767 64.8419 77.936 64.7619 78.109C64.4619 78.767 64.3049 79.809 63.2869 79.377C62.2689 78.945 62.8689 78.077 63.1499 77.406C68.9779 63.395 74.5949 49.306 79.6669 34.996C79.9259 34.264 80.0869 33.53 81.2779 33.464C82.5509 33.394 83.0439 29.89 82.0319 28.685C80.5829 26.96 78.8939 27.111 77.8319 29.047C73.9319 36.155 71.6639 43.937 68.5899 51.385C65.7799 58.192 63.0569 65.035 60.2959 71.862C60.2249 72.039 60.1769 72.227 60.0899 72.394C59.7979 72.948 59.551 73.694 58.717 73.294C57.948 72.925 58.1979 72.309 58.4639 71.66C60.3393 67.0773 62.1929 62.4853 64.0249 57.884C67.0629 50.21 70.0609 42.521 73.0939 34.845C73.326 34.429 73.4503 33.9615 73.4554 33.4852C73.4605 33.0088 73.3461 32.5388 73.1229 32.118C72.9288 31.7132 72.6347 31.3646 72.2682 31.1053C71.9018 30.846 71.4752 30.6844 71.0289 30.636C70.1809 30.612 70.196 31.616 69.923 32.201C63.566 45.837 58.069 59.867 51.005 73.182C48.866 77.215 45.9049 80.773 44.285 85.099C44.0849 85.645 43.696 86.386 42.876 85.899C42.141 85.463 42.4489 84.833 42.7399 84.226C43.3169 83.026 43.7479 81.738 44.4399 80.606C44.8371 79.9534 45.038 79.2002 45.0186 78.4365C44.9993 77.6728 44.7606 76.9308 44.3309 76.299C42.4309 72.824 40.015 69.841 36.359 68.077C35.3938 67.4879 34.2558 67.2478 33.135 67.3969C33.999 70.3269 34.728 73.263 35.73 76.102C38.267 83.288 38.2299 90.602 37.0509 97.989C35.8114 105.194 34.0321 112.296 31.7279 119.234C29.7009 125.609 25.328 130.153 20.428 134.301C14.7885 138.977 8.70986 143.096 2.27695 146.601C2.05595 146.725 1.83294 146.846 1.61094 146.97C1.04194 147.288 0.489944 147.316 0.141944 146.691C-0.252056 145.985 0.29894 145.658 0.80094 145.354C1.18194 145.124 1.57293 144.911 1.95893 144.69C7.65849 141.445 13.1088 137.78 18.2649 133.727C24.5239 128.78 29.4229 122.963 31.1859 114.927C31.8109 112.075 32.6929 109.279 33.4569 106.459C33.8569 104.731 34.3169 103.014 34.6369 101.271C35.7719 95.1079 36.727 88.898 35.531 82.656C34.4424 77.68 33.0444 72.7767 31.3449 67.9749C30.6449 65.8259 30.9949 65.317 33.2449 65.439C36.1964 65.6936 38.9611 66.9893 41.0449 69.0949C43.4922 71.339 45.4243 74.0868 46.708 77.149C49.79 71.649 52.6449 66.406 55.0929 60.955C59.6549 50.794 64.2159 40.632 68.6629 30.42C69.4539 28.605 70.4209 28.397 72.0629 28.999C73.0456 29.523 73.9578 30.1695 74.7779 30.923C75.5719 29.47 76.348 28.151 77.023 26.784C77.2472 26.2882 77.6429 25.8901 78.1374 25.663C78.6319 25.4359 79.1917 25.395 79.7139 25.548C83.3029 26.048 85.0549 28.871 84.0559 32.577C83.8559 33.317 83.238 34.031 84.156 34.802C86.297 36.597 86.5029 39.054 86.3129 41.616C86.0037 45.1076 85.408 48.5679 84.5319 51.962C84.4239 52.408 83.7779 52.969 84.8599 53.242C86.9489 53.768 87.2599 55.492 87.3049 57.289C87.4219 61.538 90.0649 64.8539 91.3939 68.6679C90.8819 65.1939 90.137 61.79 89.415 58.382C88.9158 56.2725 88.6314 54.1178 88.566 51.951C88.5077 51.5988 88.5762 51.2372 88.7593 50.9307C88.9423 50.6242 89.2282 50.3926 89.566 50.2769C89.8482 50.206 90.1462 50.2327 90.4114 50.3525C90.6767 50.4723 90.8936 50.6783 91.027 50.937C91.7438 51.9097 92.3913 52.9315 92.9649 53.9949C95.7129 59.389 97.9379 65.0159 100.284 70.5889C100.45 70.9829 100.445 71.511 101.001 71.663C101.092 71.2216 101.035 70.7625 100.838 70.357C99.1999 64.2723 97.5666 58.1866 95.9379 52.0999C95.6411 50.8559 95.5733 49.5683 95.738 48.3C95.75 47.9442 95.8735 47.6012 96.091 47.3193C96.3084 47.0374 96.6089 46.8309 96.9499 46.729C97.2921 46.6265 97.6591 46.6449 97.9892 46.7811C98.3194 46.9173 98.5926 47.1631 98.7629 47.477C99.4617 48.5407 100.101 49.6423 100.677 50.7769C104.172 57.8599 107.144 65.177 110.171 72.461C110.401 73.4313 110.949 74.2964 111.729 74.9179C111.849 74.243 111.769 73.5476 111.498 72.9179C109.334 64.7979 106.787 56.793 104.27 48.78C103.774 47.2612 103.611 45.6534 103.792 44.066C103.785 43.6468 103.903 43.235 104.13 42.8827C104.357 42.5304 104.684 42.2535 105.069 42.087C105.473 41.9772 105.902 41.9934 106.297 42.1335C106.692 42.2736 107.035 42.5309 107.28 42.871C108.482 44.1948 109.471 45.6969 110.213 47.3239C112.739 52.2569 114.732 57.424 116.973 62.488L117.28 63.294C117.433 63.581 117.516 64.213 117.759 64.075C118.159 63.848 117.947 63.352 117.644 63.015L117.394 62.159C116.981 60.759 116.552 59.359 116.161 57.946C115.996 57.387 116.04 56.7873 116.284 56.258C116.527 55.7287 116.954 55.3056 117.486 55.067C118.886 54.215 120.353 54.61 121.586 56.325C124.073 59.793 126.559 63.266 128.908 66.825C132.173 71.6234 134.554 76.9672 135.938 82.604C137.017 87.125 138.781 91.4546 141.168 95.4429C142.186 97.9151 143.744 100.129 145.726 101.923C147.744 103.675 149.542 105.667 151.078 107.854C154.978 113.326 159.931 117.759 165.009 122.074L165 123.223ZM90.5949 53.775C90.1899 54.73 90.685 55.433 90.8149 56.108C92.8209 66.536 95.5669 76.786 98.3809 87.018C98.5589 87.663 98.5899 88.373 99.5599 87.703C101.276 86.52 103.028 85.389 104.86 84.174C103.208 83.155 102.883 81.468 102.26 80.013C98.825 72.024 95.7309 63.8879 91.9739 56.0369C91.7001 55.1843 91.2274 54.409 90.5949 53.775ZM97.8149 49.025L97.2699 49.215C99.5279 60.741 103.67 71.815 105.888 83.502L113.414 78.635C110.692 77.723 109.505 75.6769 108.649 73.4699C106.511 67.9609 104.118 62.564 101.701 57.176C100.469 54.429 99.114 51.741 97.8149 49.029V49.025Z" fill="#16181E"/>
<path d="M116.966 62.487C114.725 57.427 112.732 52.255 110.206 47.323C109.464 45.696 108.475 44.1938 107.273 42.87C107.028 42.5299 106.685 42.2727 106.29 42.1326C105.895 41.9925 105.466 41.9762 105.062 42.086C104.677 42.2525 104.35 42.5295 104.123 42.8818C103.896 43.2341 103.778 43.6458 103.785 44.065C103.604 45.6524 103.767 47.2602 104.263 48.779C106.78 56.793 109.327 64.798 111.491 72.917C111.762 73.5466 111.842 74.2421 111.722 74.917C110.942 74.2954 110.394 73.4302 110.164 72.46C107.137 65.171 104.164 57.86 100.67 50.776C100.093 49.6413 99.4545 48.5397 98.7558 47.476C98.5854 47.1621 98.3122 46.9164 97.9821 46.7802C97.6519 46.6439 97.2849 46.6255 96.9427 46.728C96.6017 46.83 96.3012 47.0365 96.0838 47.3184C95.8663 47.6002 95.7428 47.9432 95.7307 48.299C95.5662 49.5673 95.6339 50.855 95.9308 52.099C97.5688 58.1837 99.2021 64.2697 100.831 70.3571C101.027 70.7623 101.084 71.2209 100.994 71.662C100.438 71.51 100.443 70.982 100.277 70.588C97.9318 65.015 95.7058 59.388 92.9578 53.994C92.3842 52.9305 91.7366 51.9087 91.0197 50.936C90.8864 50.6773 90.6695 50.4713 90.4042 50.3515C90.139 50.2317 89.841 50.2051 89.5587 50.276C89.221 50.3916 88.9351 50.6233 88.752 50.9298C88.569 51.2363 88.5005 51.5978 88.5587 51.95C88.6242 54.1168 88.9086 56.2715 89.4077 58.381C90.1297 61.79 90.8737 65.193 91.3867 68.667C90.0577 64.853 87.4148 61.537 87.2978 57.288C87.2488 55.488 86.9418 53.767 84.8528 53.241C83.7698 52.968 84.4157 52.407 84.5247 51.961C85.4008 48.5669 85.9965 45.1066 86.3058 41.615C86.4958 39.053 86.2897 36.595 84.1487 34.801C83.2277 34.029 83.8488 33.315 84.0488 32.576C85.0488 28.87 83.2958 26.043 79.7068 25.547C79.1847 25.3941 78.625 25.435 78.1307 25.6621C77.6364 25.8892 77.2408 26.2873 77.0168 26.783C76.3408 28.15 75.5658 29.469 74.7718 30.922C73.9517 30.1685 73.0394 29.5221 72.0568 28.9981C70.4158 28.3981 69.4488 28.604 68.6568 30.419C64.2098 40.63 59.6498 50.792 55.0868 60.953C52.6388 66.404 49.7868 71.647 46.7018 77.147C45.418 74.0848 43.4861 71.3371 41.0388 69.093C38.9549 66.9875 36.1902 65.6916 33.2388 65.437C30.9858 65.315 30.6387 65.825 31.3387 67.973C33.0381 72.7748 34.4362 77.6781 35.5247 82.6541C36.7247 88.8961 35.7658 95.106 34.6308 101.269C34.3098 103.012 33.8477 104.728 33.4507 106.457C30.874 102.056 28.8204 97.3696 27.3318 92.4921C21.6018 71.4651 25.3247 52.392 39.4977 35.663C47.8415 25.6996 59.3382 18.8851 72.0838 16.348C90.4068 12.51 107.101 16.382 121.884 27.848C131.82 35.6395 139.036 46.3751 142.499 58.5178C145.962 70.6605 145.494 83.5876 141.162 95.448C138.775 91.4597 137.011 87.1301 135.932 82.609C134.548 76.9722 132.167 71.6285 128.902 66.8301C126.553 63.2681 124.068 59.795 121.58 56.33C120.349 54.615 118.88 54.22 117.48 55.072C116.948 55.3108 116.521 55.734 116.278 56.2632C116.034 56.7925 115.99 57.392 116.155 57.951C116.546 59.361 116.975 60.761 117.388 62.164L116.966 62.487ZM98.9788 22.669C98.0388 25.235 96.2278 26.694 93.3678 27.869C96.5078 28.669 97.8548 30.589 99.0838 33.293C100.014 30.326 101.798 28.846 104.516 27.693C103.274 27.3269 102.131 26.6849 101.172 25.8149C100.213 24.9449 99.4635 23.8695 98.9788 22.669Z" fill="#D98553"/>
<path d="M114.875 0.872009C115.126 0.947527 115.354 1.08291 115.541 1.26654C115.728 1.45017 115.867 1.67654 115.947 1.92603C116.528 3.50793 117.442 4.94624 118.628 6.14337C119.814 7.34051 121.244 8.26841 122.821 8.86401C124.434 9.49701 124.401 10.477 122.813 11.17C121.275 11.7702 119.878 12.6826 118.711 13.8495C117.543 15.0165 116.63 16.4126 116.029 17.95C115.408 19.527 114.5 19.462 113.635 18.017C113.599 17.964 113.569 17.9078 113.545 17.849C112.419 14.649 110.097 12.682 107.082 11.292C105.205 10.427 105.165 9.55901 106.982 8.79901C108.487 8.20552 109.854 7.30805 110.996 6.16266C112.139 5.01727 113.034 3.64852 113.624 2.14197C113.856 1.55897 114.15 0.962009 114.875 0.872009ZM121.086 9.95502C118.607 8.70502 116.365 7.43499 115.467 4.71399C115.167 3.79699 114.396 4.05403 114.135 4.81403C113.742 5.85261 113.134 6.79688 112.353 7.58557C111.571 8.37426 110.632 8.98969 109.597 9.39197C108.917 9.71297 108.371 10.228 109.44 10.626C110.51 11.0265 111.485 11.6461 112.302 12.4451C113.119 13.2441 113.76 14.2049 114.184 15.266C114.675 16.356 115.184 15.972 115.538 15.142C115.949 14.1081 116.576 13.1741 117.378 12.4023C118.179 11.6306 119.136 11.0389 120.185 10.667C120.514 10.4677 120.817 10.2271 121.086 9.95099V9.95502Z" fill="#D98553"/>
<path d="M66.5918 132.371C75.3215 115.181 81.4048 96.771 84.6358 77.764L85.2228 77.881C85.7428 80.688 86.2558 83.496 86.7828 86.301C87.3228 89.176 87.8528 92.053 88.4298 94.92C89.8298 101.901 91.3698 108.854 93.1458 115.751C94.7931 121.844 97.5444 127.583 101.263 132.683C94.5107 134.736 87.4315 135.494 80.3978 134.918C75.7253 134.51 71.1024 133.657 66.5918 132.371Z" fill="#D98553"/>
<path d="M114.843 100.055C114.819 97.7313 115.372 95.4379 116.451 93.3799C118.57 89.1279 120.906 84.963 121.795 80.209C121.908 79.609 122.252 79.061 122.967 79.289C123.105 79.3367 123.231 79.4125 123.338 79.5117C123.445 79.6109 123.53 79.7313 123.588 79.8651C123.646 79.999 123.675 80.1433 123.674 80.2891C123.673 80.4349 123.642 80.5789 123.582 80.7119C123.15 82.4334 122.618 84.1283 121.989 85.788C120.8 88.588 119.506 91.3396 118.107 94.043C117.145 95.7724 116.647 97.7211 116.66 99.7C116.673 101.679 117.198 103.621 118.183 105.337C119.823 108.216 121.891 110.829 124.314 113.089C124.843 113.617 125.74 114.221 125.084 114.97C124.295 115.87 123.608 114.94 123.051 114.375C119.451 110.73 116.04 106.963 115.067 101.67C114.939 100.986 114.874 100.291 114.843 100.055Z" fill="#16181E"/>
<path d="M101.698 97.8819C104.278 97.8801 106.774 98.8025 108.734 100.482C112.304 103.289 114.701 107.022 116.807 110.97C117.107 111.528 117.293 112.081 116.613 112.427C115.849 112.816 115.491 112.278 115.162 111.665C113.96 109.356 112.537 107.169 110.912 105.135C109.585 103.422 107.947 101.974 106.085 100.867C104.085 99.7379 101.977 99.126 99.7208 100.01C98.9878 100.297 98.4368 100.31 98.2098 99.526C98.0098 98.838 98.6098 98F.5539 99.1398 98.3259C99.9514 97.9986 100.823 97.8473 101.698 97.8819Z" fill="#16181E"/>
<path d="M117.638 63.0129C117.938 63.3499 118.152 63.846 117.753 64.073C117.51 64.212 117.427 63.579 117.274 63.292L117.638 63.0129Z" fill="#73ADBA"/>
<path d="M117.388 62.158L117.638 63.0139L117.275 63.293C117.171 63.0263 117.069 62.7576 116.967 62.4869L117.388 62.158Z" fill="#73ADBA"/>
</svg>
