<svg width="24" height="23" viewBox="0 0 24 23" fill="none" xmlns="http://www.w3.org/2000/svg">
    <path
        d="M1.9999 3.35502C1.93959 2.91437 1.99793 2.46561 2.1689 2.05502C2.33301 1.80925 2.56914 1.62028 2.8449 1.51402C3.37583 1.37412 3.92701 1.32743 4.4739 1.37602H7.7739C8.32095 1.32633 8.87248 1.37201 9.4039 1.51102C9.67966 1.61728 9.91579 1.80625 10.0799 2.05202C10.2509 2.46261 10.3092 2.91137 10.2489 3.35202V7.64402C10.3092 8.08467 10.2509 8.53343 10.0799 8.94402C9.91579 9.18979 9.67966 9.37876 9.4039 9.48502C8.87248 9.62403 8.32095 9.66971 7.7739 9.62002H4.4739C3.92685 9.66971 3.37532 9.62403 2.8439 9.48502C2.56814 9.37876 2.33201 9.18979 2.1679 8.94402C1.99727 8.53334 1.93928 8.08458 1.9999 7.64402V3.35502Z"
        stroke="#B9B9B9" stroke-width="2" stroke-linecap="round" stroke-linejoin="round" />
    <path
        d="M1.9999 15.355C1.93959 14.9144 1.99793 14.4656 2.1689 14.055C2.33301 13.8093 2.56914 13.6203 2.8449 13.514C3.37583 13.3741 3.92701 13.3274 4.4739 13.376H7.7739C8.32095 13.3263 8.87248 13.372 9.4039 13.511C9.67966 13.6173 9.91579 13.8063 10.0799 14.052C10.2509 14.4626 10.3092 14.9114 10.2489 15.352V19.644C10.3092 20.0847 10.2509 20.5334 10.0799 20.944C9.91579 21.1898 9.67966 21.3788 9.4039 21.485C8.87248 21.624 8.32095 21.6697 7.7739 21.62H4.4739C3.92685 21.6697 3.37532 21.624 2.8439 21.485C2.56814 21.3788 2.33201 21.1898 2.1679 20.944C1.99727 20.5333 1.93928 20.0846 1.9999 19.644V15.355Z"
        stroke="#B9B9B9" stroke-width="2" stroke-linecap="round" stroke-linejoin="round" />
    <path
        d="M13.953 3.35502C13.8927 2.91437 13.9511 2.46561 14.122 2.05502C14.2861 1.80925 14.5223 1.62028 14.798 1.51402C15.329 1.37412 15.8801 1.32743 16.427 1.37602H19.727C20.2741 1.32633 20.8256 1.37201 21.357 1.51102C21.6328 1.61728 21.8689 1.80625 22.033 2.05202C22.204 2.46261 22.2623 2.91137 22.202 3.35202V7.64402C22.2623 8.08467 22.204 8.53343 22.033 8.94402C21.8689 9.18979 21.6328 9.37876 21.357 9.48502C20.8256 9.62403 20.2741 9.66971 19.727 9.62002H16.427C15.88 9.66971 15.3284 9.62403 14.797 9.48502C14.5213 9.37876 14.2851 9.18979 14.121 8.94402C13.9504 8.53334 13.8924 8.08458 13.953 7.64402V3.35502Z"
        stroke="#B9B9B9" stroke-width="2" stroke-linecap="round" stroke-linejoin="round" />
    <path
        d="M13.953 15.355C13.8927 14.9144 13.9511 14.4656 14.122 14.055C14.2861 13.8093 14.5223 13.6203 14.798 13.514C15.329 13.3741 15.8801 13.3274 16.427 13.376H19.727C20.2741 13.3263 20.8256 13.372 21.357 13.511C21.6328 13.6173 21.8689 13.8063 22.033 14.052C22.204 14.4626 22.2623 14.9114 22.202 15.352V19.644C22.2623 20.0847 22.204 20.5334 22.033 20.944C21.8689 21.1898 21.6328 21.3788 21.357 21.485C20.8256 21.624 20.2741 21.6697 19.727 21.62H16.427C15.88 21.6697 15.3284 21.624 14.797 21.485C14.5213 21.3788 14.2851 21.1898 14.121 20.944C13.9504 20.5333 13.8924 20.0846 13.953 19.644V15.355Z"
        stroke="#B9B9B9" stroke-width="2" stroke-linecap="round" stroke-linejoin="round" />
</svg>
    