<svg width="20" height="20" viewBox="0 0 20 20" fill="none" xmlns="http://www.w3.org/2000/svg">
    <path
        d="M19 19V1M1 19V1M7 6V14C6.94495 14.5927 6.99643 15.1904 7.152 15.765C7.35498 16.2548 7.74417 16.644 8.234 16.847C8.80881 17.003 9.40692 17.0548 10 17C10.5927 17.055 11.1904 17.0036 11.765 16.848C12.2548 16.645 12.644 16.2558 12.847 15.766C13.003 15.1912 13.0548 14.5931 13 14V6C13.055 5.40731 13.0036 4.80955 12.848 4.235C12.645 3.74517 12.2558 3.35598 11.766 3.153C11.1912 2.99697 10.5931 2.94515 10 3C9.40731 2.94495 8.80955 2.99643 8.235 3.152C7.99218 3.25251 7.77155 3.3999 7.58572 3.58572C7.3999 3.77155 7.25251 3.99218 7.152 4.235C6.99643 4.80955 6.94495 5.40731 7 6Z"
        stroke="#B9B9B9" stroke-width="2" stroke-linecap="round" stroke-linejoin="round" />
</svg>
    