<svg width="80" height="18" viewBox="0 0 80 18" fill="none" xmlns="http://www.w3.org/2000/svg">
    <path
        d="M1.38801 0.546051C1.4944 0.544804 1.59884 0.57499 1.68806 0.632965C1.77409 0.689755 1.84779 0.763264 1.90498 0.84903C1.96306 0.9382 1.99338 1.04254 1.99201 1.14896V1.392C1.99372 1.47438 1.9784 1.55626 1.94709 1.63248C1.91578 1.70869 1.86913 1.77761 1.81001 1.83499C1.75528 1.89266 1.68936 1.93858 1.61628 1.96988C1.5432 2.00117 1.46445 2.01719 1.38496 2.017C1.30277 2.0174 1.22134 2.00151 1.14533 1.97025C1.06932 1.93898 1.00032 1.89299 0.942207 1.83487C0.884091 1.77675 0.837978 1.70763 0.806709 1.63162C0.775441 1.55561 0.759559 1.47419 0.759956 1.392V1.14896C0.759526 1.06772 0.777296 0.987439 0.811958 0.913971C0.843519 0.843041 0.887555 0.778432 0.941963 0.723053C0.997517 0.668859 1.06221 0.62485 1.133 0.593048C1.21343 0.558536 1.30056 0.54248 1.38801 0.546051ZM0.763008 14.364V3.72195H1.99506V14.364H0.763008Z"
        fill="white" />
    <path
        d="M8.71297 14.365H8.69502L4.425 14.3469V0.0770264H8.71199C9.51327 0.0777652 10.3014 0.281006 11.003 0.667969C11.7158 1.05131 12.3421 1.57726 12.843 2.21301C13.9447 3.62953 14.5215 5.38406 14.4751 7.17798C14.4794 8.10942 14.3327 9.03547 14.041 9.92004C13.7801 10.7437 13.3738 11.5138 12.841 12.194C12.3433 12.8355 11.7237 13.3724 11.018 13.7739C10.3094 14.1561 9.51802 14.3591 8.71297 14.365ZM5.65804 13.115L8.71297 13.132C9.33449 13.1206 9.94431 12.9604 10.491 12.6646C11.0378 12.3687 11.5055 11.9461 11.8551 11.432C12.7961 10.2181 13.2869 8.71529 13.244 7.17993C13.2463 6.40683 13.1231 5.63859 12.879 4.90503C12.6622 4.22582 12.3304 3.58884 11.898 3.02197C11.5032 2.5094 11.0069 2.08385 10.44 1.77197C9.91273 1.47453 9.31835 1.31626 8.71297 1.31201H5.65804V13.115Z"
        fill="white" />
    <path
        d="M21.3681 14.364C20.7441 14.3631 20.129 14.2166 19.5715 13.9363C19.0141 13.6559 18.5297 13.2494 18.157 12.749C17.3202 11.6999 16.8779 10.3907 16.907 9.04907C16.8692 7.70158 17.3123 6.38455 18.157 5.33398C18.5511 4.85262 19.0343 4.45175 19.5801 4.15307C20.1338 3.87038 20.7463 3.72194 21.3681 3.71997C22.2616 3.67925 23.1407 3.9559 23.85 4.50097C24.1437 4.71681 24.382 4.99944 24.5451 5.32543C24.7081 5.65143 24.7914 6.01147 24.788 6.37597C24.7882 6.7748 24.6921 7.16784 24.5077 7.52148C24.3233 7.87512 24.0562 8.17887 23.729 8.40698C22.9225 8.98552 21.9433 9.27296 20.952 9.22204H18.5401C18.4608 9.21546 18.3815 9.23363 18.313 9.27404C18.2898 9.29743 18.2697 9.32363 18.2531 9.35205C18.235 9.3828 18.2231 9.41673 18.218 9.45202C18.2122 9.48602 18.2035 9.51945 18.192 9.552C18.1831 9.57448 18.1771 9.59807 18.1741 9.62207C18.1747 9.64796 18.1776 9.67364 18.183 9.69897C18.1886 9.7246 18.1917 9.75074 18.192 9.77697C18.26 10.2342 18.3948 10.679 18.5921 11.097C18.7735 11.4899 19.014 11.8527 19.3051 12.173C19.5765 12.4678 19.9039 12.7058 20.2681 12.873C20.8378 13.1247 21.4723 13.1905 22.0816 13.061C22.6908 12.9316 23.2438 12.6135 23.662 12.152L24.027 11.666L25.017 12.395L24.652 12.895C24.2661 13.3893 23.7651 13.7817 23.1926 14.0377C22.6202 14.2938 21.9938 14.4058 21.3681 14.364ZM21.3681 4.95507C20.9781 4.9603 20.5936 5.04714 20.2393 5.21008C19.885 5.37302 19.5688 5.60836 19.311 5.901C18.7369 6.46636 18.3567 7.19911 18.225 7.99401C18.125 8.02901 18.1181 8.03701 18.2161 8.02001C18.2992 8.00439 18.3835 7.99569 18.468 7.99401H20.9501C21.6727 8.04074 22.3893 7.83851 22.981 7.42102C23.1537 7.30701 23.2961 7.15269 23.3958 6.97131C23.4954 6.78993 23.5494 6.58693 23.553 6.38C23.5452 6.18301 23.4909 5.99064 23.3944 5.81872C23.2979 5.6468 23.1622 5.50023 22.9981 5.39099C22.518 5.06919 21.9447 4.91593 21.3681 4.95507Z"
        fill="white" />
    <path
        d="M31.836 14.364C31.2141 14.3617 30.6015 14.2127 30.048 13.929C29.5053 13.6335 29.0226 13.239 28.6249 12.766C27.7837 11.7135 27.341 10.3979 27.3749 9.05099C27.3734 8.3664 27.485 7.68631 27.705 7.03805C27.9127 6.41188 28.2337 5.82909 28.652 5.31894C29.0376 4.84266 29.5133 4.44717 30.0519 4.15499C30.6057 3.8723 31.2183 3.72398 31.84 3.72201C32.4355 3.69062 33.0294 3.80741 33.5687 4.06186C34.1079 4.3163 34.5756 4.70047 34.93 5.18002L35.3119 5.665L34.3229 6.41195L33.941 5.91195C33.838 5.76309 33.7121 5.63145 33.5679 5.52194C33.4143 5.4048 33.2488 5.30431 33.074 5.22201C32.8849 5.13411 32.6866 5.06698 32.483 5.02194C32.2721 4.97591 32.0569 4.9528 31.841 4.95297C31.3961 4.95829 30.9587 5.06787 30.5638 5.27279C30.1689 5.47771 29.8274 5.77233 29.5669 6.13302C28.9466 6.97568 28.612 7.9946 28.612 9.04098C28.612 10.0874 28.9466 11.1063 29.5669 11.9489C29.9515 12.4833 30.5099 12.8673 31.1464 13.0351C31.783 13.203 32.458 13.1442 33.056 12.869C33.4071 12.7109 33.7118 12.4654 33.941 12.156L34.3229 11.67L35.3119 12.399L34.93 12.899C34.7082 13.2015 34.435 13.4628 34.123 13.671C33.4467 14.1207 32.6522 14.3595 31.84 14.357L31.836 14.364Z"
        fill="white" />
    <path
        d="M42.288 14.347C41.6545 14.3476 41.0299 14.1985 40.465 13.912C39.8921 13.6324 39.3836 13.2367 38.9719 12.75C38.0978 11.7125 37.6352 10.3902 37.672 9.03403C37.6413 7.674 38.1029 6.34861 38.9719 5.30197C39.3936 4.83003 39.9001 4.44132 40.465 4.15598C41.0304 3.87103 41.6548 3.72263 42.288 3.72263C42.9211 3.72263 43.5455 3.87103 44.111 4.15598C44.6759 4.44132 45.1823 4.83003 45.604 5.30197C46.4577 6.35862 46.9235 7.67606 46.9235 9.03452C46.9235 10.393 46.4577 11.7103 45.604 12.7669C45.1888 13.2456 44.6809 13.6351 44.111 13.912C43.546 14.1984 42.9214 14.3475 42.288 14.347ZM44.6749 6.14694C44.3971 5.77758 44.0372 5.47786 43.6237 5.27145C43.2101 5.06505 42.7542 4.95761 42.292 4.95761C41.8298 4.95761 41.3739 5.06505 40.9603 5.27145C40.5468 5.47786 40.1868 5.77758 39.9089 6.14694C39.2317 6.95503 38.8735 7.98299 38.902 9.03696C38.8949 9.74632 39.0524 10.4477 39.3619 11.086C39.641 11.6769 40.0652 12.1874 40.595 12.57C41.0869 12.9275 41.6799 13.1191 42.288 13.117C42.7446 13.1189 43.1948 13.0086 43.599 12.796C44.0115 12.5802 44.3774 12.2853 44.6759 11.9279C44.9942 11.5414 45.2411 11.1012 45.4049 10.628C45.5853 10.1178 45.6763 9.58023 45.6739 9.03903C45.7031 7.98481 45.348 6.95592 44.6749 6.14401V6.14694Z"
        fill="white" />
    <path
        d="M49.63 12.533C49.7198 12.4346 49.8299 12.3569 49.9526 12.3051C50.0754 12.2533 50.2078 12.2287 50.3409 12.2329C50.4755 12.229 50.6095 12.2537 50.7338 12.3054C50.8581 12.3572 50.9699 12.4347 51.062 12.533C51.2555 12.7429 51.3583 13.0206 51.348 13.3059C51.3541 13.5798 51.2512 13.8449 51.062 14.043C50.97 14.1413 50.8581 14.2189 50.7338 14.2706C50.6094 14.3224 50.4755 14.347 50.3409 14.3429C50.2078 14.3473 50.0753 14.3228 49.9525 14.271C49.8298 14.2192 49.7198 14.1414 49.63 14.043C49.4453 13.8427 49.3458 13.5783 49.3529 13.3059C49.342 13.0222 49.4413 12.7452 49.63 12.533Z"
        fill="white" />
    <path
        d="M59.994 5.17191C60.723 5.90339 61.2189 6.83447 61.4192 7.84757C61.6194 8.86066 61.515 9.91035 61.1191 10.8642C60.7232 11.818 60.0537 12.6332 59.1949 13.2068C58.3361 13.7804 57.3267 14.0866 56.294 14.0869H55.565C55.3965 14.0701 55.2282 14.1201 55.096 14.226C55.0723 14.2617 55.0519 14.2995 55.035 14.3389C55.0199 14.3702 55.0111 14.4043 55.009 14.439V17.928H53.7769V3.642H56.2931C56.9819 3.62952 57.6659 3.75891 58.3026 4.02213C58.9393 4.28534 59.515 4.67665 59.994 5.17191ZM55.0109 12.9059C55.1978 12.8593 55.3908 12.8418 55.583 12.8539H56.295C57.0016 12.86 57.697 12.6771 58.309 12.324C58.9152 11.9779 59.4163 11.4741 59.759 10.866C60.1098 10.2563 60.2927 9.56443 60.289 8.86099C60.2898 8.3364 60.187 7.81675 59.9867 7.33194C59.7863 6.84713 59.4921 6.40662 59.1212 6.03568C58.7502 5.66473 58.3098 5.37071 57.825 5.17032C57.3402 4.96993 56.8206 4.86716 56.296 4.86795H55.012L55.0109 12.9059Z"
        fill="white" />
    <path
        d="M65.1849 14.3639H63.9529V7.81889C63.9336 6.74499 64.3316 5.70554 65.063 4.91899C65.4333 4.52428 65.8835 4.21308 66.3835 4.00615C66.8836 3.79922 67.422 3.70125 67.9629 3.71892V4.95097C67.6278 4.94235 67.2936 4.98936 66.9739 5.09001C66.7108 5.18058 66.4668 5.31885 66.2539 5.49797C66.0391 5.67739 65.8492 5.8845 65.689 6.11393C65.5235 6.35258 65.3976 6.61629 65.3159 6.89494C65.2278 7.1936 65.184 7.50361 65.1859 7.81498L65.1849 14.3639Z"
        fill="white" />
    <path
        d="M75.011 14.347C74.3775 14.3476 73.7529 14.1985 73.188 13.912C72.615 13.6326 72.1064 13.2369 71.6949 12.75C70.8208 11.7125 70.3581 10.3902 70.3949 9.03403C70.3642 7.674 70.8259 6.34861 71.6949 5.30197C72.1165 4.82984 72.6229 4.4411 73.188 4.15598C73.7534 3.87103 74.3778 3.72263 75.011 3.72263C75.6442 3.72263 76.2685 3.87103 76.834 4.15598C77.3986 4.44133 77.9046 4.83004 78.3259 5.30197C79.1795 6.3587 79.6451 7.67611 79.6451 9.03452C79.6451 10.3929 79.1795 11.7102 78.3259 12.7669C77.9111 13.2455 77.4036 13.6351 76.834 13.912C76.269 14.1984 75.6444 14.3475 75.011 14.347ZM77.3979 6.14694C77.1202 5.77759 76.7604 5.47799 76.3469 5.27158C75.9334 5.06517 75.4776 4.95761 75.0155 4.95761C74.5534 4.95761 74.0974 5.06517 73.684 5.27158C73.2705 5.47799 72.9107 5.77759 72.6329 6.14694C71.9558 6.95507 71.5976 7.983 71.626 9.03696C71.6189 9.74633 71.7763 10.4478 72.0859 11.086C72.3648 11.677 72.7891 12.1876 73.319 12.57C73.8109 12.9275 74.4039 13.1191 75.012 13.117C75.4686 13.1185 75.9187 13.0083 76.323 12.796C76.7354 12.5804 77.101 12.2854 77.3989 11.9279C77.7178 11.5416 77.965 11.1014 78.1289 10.628C78.3093 10.1178 78.4003 9.58023 78.398 9.03903C78.4272 7.98463 78.0717 6.9556 77.3979 6.14401V6.14694Z"
        fill="white" />
</svg>
    