<svg width="39" height="17" viewBox="0 0 39 17" fill="none" xmlns="http://www.w3.org/2000/svg">
    <path
        d="M1.99991 4.723C1.92433 3.95056 1.99214 3.1708 2.19991 2.423C2.36437 2.02887 2.64793 1.69601 3.01091 1.471C3.6339 1.22974 4.30762 1.14926 4.96991 1.237H8.92991C9.5918 1.15056 10.2648 1.23206 10.8869 1.474C11.2499 1.69901 11.5334 2.03187 11.6979 2.426C11.9057 3.1738 11.9735 3.95356 11.8979 4.726V12.277C11.9735 13.0494 11.9057 13.8292 11.6979 14.577C11.5335 14.9712 11.2499 15.304 10.8869 15.529C10.2649 15.7713 9.59188 15.8531 8.92991 15.767H4.96991C4.30794 15.8531 3.63494 15.7713 3.01291 15.529C2.64989 15.304 2.36631 14.9712 2.20191 14.577C1.99414 13.8292 1.92633 13.0494 2.00191 12.277L1.99991 4.723Z"
        stroke="#B9B9B9" stroke-width="2" stroke-linecap="round" stroke-linejoin="round" />
    <path
        d="M14.7799 4.723C14.7044 3.95056 14.7722 3.1708 14.9799 2.423C15.1444 2.02887 15.428 1.69601 15.7909 1.471C16.4139 1.22974 17.0877 1.14926 17.7499 1.237H21.7099C22.3718 1.15056 23.0448 1.23206 23.6669 1.474C24.0299 1.69901 24.3135 2.03187 24.4779 2.426C24.6857 3.1738 24.7535 3.95356 24.6779 4.726V12.277C24.7535 13.0494 24.6857 13.8292 24.4779 14.577C24.3135 14.9712 24.03 15.304 23.6669 15.529C23.0449 15.7713 22.3719 15.8531 21.7099 15.767H17.7499C17.088 15.8531 16.415 15.7713 15.7929 15.529C15.4299 15.304 15.1463 14.9712 14.9819 14.577C14.7742 13.8292 14.7064 13.0494 14.7819 12.277L14.7799 4.723Z"
        stroke="#B9B9B9" stroke-width="2" stroke-linecap="round" stroke-linejoin="round" />
    <path
        d="M27.559 4.723C27.4834 3.95056 27.5512 3.1708 27.759 2.423C27.9235 2.02887 28.207 1.69601 28.57 1.471C29.193 1.22974 29.8667 1.14926 30.529 1.237H34.489C35.1509 1.15056 35.8239 1.23206 36.446 1.474C36.809 1.69901 37.0925 2.03187 37.257 2.426C37.4648 3.1738 37.5326 3.95356 37.457 4.726V12.277C37.5326 13.0494 37.4648 13.8292 37.257 14.577C37.0926 14.9712 36.809 15.304 36.446 15.529C35.824 15.7713 35.151 15.8531 34.489 15.767H30.529C29.867 15.8531 29.194 15.7713 28.572 15.529C28.209 15.304 27.9254 14.9712 27.761 14.577C27.5532 13.8292 27.4854 13.0494 27.561 12.277L27.559 4.723Z"
        stroke="#B9B9B9" stroke-width="2" stroke-linecap="round" stroke-linejoin="round" />
</svg>
    