<svg width="20" height="20" viewBox="0 0 20 20" fill="none" xmlns="http://www.w3.org/2000/svg">
    <path
        d="M19 1H1M19 19H1M6 13H14C14.5927 13.0551 15.1904 13.0036 15.765 12.848C16.2548 12.645 16.644 12.2558 16.847 11.766C17.003 11.1912 17.0548 10.5931 17 10C17.055 9.40731 17.0036 8.80955 16.848 8.235C16.645 7.74517 16.2558 7.35598 15.766 7.153C15.1912 6.99699 14.5931 6.94517 14 7H6C5.40731 6.94497 4.80955 6.99645 4.235 7.152C3.74517 7.35498 3.35598 7.74417 3.153 8.234C2.99697 8.80881 2.94515 9.40692 3 10C2.94495 10.5927 2.99643 11.1904 3.152 11.765C3.25251 12.0078 3.3999 12.2284 3.58572 12.4143C3.77155 12.6001 3.99218 12.7475 4.235 12.848C4.80955 13.0036 5.40731 13.0551 6 13Z"
        stroke="#B9B9B9" stroke-width="2" stroke-linecap="round" stroke-linejoin="round" />
</svg>
    