<svg width="31" height="30" viewBox="0 0 31 30" fill="none" xmlns="http://www.w3.org/2000/svg">
    <path
        d="M15.362 0.638L0.999985 14.9999L4.20494 18.2L15.362 29.357L26.5181 18.2L29.723 14.9949L15.362 0.638ZM15.711 8.383L21.083 13.754L15.711 27.072V8.383ZM15.011 26.9579L9.91795 13.475L15.011 8.383V26.9579ZM9.37694 14.0159L14.462 27.477L5.18895 18.204L9.37694 14.0159ZM16.323 27.416L21.616 14.294L25.53 18.209L16.323 27.416ZM26.0231 17.716L15.362 7.04901L4.69798 17.713L1.98595 15.001L15.362 1.62494L28.738 15.001L26.0231 17.716Z"
        fill="#D98553" stroke="#D98553" stroke-width="0.5" />
</svg>
    