<svg width="23" height="19" viewBox="0 0 23 19" fill="none" xmlns="http://www.w3.org/2000/svg">
    <path
        d="M6.29995 17.763C5.2347 17.8826 4.15617 17.7711 3.13795 17.436C2.57349 17.1484 2.11457 16.6894 1.82695 16.125C1.49183 15.1068 1.38029 14.0282 1.49995 12.963L1.49995 6.56299C1.38029 5.49774 1.49183 4.41921 1.82695 3.40099C2.11457 2.83653 2.57349 2.3776 3.13795 2.08999C4.15617 1.75486 5.2347 1.64333 6.29995 1.76299H16.7C17.7652 1.64333 18.8437 1.75486 19.862 2.08999C20.4264 2.3776 20.8853 2.83653 21.173 3.40099C21.5081 4.41921 21.6196 5.49774 21.5 6.56299V12.963C21.6196 14.0282 21.5081 15.1068 21.173 16.125C20.8853 16.6894 20.4264 17.1484 19.862 17.436C18.8437 17.7711 17.7652 17.8826 16.7 17.763H6.29995Z"
        stroke="#B9B9B9" stroke-width="2" stroke-linecap="round" stroke-linejoin="round" />
</svg>
    