<svg width="19" height="24" viewBox="0 0 19 24" fill="none" xmlns="http://www.w3.org/2000/svg">
    <path
        d="M1.49995 6.80001C1.38029 5.73476 1.49183 4.65623 1.82695 3.63801C2.11457 3.07355 2.57349 2.61463 3.13795 2.32701C4.15617 1.99189 5.2347 1.88035 6.29995 2.00001H12.7C13.7652 1.88035 14.8437 1.99189 15.862 2.32701C16.4264 2.61463 16.8853 3.07355 17.173 3.63801C17.5081 4.65623 17.6196 5.73476 17.5 6.80001V17.2C17.6196 18.2653 17.5081 19.3438 17.173 20.362C16.8853 20.9265 16.4264 21.3854 15.862 21.673C14.8437 22.0081 13.7652 22.1197 12.7 22H6.29995C5.2347 22.1197 4.15617 22.0081 3.13795 21.673C2.57349 21.3854 2.11457 20.9265 1.82695 20.362C1.49183 19.3438 1.38029 18.2653 1.49995 17.2V6.80001Z"
        stroke="#B9B9B9" stroke-width="2" stroke-linecap="round" stroke-linejoin="round" />
</svg>
    