<svg width="27" height="24" viewBox="0 0 27 24" fill="none" xmlns="http://www.w3.org/2000/svg">
<path d="M23.229 20.7109V21.7879H23.805C24.6917 21.7879 25.5784 21.7879 26.4651 21.7879C26.8191 21.7879 26.905 21.877 26.906 22.233C26.906 22.573 26.901 22.914 26.906 23.254C26.9137 23.3054 26.9097 23.3578 26.8943 23.4074C26.8788 23.4571 26.8525 23.5026 26.817 23.5406C26.7815 23.5786 26.7379 23.608 26.6894 23.6268C26.641 23.6456 26.5889 23.6532 26.5371 23.649C26.4571 23.654 26.376 23.649 26.295 23.649H1.60508C1.50663 23.6523 1.40803 23.6489 1.31003 23.639C1.26715 23.638 1.22489 23.6283 1.18589 23.6104C1.14689 23.5926 1.11197 23.567 1.08323 23.5351C1.05448 23.5033 1.03256 23.466 1.01877 23.4254C1.00498 23.3848 0.999611 23.3417 1.00303 23.2989C1.00303 22.9049 1.00303 22.5109 1.00303 22.1169C0.998205 22.0716 1.00378 22.0259 1.01926 21.9831C1.03475 21.9403 1.05972 21.9017 1.09238 21.87C1.12505 21.8383 1.16449 21.8143 1.20774 21.8001C1.25099 21.7859 1.29692 21.7818 1.34202 21.7879C1.63602 21.7879 1.92906 21.7879 2.26206 21.7879V21.4489C2.26206 19.6216 2.26206 17.7946 2.26206 15.968C2.26206 15.48 2.33604 15.406 2.82004 15.406H4.556C4.516 15.306 4.48703 15.226 4.45603 15.15C4.1847 14.4887 3.91309 13.8276 3.64109 13.167C3.50009 12.821 3.535 12.724 3.879 12.53C3.38952 12.1495 3.03631 11.6207 2.87204 11.0229C2.78961 10.6583 2.74769 10.2858 2.74704 9.91195C2.74704 9.60395 2.88006 9.50294 3.18906 9.50094C3.65591 9.49496 4.11775 9.59772 4.53806 9.80099C4.61706 9.83899 4.69806 9.87398 4.78806 9.91598C4.94004 9.41392 5.21496 8.95775 5.58799 8.58895C5.90399 8.28295 6.03097 8.28898 6.34897 8.59798C6.3204 8.87922 6.38498 9.16202 6.53269 9.40304C6.6804 9.64406 6.90316 9.82989 7.16672 9.93209C7.43028 10.0343 7.72009 10.0473 7.99167 9.96883C8.26325 9.8904 8.50153 9.72499 8.67002 9.49801C9.05902 9.49001 9.16997 9.58396 9.19297 9.97396C9.22035 10.3951 9.15789 10.8173 9.00962 11.2125C8.86135 11.6077 8.63066 11.9667 8.33298 12.266C8.24698 12.356 8.15103 12.438 8.06003 12.524C8.41703 12.755 8.43409 12.813 8.26609 13.224C8.00475 13.86 7.74398 14.4962 7.48398 15.1329C7.45098 15.2139 7.42203 15.2949 7.37803 15.4079H9.17807C9.57308 15.4079 9.66599 15.501 9.66599 15.9C9.66599 17.7447 9.66599 19.5893 9.66599 21.4339V21.77H12.81V20.713H12.186C11.9479 20.7324 11.7085 20.6999 11.4842 20.6176C11.26 20.5354 11.0563 20.4055 10.8872 20.2368C10.7181 20.0681 10.5876 19.8647 10.5049 19.6406C10.4221 19.4165 10.3892 19.177 10.4081 18.9389C10.4081 14.8909 10.4081 10.843 10.4081 6.79501V6.44698H10.093C9.45699 6.44698 8.82101 6.44698 8.18601 6.44698C7.86501 6.44698 7.73305 6.28 7.79905 5.988C8.14205 4.464 8.49298 2.9409 8.82798 1.4139C8.83176 1.35618 8.84731 1.29989 8.87363 1.24838C8.89996 1.19686 8.93661 1.15123 8.98118 1.11434C9.02574 1.07746 9.07726 1.05013 9.13279 1.0339C9.18831 1.01766 9.24664 1.01292 9.30405 1.01998C10.2621 1.02532 11.2204 1.02532 12.1791 1.01998C12.2344 1.01303 12.2906 1.01723 12.3443 1.03231C12.3981 1.04739 12.4483 1.073 12.492 1.10775C12.5357 1.1425 12.5721 1.18561 12.5989 1.23458C12.6256 1.28356 12.6424 1.33737 12.648 1.39291C12.983 2.90091 13.326 4.408 13.664 5.915C13.748 6.288 13.629 6.43996 13.25 6.44796C13.02 6.44796 12.789 6.44796 12.524 6.44796C12.524 6.78096 12.524 7.082 12.524 7.384C12.524 7.796 12.524 8.20796 12.524 8.61996C12.524 8.90396 12.401 9.05502 12.196 9.05502C11.991 9.05502 11.866 8.89891 11.864 8.62191C11.864 8.00391 11.864 7.38591 11.864 6.76791V6.46798H11.0791V14.849C11.2661 14.773 11.4561 14.7089 11.6321 14.6169C11.6791 14.5919 11.698 14.4809 11.7 14.4089C11.707 14.0689 11.7 13.7279 11.7 13.3879C11.6837 13.1498 11.7184 12.911 11.802 12.6873C11.8855 12.4637 12.016 12.2605 12.1844 12.0914C12.3529 11.9223 12.5555 11.7912 12.7788 11.7067C13.0021 11.6223 13.2408 11.5866 13.479 11.602C16.031 11.602 18.5834 11.602 21.1361 11.602C21.7441 11.584 22.3526 11.5986 22.9591 11.646C23.332 11.6929 23.6755 11.8729 23.9262 12.1529C24.177 12.4329 24.3183 12.7941 24.3241 13.17C24.3411 13.581 24.3351 13.994 24.3301 14.406C24.3208 14.462 24.3335 14.5194 24.3656 14.5664C24.3976 14.6133 24.4465 14.6461 24.5021 14.6579C24.8367 14.756 25.1293 14.9626 25.3337 15.2452C25.5381 15.5278 25.6427 15.8704 25.6311 16.219C25.6491 17.168 25.6531 18.119 25.6311 19.067C25.6351 19.2898 25.5932 19.511 25.5079 19.7169C25.4227 19.9228 25.2959 20.1088 25.1356 20.2635C24.9752 20.4182 24.7847 20.5383 24.5759 20.6162C24.3671 20.694 24.1445 20.7279 23.922 20.7159C23.705 20.7119 23.479 20.7109 23.229 20.7109ZM22.3911 17.441C22.3911 17.033 22.3911 16.6499 22.3911 16.2669C22.3769 15.9107 22.4789 15.5595 22.6821 15.2664C22.8853 14.9734 23.1784 14.7545 23.5171 14.6429C23.5588 14.6215 23.5948 14.5907 23.6224 14.5528C23.65 14.515 23.6684 14.4712 23.676 14.425C23.692 14.041 23.687 13.656 23.682 13.271C23.6873 13.1386 23.6652 13.0067 23.6172 12.8833C23.5691 12.7599 23.4961 12.6477 23.4027 12.5538C23.3093 12.4599 23.1976 12.3864 23.0744 12.3377C22.9513 12.2891 22.8193 12.2663 22.687 12.271C19.581 12.265 16.475 12.265 13.369 12.271C13.2384 12.2642 13.108 12.2844 12.9856 12.3304C12.8632 12.3764 12.7515 12.447 12.6577 12.538C12.5638 12.6291 12.4897 12.7385 12.44 12.8595C12.3904 12.9804 12.3662 13.1102 12.369 13.2409C12.355 13.5629 12.382 13.887 12.359 14.207C12.338 14.484 12.387 14.677 12.701 14.723C12.7784 14.7457 12.8503 14.7841 12.9121 14.8359C13.1505 14.9893 13.3451 15.2019 13.477 15.4528C13.609 15.7038 13.6737 15.9845 13.665 16.2679C13.671 16.6579 13.665 17.0479 13.665 17.4449L22.3911 17.441ZM18.025 20.051C19.977 20.051 21.9294 20.051 23.8821 20.051C24.0302 20.0717 24.1811 20.058 24.3231 20.0109C24.4651 19.9639 24.5944 19.8845 24.7008 19.7794C24.8072 19.6742 24.888 19.5461 24.9367 19.4046C24.9855 19.2632 25.001 19.1124 24.982 18.964C24.982 18.0773 24.982 17.1906 24.982 16.3039C24.9866 16.1692 24.9719 16.0345 24.9381 15.904C24.872 15.683 24.7281 15.4933 24.5331 15.37C24.3381 15.2466 24.1051 15.198 23.8771 15.233C23.6442 15.2675 23.4318 15.3852 23.279 15.5643C23.1263 15.7433 23.0434 15.9716 23.046 16.207C23.034 16.681 23.046 17.1559 23.046 17.6309C23.046 18.0149 22.955 18.1119 22.575 18.1119C19.5484 18.1119 16.5213 18.1119 13.494 18.1119C13.116 18.1119 13.0141 18.0059 13.0111 17.6329C13.0111 17.1399 13.011 16.648 13.005 16.155C13.0074 15.9648 12.9495 15.7787 12.8396 15.6235C12.7296 15.4683 12.5733 15.3518 12.393 15.291C12.2398 15.2312 12.074 15.2113 11.911 15.2331C11.748 15.255 11.5932 15.3179 11.4612 15.416C11.3291 15.514 11.2242 15.6439 11.1561 15.7937C11.088 15.9434 11.059 16.108 11.072 16.2719C11.063 17.1319 11.072 17.9909 11.072 18.8509C11.072 19.6909 11.426 20.051 12.259 20.051H18.025ZM2.93699 19.2509H8.99204V16.0839H2.93699V19.2509ZM12.927 5.77096C12.9315 5.7331 12.9315 5.69481 12.927 5.65694C12.641 4.37594 12.354 3.095 12.06 1.816C12.046 1.78314 12.024 1.75423 11.9961 1.7319C11.9682 1.70957 11.9351 1.69446 11.9 1.68795C11.086 1.67995 10.272 1.68197 9.43699 1.68197L8.51499 5.77096H12.927ZM1.65305 22.9649H26.243V22.4499H1.65305V22.9649ZM2.94199 21.771H8.99802V19.9349H2.94199V21.771ZM21.284 21.771C21.031 21.424 20.8181 21.1159 20.5841 20.8239C20.5121 20.7521 20.4148 20.7115 20.3131 20.7109C18.7841 20.7039 17.255 20.7059 15.726 20.7109C15.658 20.7109 15.558 20.711 15.526 20.749C15.272 21.076 15.031 21.412 14.765 21.774L21.284 21.771ZM7.54905 13.254H4.38901C4.67301 13.945 4.94004 14.6059 5.22104 15.2609C5.2444 15.298 5.27595 15.3292 5.31321 15.3523C5.35046 15.3753 5.39242 15.3896 5.43601 15.394C5.79301 15.408 6.15103 15.406 6.50803 15.394C6.54818 15.391 6.58713 15.3787 6.6218 15.3582C6.65648 15.3378 6.6859 15.3096 6.70798 15.276C6.98998 14.62 7.26207 13.952 7.54807 13.259L7.54905 13.254ZM5.96702 9.165C5.56217 9.59224 5.33652 10.1583 5.33652 10.7469C5.33652 11.3355 5.56217 11.9017 5.96702 12.3289C6.37026 11.9018 6.59489 11.3366 6.5947 10.7492C6.59451 10.1618 6.36956 9.59686 5.96604 9.17001L5.96702 9.165ZM5.18198 12.427C4.8595 11.9248 4.68145 11.3435 4.66709 10.7469C4.66955 10.6949 4.65156 10.644 4.61704 10.6049C4.27421 10.3356 3.85298 10.1854 3.41709 10.177C3.41059 10.6975 3.58183 11.2046 3.90256 11.6146C4.22329 12.0246 4.67424 12.313 5.181 12.432L5.18198 12.427ZM6.76706 12.4069C7.27287 12.2989 7.72402 12.0151 8.04038 11.6059C8.35674 11.1967 8.51773 10.6887 8.49497 10.172C8.09211 10.1902 7.7034 10.3254 7.37607 10.561C7.34545 10.5852 7.32014 10.6155 7.30173 10.6499C7.28332 10.6843 7.27215 10.722 7.26902 10.7609C7.25376 11.3466 7.07999 11.9172 6.76609 12.412L6.76706 12.4069ZM13.509 21.807C13.685 21.777 13.898 21.807 13.978 21.717C14.246 21.417 14.4671 21.073 14.7251 20.717H13.505L13.509 21.807ZM21.327 20.713C21.547 21.013 21.752 21.2609 21.914 21.5319C21.9704 21.6409 22.0656 21.7246 22.1809 21.7664C22.2961 21.8083 22.4229 21.8053 22.536 21.7579V20.713H21.327Z" fill="#B9B9B9" stroke="#B9B9B9" stroke-width="0.1"/>
<path d="M5.9701 17.993C5.6941 17.993 5.417 17.993 5.141 17.993C4.926 17.993 4.76809 17.907 4.76709 17.671C4.76609 17.435 4.92001 17.3421 5.13501 17.3401C5.68801 17.3401 6.2411 17.3401 6.7931 17.3401C7.0091 17.3401 7.16607 17.44 7.16907 17.666C7.17207 17.892 7.01708 17.992 6.79908 17.993C6.52308 17.993 6.2471 17.993 5.9701 17.993Z" fill="#B9B9B9" stroke="#B9B9B9" stroke-width="0.1"/>
</svg>
