<svg width="27" height="21" viewBox="0 0 27 21" fill="none" xmlns="http://www.w3.org/2000/svg">
    <path d="M10.807 19.9299C10.726 20.6499 10.7261 20.65 9.99807 20.65C9.37507 20.65 8.75206 20.65 8.12906 20.65C7.80006 20.65 7.68911 20.5359 7.68911 20.2049C7.68911 19.0996 7.68911 17.9939 7.68911 16.8879C7.66271 16.6792 7.67789 16.4674 7.73379 16.2646C7.78969 16.0618 7.8852 15.8722 8.0148 15.7065C8.1444 15.5408 8.30544 15.4025 8.4888 15.2994C8.67215 15.1963 8.87414 15.1305 9.08303 15.1059C9.08303 15.0129 9.08303 14.911 9.08303 14.806C9.08803 14.166 9.06708 13.5239 9.10708 12.8859C9.13219 12.5668 9.2764 12.2688 9.51114 12.0511C9.74587 11.8334 10.0539 11.7119 10.3741 11.7109C12.3481 11.7029 14.322 11.7109 16.297 11.7109C16.6695 11.7278 17.0205 11.8905 17.2741 12.1639C17.4681 11.9797 17.7017 11.8425 17.9571 11.7628C18.2124 11.683 18.4827 11.6629 18.7471 11.7039C20.4841 11.7149 22.222 11.7039 23.959 11.7039C24.1547 11.6869 24.3519 11.7127 24.5366 11.7796C24.7214 11.8465 24.8893 11.9529 25.0287 12.0913C25.1682 12.2297 25.2757 12.3968 25.344 12.581C25.4123 12.7652 25.4397 12.9621 25.4241 13.1579C25.4241 13.8059 25.4241 14.4529 25.4241 15.1019C25.7682 15.1167 26.0975 15.2456 26.3603 15.4683C26.623 15.691 26.8041 15.995 26.875 16.332C26.8972 16.4348 26.907 16.5398 26.9041 16.645C26.9041 17.8296 26.9041 19.0139 26.9041 20.1979C26.9041 20.5349 26.804 20.6409 26.469 20.6419C25.769 20.6419 25.0691 20.6419 24.3631 20.6419C23.8951 20.6419 23.824 20.5689 23.812 20.0909C23.812 20.0399 23.8041 19.9909 23.7991 19.9219L10.807 19.9299ZM17.584 16.7479H23.8051C23.7955 16.4452 23.8719 16.1461 24.0255 15.8852C24.1792 15.6243 24.4037 15.4122 24.673 15.2739C24.7057 15.2432 24.7317 15.206 24.7489 15.1646C24.7662 15.1232 24.7744 15.0787 24.7731 15.0339C24.7811 14.4112 24.7811 13.7886 24.7731 13.166C24.7897 13.0537 24.7797 12.9391 24.7438 12.8315C24.7079 12.7239 24.6472 12.6262 24.5666 12.5463C24.4859 12.4665 24.3877 12.4068 24.2797 12.372C24.1717 12.3372 24.0572 12.3282 23.9451 12.3459C22.1031 12.3459 20.2611 12.3459 18.4191 12.3459C18.3047 12.3291 18.188 12.3393 18.0783 12.3758C17.9686 12.4123 17.8689 12.4741 17.7874 12.5561C17.7059 12.6381 17.6448 12.7381 17.6089 12.848C17.5731 12.9579 17.5636 13.0746 17.5811 13.1889C17.5811 13.9079 17.5811 14.6269 17.5811 15.3469L17.584 16.7479ZM16.954 16.7479V16.483C16.954 15.4036 16.954 14.3243 16.954 13.2449C16.954 12.5929 16.703 12.3449 16.041 12.3449H11.0661C10.8551 12.3449 10.6441 12.3369 10.4341 12.3449C10.3456 12.3413 10.2571 12.3552 10.174 12.3858C10.0908 12.4165 10.0144 12.4633 9.94937 12.5235C9.88433 12.5837 9.83191 12.6562 9.79495 12.7368C9.75799 12.8173 9.73725 12.9043 9.73404 12.9929C9.72104 13.6769 9.72604 14.362 9.73404 15.046C9.73572 15.0821 9.74564 15.1173 9.76297 15.149C9.78029 15.1807 9.80455 15.208 9.83401 15.2289C10.128 15.3561 10.377 15.5685 10.5489 15.8388C10.7207 16.1091 10.8075 16.4248 10.798 16.7449L16.954 16.7479ZM10.7991 19.2479H23.793V17.4029H10.7991V19.2479ZM10.104 19.9769C10.12 19.9439 10.1341 19.9279 10.1341 19.9129C10.1341 18.8129 10.1451 17.7049 10.1341 16.6009C10.1336 16.423 10.0757 16.2501 9.96878 16.1079C9.86189 15.9656 9.71181 15.8618 9.54104 15.812C9.39785 15.7605 9.24397 15.7458 9.09365 15.7695C8.94334 15.7931 8.8014 15.8542 8.68094 15.9472C8.56047 16.0402 8.46542 16.162 8.40445 16.3015C8.34347 16.4409 8.31855 16.5934 8.33206 16.7449C8.32606 17.7529 8.33206 18.7609 8.33206 19.7679C8.33206 19.8349 8.3441 19.9029 8.3511 19.9769H10.104ZM26.2471 19.9769C26.2588 19.95 26.2671 19.9218 26.272 19.8929C26.272 18.8059 26.282 17.7189 26.265 16.6319C26.2493 16.4406 26.18 16.2577 26.0651 16.1039C25.9526 15.9579 25.7975 15.8502 25.6212 15.7961C25.445 15.7419 25.2563 15.744 25.0812 15.8017C24.9061 15.8594 24.7532 15.9701 24.6437 16.1185C24.5342 16.2668 24.4735 16.4456 24.47 16.6299C24.462 17.6999 24.47 18.769 24.47 19.838C24.4732 19.8843 24.4793 19.9303 24.4881 19.9759L26.2471 19.9769Z" fill="#B9B9B9" stroke="#B9B9B9" stroke-width="0.1"/>
    <path d="M3.30099 19.9989V19.618C3.30099 14.9766 3.30099 10.335 3.30099 5.69303C3.25939 4.49094 3.62905 3.31054 4.34896 2.34696C4.84894 1.62206 5.54532 1.05488 6.35641 0.711954C7.16749 0.369027 8.05959 0.264553 8.92794 0.410928C9.82153 0.532813 10.6625 0.904691 11.3541 1.48356C12.0457 2.06243 12.5597 2.82485 12.837 3.68302C12.9962 4.18545 13.1247 4.69703 13.222 5.21501C13.375 5.25801 13.587 5.30399 13.789 5.37699C14.3256 5.56746 14.7907 5.91824 15.1213 6.38188C15.4519 6.84552 15.6318 7.39964 15.6369 7.96903C15.6369 8.10903 15.6369 8.24993 15.6369 8.38993C15.6369 8.70493 15.5289 8.80602 15.2039 8.80802C14.8789 8.81002 14.5369 8.80303 14.2039 8.81303C14.1653 8.81405 14.1274 8.82346 14.0929 8.84074C14.0583 8.85802 14.028 8.88272 14.004 8.913C13.919 9.14144 13.7659 9.33824 13.5654 9.47685C13.3649 9.61545 13.1268 9.6892 12.883 9.68803C12.401 9.68803 12.047 9.40002 11.764 8.80802C11.342 8.80802 10.913 8.80802 10.483 8.80802C10.165 8.80802 10.0749 8.70202 10.0579 8.38102C10.0128 7.94313 10.0666 7.50068 10.2153 7.08634C10.364 6.672 10.6037 6.29629 10.917 5.98698C11.3494 5.57365 11.9007 5.3064 12.493 5.22294C12.4567 4.24235 12.0952 3.3017 11.4655 2.54911C10.8359 1.79652 9.97376 1.27476 9.01498 1.06596C7.90459 0.873243 6.76291 1.12414 5.83566 1.76469C4.90841 2.40524 4.2697 3.38428 4.05697 4.49101C3.98986 4.80807 3.95409 5.13094 3.95004 5.455C3.9427 10.2197 3.9406 14.984 3.94393 19.748V19.983C4.05293 19.989 4.14402 19.997 4.23702 19.997C4.86902 19.997 5.50093 19.997 6.13693 19.997C6.42393 19.997 6.58797 20.129 6.57797 20.334C6.56797 20.539 6.40903 20.647 6.13803 20.647C4.57603 20.647 3.0143 20.647 1.45297 20.647C1.41799 20.6488 1.38296 20.6488 1.34799 20.647C1.14799 20.626 1.009 20.538 1.009 20.321C1.0057 20.2762 1.01241 20.2313 1.02877 20.1895C1.04514 20.1477 1.07078 20.1101 1.1036 20.0795C1.13642 20.0489 1.17565 20.026 1.21847 20.0126C1.26129 19.9992 1.30662 19.9956 1.35104 20.002C1.88604 19.993 2.42102 20.002 2.95602 20.002L3.30099 19.9989ZM14.994 8.163C15.0221 7.7645 14.9392 7.36604 14.7544 7.01188C14.5695 6.65772 14.29 6.36179 13.947 6.15702C13.589 5.93996 13.175 5.83312 12.7567 5.85002C12.3384 5.86691 11.9342 6.00677 11.5949 6.25199C11.2934 6.46635 11.0521 6.75479 10.8945 7.08952C10.7369 7.42425 10.6682 7.79398 10.695 8.163H14.994ZM13.3139 8.82401H12.52C12.749 9.10401 13.0089 9.11201 13.3139 8.82401Z" fill="#B9B9B9" stroke="#B9B9B9" stroke-width="0.1"/>
    <path d="M11.5421 7.70403C11.2621 7.69403 11.0961 7.42408 11.2481 7.22808C11.476 6.94375 11.732 6.68302 12.0121 6.45C12.071 6.41484 12.1401 6.40093 12.208 6.41057C12.2759 6.42022 12.3385 6.45293 12.3853 6.5031C12.4321 6.55327 12.4602 6.61791 12.4651 6.68633C12.47 6.75475 12.4513 6.82279 12.4121 6.87908C12.1895 7.14644 11.9511 7.40024 11.6981 7.63909C11.6518 7.67237 11.5984 7.69455 11.5421 7.70403Z" fill="#B9B9B9" stroke="#B9B9B9" stroke-width="0.1"/>
    </svg>
    