<svg width="20" height="20" viewBox="0 0 20 20" fill="none" xmlns="http://www.w3.org/2000/svg">
    <path
        d="M6.4 1H2.6C2.24492 0.960103 1.8854 0.997282 1.546 1.109C1.35785 1.20487 1.20487 1.35785 1.109 1.546C0.997282 1.8854 0.960103 2.24492 1 2.6V6.4C0.960103 6.75508 0.997282 7.1146 1.109 7.454C1.20487 7.64215 1.35785 7.79513 1.546 7.891C1.8854 8.00272 2.24492 8.0399 2.6 8H6.4C6.75508 8.0399 7.1146 8.00272 7.454 7.891C7.64215 7.79513 7.79513 7.64215 7.891 7.454C8.00272 7.1146 8.0399 6.75508 8 6.4V2.6C8.0399 2.24492 8.00272 1.8854 7.891 1.546C7.79513 1.35785 7.64215 1.20487 7.454 1.109C7.1146 0.997282 6.75508 0.960103 6.4 1Z"
        stroke="white" stroke-width="1.2" stroke-linecap="round" stroke-linejoin="round" />
    <path
        d="M17.4 1H13.6C13.2449 0.960103 12.8854 0.997282 12.546 1.109C12.3578 1.20487 12.2049 1.35785 12.109 1.546C11.9973 1.8854 11.9601 2.24492 12 2.6V6.4C11.9601 6.75508 11.9973 7.1146 12.109 7.454C12.2049 7.64215 12.3578 7.79513 12.546 7.891C12.8854 8.00272 13.2449 8.0399 13.6 8H17.4C17.7551 8.0399 18.1146 8.00272 18.454 7.891C18.6422 7.79513 18.7951 7.64215 18.891 7.454C19.0027 7.1146 19.0399 6.75508 19 6.4V2.6C19.0399 2.24492 19.0027 1.8854 18.891 1.546C18.7951 1.35785 18.6422 1.20487 18.454 1.109C18.1146 0.997282 17.7551 0.960103 17.4 1Z"
        stroke="white" stroke-width="1.2" stroke-linecap="round" stroke-linejoin="round" />
    <path
        d="M17.4 12H13.6C13.2449 11.9601 12.8854 11.9973 12.546 12.109C12.3578 12.2049 12.2049 12.3578 12.109 12.546C11.9973 12.8854 11.9601 13.2449 12 13.6V17.4C11.9601 17.7551 11.9973 18.1146 12.109 18.454C12.2049 18.6422 12.3578 18.7951 12.546 18.891C12.8854 19.0027 13.2449 19.0399 13.6 19H17.4C17.7551 19.0399 18.1146 19.0027 18.454 18.891C18.6422 18.7951 18.7951 18.6422 18.891 18.454C19.0027 18.1146 19.0399 17.7551 19 17.4V13.6C19.0399 13.2449 19.0027 12.8854 18.891 12.546C18.7951 12.3578 18.6422 12.2049 18.454 12.109C18.1146 11.9973 17.7551 11.9601 17.4 12Z"
        stroke="white" stroke-width="1.2" stroke-linecap="round" stroke-linejoin="round" />
    <path
        d="M6.4 12H2.6C2.24492 11.9601 1.8854 11.9973 1.546 12.109C1.35785 12.2049 1.20487 12.3578 1.109 12.546C0.997282 12.8854 0.960103 13.2449 1 13.6V17.4C0.960103 17.7551 0.997282 18.1146 1.109 18.454C1.20487 18.6422 1.35785 18.7951 1.546 18.891C1.8854 19.0027 2.24492 19.0399 2.6 19H6.4C6.75508 19.0399 7.1146 19.0027 7.454 18.891C7.64215 18.7951 7.79513 18.6422 7.891 18.454C8.00272 18.1146 8.0399 17.7551 8 17.4V13.6C8.0399 13.2449 8.00272 12.8854 7.891 12.546C7.79513 12.3578 7.64215 12.2049 7.454 12.109C7.1146 11.9973 6.75508 11.9601 6.4 12Z"
        stroke="white" stroke-width="1.2" stroke-linecap="round" stroke-linejoin="round" />
</svg>
    