<svg width="226" height="300" viewBox="0 0 226 300" fill="none" xmlns="http://www.w3.org/2000/svg">
    <path
        d="M125.238 188.756C125.411 195.645 125.582 202.45 125.76 209.591C127.196 209.377 128.492 209.25 129.76 208.983C137.214 207.41 143.601 203.72 149.313 198.829C160.362 189.369 167.89 177.379 173.838 164.283C179.66 151.231 183.655 137.439 185.712 123.296C187.142 113.723 187.685 104.04 187.336 94.3671C187.317 94.1553 187.286 93.9446 187.245 93.736C184.893 93.574 183.194 92.224 181.621 90.65C180.863 89.892 180.052 89.103 178.887 89.632C178.345 89.9025 177.911 90.3484 177.655 90.8971C177.399 91.4458 177.336 92.0651 177.477 92.6541C177.648 93.6317 177.96 94.5793 178.404 95.4671C178.963 96.7241 179.743 97.889 180.234 99.167C180.657 100.035 180.741 101.029 180.47 101.956C180.199 102.882 179.593 103.675 178.769 104.178C177.877 104.598 176.864 104.688 175.912 104.432C174.96 104.176 174.129 103.589 173.569 102.778C173.14 102.219 172.885 101.53 172.508 100.927C172.022 100.004 171.433 99.1388 170.751 98.349C170.494 98.0873 170.182 97.8861 169.838 97.7602C169.493 97.6342 169.125 97.5867 168.76 97.621C168.411 97.7866 168.105 98.0299 167.865 98.3322C167.624 98.6345 167.457 98.9878 167.374 99.365C167.246 100.722 167.276 102.089 167.465 103.439C167.59 104.665 167.955 105.866 168.106 107.091C168.392 109.391 167.35 111.332 165.611 111.891C164.601 112.105 163.549 111.976 162.622 111.523C161.694 111.07 160.945 110.319 160.494 109.391C159.735 107.611 159.333 105.68 158.751 103.823C158.578 102.941 158.261 102.094 157.815 101.314C157.327 100.665 156.404 99.909 155.729 99.959C155.069 100.007 154.262 100.908 153.91 101.626C153.509 102.741 153.173 103.879 152.904 105.033C151.946 107.779 150.064 108.92 147.565 108.356C145.276 107.84 143.904 105.656 144.218 102.942C144.35 101.811 144.576 100.69 144.763 99.5661C144.81 99.2851 144.895 99.0091 144.921 98.7271C145.082 97.0031 144.537 95.5741 143.521 95.2691C141.911 94.7871 141.184 96.001 140.453 97.046C139.709 98.3202 138.901 99.5551 138.03 100.746C137.326 101.618 136.379 102.261 135.308 102.593C132.882 103.139 131.062 101.46 131.263 98.776C131.486 97.1397 131.944 95.544 132.622 94.038C133.202 92.538 134.182 91.1741 134.654 89.6481C134.982 88.6472 134.91 87.5584 134.454 86.609C133.772 85.544 132.492 86.0601 131.46 86.5091C130.937 86.7381 130.428 87.0001 129.893 87.1951C128.452 87.7191 126.993 87.9591 125.699 86.8781C125.062 86.3639 124.58 85.6835 124.305 84.9123C124.031 84.141 123.976 83.309 124.145 82.5081C124.36 81.0157 124.883 79.5841 125.679 78.3036C126.475 77.0231 127.528 75.9214 128.771 75.068C130.543 73.9814 132.37 72.9871 134.245 72.089C134.145 72.344 134.21 72.256 134.207 72.172C134.081 69.439 133.814 69.698 136.687 69.703C138.016 69.703 139.345 69.703 140.807 69.703C140.899 69.09 141.024 68.5421 141.058 67.9871C141.718 57.4411 139.92 47.4341 133.933 38.5501C127.739 29.3581 119.157 24.213 107.833 24.619C100.912 24.867 94.78 27.566 89.347 31.786C81.865 37.597 76.9139 45.218 73.7359 54.063C73.6759 54.289 73.6299 54.5184 73.5979 54.75C74.1979 54.777 74.7059 54.8111 75.2129 54.8201C79.9799 54.9071 84.747 55.02 89.513 55.052C90.772 55.06 91.3129 55.382 91.2449 56.76C91.1119 59.595 91.179 59.6001 94.084 59.6021C98.995 59.6021 103.907 59.6021 108.818 59.6131C110.518 59.6131 110.702 59.818 110.71 61.5C110.835 86.9147 110.968 112.329 111.11 137.744C111.124 138.973 111.348 140.19 111.772 141.344C112.257 142.66 113.066 142.663 113.884 141.529C115.294 139.575 117.093 139.569 118.525 141.512C118.76 141.871 119.019 142.213 119.299 142.538C119.426 142.729 119.597 142.886 119.799 142.997C120 143.107 120.225 143.167 120.454 143.172C120.684 143.177 120.911 143.126 121.116 143.023C121.322 142.921 121.499 142.771 121.634 142.585C121.862 142.341 122.078 142.085 122.314 141.85C123.699 140.463 124.38 140.345 126.114 141.181C127.473 141.837 128 141.598 128.239 140.098C128.407 139.401 128.398 138.673 128.216 137.98C127.917 137.322 127.419 136.775 126.792 136.416C126.48 136.231 125.812 136.516 125.376 136.735C125.293 136.857 125.238 136.996 125.215 137.142C125.193 137.288 125.203 137.437 125.246 137.578C125.669 137.814 126.126 137.986 126.6 138.086C126.868 138.123 127.14 138.127 127.409 138.098L127.628 138.537C127.213 138.786 126.815 139.205 126.379 139.25C125.312 139.359 124.23 139.028 124.091 137.85C124.007 137.137 124.375 135.894 124.867 135.695C125.833 135.281 126.921 135.257 127.904 135.627C129.804 136.627 130.082 140.84 128.375 142.207C128.029 142.409 127.641 142.526 127.241 142.55C126.842 142.574 126.442 142.503 126.075 142.344C124.575 141.525 123.627 141.91 122.622 143.107C121.122 144.892 119.564 144.787 118.156 142.923C117.956 142.657 117.798 142.358 117.593 142.096C116.673 140.933 115.663 140.941 114.831 142.196C114.304 142.996 113.731 143.901 112.731 143.475C111.841 143.103 111.108 142.431 110.662 141.575C110.198 140.379 109.97 139.105 109.99 137.822C109.843 112.741 109.722 87.6607 109.627 62.58C109.627 62.023 109.627 61.466 109.627 60.75C108.008 60.75 106.586 60.75 105.164 60.75C101.016 60.75 96.864 60.778 92.719 60.708C91.574 60.688 91.1499 61.0901 91.2329 62.1741C91.2549 62.4581 91.2029 62.747 91.2259 63.031C91.3069 64.062 90.9029 64.614 89.8199 64.382C88.0639 64.006 87.287 64.782 86.657 66.417C82.517 77.157 71.315 81.6411 60.876 76.8101C55.7636 74.449 51.6499 70.3576 49.261 65.2581C49.0676 64.6542 48.6603 64.1418 48.1155 63.8173C47.5708 63.4928 46.9261 63.3785 46.303 63.496C45.6686 63.5155 45.0334 63.4885 44.4029 63.4151C44.4029 60.5581 44.4029 57.809 44.4029 55.059C44.4029 54.07 45.136 54.239 45.731 54.25C49.688 54.321 53.6439 54.4121 57.5999 54.4821C60.4599 54.5321 63.3229 54.5051 66.1809 54.6281C67.2949 54.6761 67.6811 54.27 67.8321 53.241C69.1094 44.4574 72.0799 36.0053 76.5789 28.354C84.3629 15.174 95.249 5.79903 110.333 2.06503C121.214 -0.620046 132.69 0.560693 142.796 5.40506C155.966 11.4351 165.553 21.289 172.679 33.715C177.569 42.3523 180.835 51.8125 182.315 61.627C182.897 65.281 183.066 69 183.438 72.827H189.212C189.545 72.827 189.88 72.8271 190.212 72.8371C192.204 72.8811 193.256 73.437 193.595 74.637C193.784 75.435 193.704 76.273 193.367 77.0209C193.031 77.7688 192.457 78.3848 191.735 78.7731C190.134 79.3353 188.502 79.8026 186.846 80.173C186.09 80.407 185.021 80.648 184.746 81.205C184.231 82.259 184.963 83.1991 185.897 83.8361C186.642 84.3441 187.454 84.7611 188.175 85.3001C190.65 87.1501 191.275 90.991 188.853 93.007C188.576 93.3722 188.441 93.8257 188.474 94.283C188.349 100.048 188.537 105.836 188.074 111.572C187.574 117.772 186.661 123.963 185.588 130.099C183.306 142.948 179.317 155.433 173.727 167.225C173.127 168.501 172.5 169.764 171.819 171.172C172.419 171.205 172.832 171.248 173.244 171.248C186.023 171.279 198.802 171.307 211.581 171.332C216.803 171.34 220.212 173.849 221.623 178.887C222.269 180.939 222.436 183.113 222.111 185.24C221.786 187.367 220.977 189.391 219.747 191.157C219.071 192.136 218.248 193.006 217.309 193.736C216.622 194.389 215.734 194.79 214.79 194.874C213.846 194.958 212.901 194.721 212.109 194.2C206.282 190.801 199.69 188.934 192.946 188.773C182.946 188.602 174.47 192.311 167.324 199.184C165.724 200.724 164.282 202.428 162.524 204.317C164.177 205.209 165.877 206.013 167.616 206.724C167.978 206.855 168.716 205.958 169.477 205.381C168.227 204.929 167.308 204.581 166.377 204.265C165.55 203.981 165.458 203.541 166.021 202.899C171.585 196.553 178.301 192.032 186.695 190.52C196.221 188.805 204.889 191.375 212.94 196.437C213.339 196.733 213.723 197.049 214.089 197.385C212.458 198.765 211.002 200.185 209.37 201.35C199.923 208.338 188.181 211.491 176.504 210.175C174.058 209.835 171.641 209.314 169.272 208.618C168.538 208.429 168.149 208.489 167.726 209.094C165.817 211.779 164.598 214.893 164.176 218.161C164.214 218.947 164.351 219.724 164.583 220.476C165.18 220.027 165.735 219.525 166.241 218.976C166.773 218.251 167.148 217.413 167.628 216.647C169.217 214.115 172.128 214.174 173.576 216.775C174.106 217.729 174.539 218.738 175.066 219.695C175.593 220.652 176.466 221.348 177.509 220.963C177.834 220.771 178.117 220.516 178.341 220.211C178.564 219.907 178.723 219.561 178.809 219.193C179.409 216.951 180.626 215.372 182.983 215.053C184.01 214.923 185.052 215.103 185.975 215.571C186.898 216.038 187.66 216.772 188.163 217.676C188.643 218.552 189.244 219.355 189.95 220.062C190.266 220.318 190.631 220.508 191.023 220.618C191.414 220.728 191.825 220.758 192.228 220.704C192.786 220.56 193.253 219.623 193.528 218.943C193.865 218.12 193.852 217.155 194.182 216.328C194.343 215.837 194.62 215.392 194.99 215.031C195.359 214.669 195.81 214.402 196.304 214.251C196.799 214.101 197.322 214.071 197.83 214.165C198.338 214.259 198.816 214.474 199.224 214.792C200.212 215.529 201.255 216.191 202.342 216.772C204.098 217.564 204.935 216.925 205.012 215.021C205.012 214.023 205.121 213.029 205.338 212.055C206.127 209.113 208.929 208.363 211.166 210.404C211.839 211.071 212.601 211.643 213.429 212.104C214.715 212.742 215.605 212.149 215.577 210.704C215.551 209.281 215.33 207.863 215.239 206.441C215.192 205.729 215.201 205.014 215.268 204.303C215.266 203.823 215.362 203.347 215.549 202.904C215.737 202.462 216.013 202.063 216.359 201.73C216.706 201.398 217.117 201.139 217.567 200.97C218.017 200.801 218.496 200.726 218.976 200.748C220.876 200.672 222.79 200.748 224.696 200.71C225.508 200.693 225.828 201.04 225.81 201.81C225.803 202.096 225.817 202.382 225.819 202.668C225.87 222.601 225.918 242.533 225.965 262.462C225.975 267.674 220.334 271.562 215.78 269.342C214.409 268.502 213.186 267.442 212.159 266.204C211.047 265.075 210.253 263.594 208.336 263.104V283.652C209.714 283.433 211.103 283.146 212.507 283.001C216.953 282.542 220.832 284.014 224.396 286.561C225.275 287.19 225.141 287.89 224.772 288.681C223.303 291.762 220.896 294.299 217.895 295.926C214.542 297.969 210.72 299.113 206.796 299.248C202.872 299.383 198.98 298.504 195.495 296.697C191.619 294.952 188.139 292.437 185.267 289.304C184.198 288.085 182.567 287.378 181.301 286.311C177.736 283.125 174.958 279.156 173.185 274.716C170.935 269.305 169.402 263.624 168.623 257.816C168.55 257.352 168.409 256.898 168.115 256.816C165.764 256.172 163.449 255.404 161.179 254.516C158.773 253.443 157.166 251.371 155.768 249.158C155.625 248.944 155.438 248.762 155.219 248.626C154.999 248.491 154.754 248.404 154.498 248.371C152.166 248.428 149.834 248.58 147.507 248.761C144.872 248.961 144.76 248.934 144.661 246.313C144.512 242.214 143.708 238.166 142.279 234.321C140.832 230.421 138.832 226.888 135.149 224.61C133.735 223.708 132.117 223.178 130.443 223.069C128.77 222.96 127.096 223.276 125.578 223.988C120.754 226.012 117.453 229.738 114.734 234.019C113.416 236.169 112.222 238.392 111.155 240.677C110.633 241.752 110.092 242.17 108.855 241.887C101.355 240.177 96.7489 235.437 94.5679 228.233C94.1739 226.933 93.692 226.449 92.354 226.577C91.1172 226.677 89.8739 226.666 88.639 226.545C87.408 226.445 86.9899 226.818 87.0069 228.116C87.1069 235.316 87.107 242.516 87.146 249.716C87.1819 250.335 87.1776 250.955 87.1331 251.573C87.0841 251.961 86.9199 252.501 86.6399 252.645C86.3889 252.774 85.8511 252.536 85.5401 252.318C82.1401 249.963 78.8759 247.376 75.3399 245.246C66.2619 239.778 56.4809 236.359 45.7669 236.327C39.768 236.197 33.8663 237.856 28.813 241.091C27.278 242.091 26.898 241.86 26.813 239.991C26.672 236.706 26.5949 233.416 26.3689 230.136C26.2718 229.427 25.91 228.781 25.356 228.327C21.449 225.513 17.9374 222.187 14.9151 218.438C14.0681 217.292 13.5245 215.95 13.335 214.538C12.835 210.325 16.94 207.429 21.106 208.968C22.0804 209.349 22.9994 209.859 23.8389 210.483C24.6439 211.14 25.4069 211.847 26.1231 212.6C26.4412 211.868 26.8373 211.172 27.305 210.525C28.2194 209.342 29.3078 208.304 30.533 207.447C31.3938 206.864 32.4214 206.577 33.4598 206.632C34.4982 206.686 35.4905 207.077 36.2859 207.747C38.2709 209.36 38.6209 211.475 38.0279 213.82C37.7989 214.728 37.428 215.6 37.076 216.609C37.549 216.662 37.906 216.735 38.263 216.737C43.222 216.762 48.1809 216.765 53.1399 216.808C53.8809 216.814 54.44 216.752 54.628 215.89C55.828 210.518 56.08 205.224 53.397 200.161C51.609 196.786 48.4351 195.03 45.1031 195.617C44.4424 195.685 43.8136 195.935 43.2879 196.341C39.2769 200.272 34.5209 200.351 29.5699 198.941C27.0574 198.19 24.3974 198.079 21.8311 198.618C19.7969 199.016 17.6872 198.646 15.91 197.579C14.829 196.979 13.7539 196.357 12.6289 195.849C11.7651 195.421 10.7845 195.288 9.83793 195.472C8.8914 195.655 8.03137 196.144 7.38993 196.864C6.71467 197.724 5.91728 198.48 5.02299 199.109C4.06483 199.547 2.99009 199.662 1.96098 199.436C0.873978 199.176 0.918924 198.005 1.00492 197.016C1.50226 191.271 1.99402 185.526 2.48002 179.781C3.06302 172.756 3.61304 165.728 4.19804 158.704C4.69804 152.674 5.24004 146.646 5.75004 140.616C5.99504 137.722 6.24295 134.828 6.40495 131.928C6.30672 131.299 6.15593 130.679 5.95402 130.075C5.87102 129.434 5.66492 128.57 5.97892 128.155C10.1689 122.613 15.3789 118.418 22.4939 117.687C28.2218 117.173 33.9867 118.119 39.25 120.436C42.044 121.613 44.708 123.101 47.325 124.397C46.669 122.497 39.5249 115.797 34.7249 114.108C29.1249 112.138 23.7169 112.673 18.2959 114.8C12.9848 116.811 8.51688 120.571 5.62797 125.46L5.09001 125.239C4.83515 124.74 4.67637 124.197 4.62199 123.639C5.18599 118.73 5.45892 113.747 6.55192 108.953C6.93417 107.114 7.80868 105.413 9.08183 104.032C10.355 102.652 11.9791 101.642 13.781 101.112C14.419 100.934 15.0798 100.851 15.742 100.866C26.423 100.84 37.104 100.841 47.785 100.815C50.195 100.809 49.7511 101.155 50.1451 98.824C50.8951 94.6632 53.0864 90.8995 56.3345 88.1931C59.5827 85.4868 63.6802 84.0108 67.908 84.0241C70.3306 84.0976 72.7086 84.6949 74.8785 85.7748C77.0483 86.8548 78.9587 88.3918 80.4781 90.2802C81.9974 92.1686 83.0898 94.3636 83.6802 96.7144C84.2706 99.0651 84.3448 101.516 83.898 103.898C82.332 112.476 74.853 119.074 66.198 118.998C61.9853 118.951 57.9499 117.295 54.9192 114.369C51.8885 111.442 50.092 107.468 49.898 103.259C49.882 102.886 49.8251 102.515 49.7691 101.959H48.0511C37.7991 101.977 27.5449 102.126 17.2959 101.959C15.207 101.85 13.1419 102.446 11.4327 103.652C9.72344 104.858 8.4693 106.603 7.87187 108.608C6.27887 113.108 6.116 117.908 5.684 123.082C6.716 121.882 7.44393 120.99 8.21293 120.139C14.1269 113.589 27.2131 108.549 37.3631 114.014C41.133 116.17 44.5037 118.958 47.3279 122.257C48.2148 123.25 49.035 124.301 49.783 125.403C49.959 125.84 50.0482 126.306 50.0459 126.777C49.5602 126.806 49.0732 126.75 48.607 126.61C45.828 125.151 43.1589 123.455 40.3069 122.164C34.4069 119.493 28.173 118.049 21.691 118.988C16.012 119.81 11.6781 123.166 8.00907 127.422C7.53307 127.974 7.13192 128.591 6.47892 129.471C7.80592 129.537 8.77288 129.65 9.73588 129.623C14.1179 129.498 18.5009 129.378 22.8799 129.159C23.5574 129.072 24.2454 129.19 24.8548 129.499C25.4641 129.807 25.9666 130.292 26.2969 130.89C26.8249 131.869 27.6961 132.619 28.7432 132.995C29.7903 133.371 30.9397 133.347 31.97 132.927C32.6718 132.679 33.2945 132.248 33.774 131.678C34.2534 131.109 34.5722 130.422 34.6971 129.688C34.7111 129.497 34.7625 129.311 34.8487 129.14C34.9348 128.969 35.0539 128.816 35.199 128.692C35.3441 128.567 35.5125 128.472 35.6944 128.412C35.8763 128.352 36.0682 128.329 36.2591 128.343C39.7857 128.25 43.3129 128.181 46.8409 128.134C46.9996 128.096 47.1668 128.115 47.3133 128.187C47.4598 128.259 47.5764 128.38 47.6431 128.529C47.7098 128.678 47.7224 128.846 47.6785 129.003C47.6347 129.16 47.537 129.297 47.4029 129.39C42.8109 134.342 37.8289 138.69 30.9029 140.035C26.4429 140.903 22.234 139.88 18.261 138.069C14.647 136.422 11.2419 134.318 7.64091 132.359C7.47191 134.186 7.265 136.279 7.085 138.375C6.525 144.88 5.97101 151.385 5.42301 157.891C4.73901 166.152 4.08402 174.416 3.40702 182.678C3.03302 187.235 2.61499 191.788 2.27799 196.348C2.30584 197.103 2.41956 197.852 2.61698 198.581C3.42584 198.317 4.21908 198.008 4.99296 197.654C5.38124 197.375 5.71938 197.032 5.99296 196.64C8.33196 194.056 10.809 193.561 13.94 195.108C15.258 195.76 16.4689 196.815 17.8499 197.108C19.6087 197.459 21.4163 197.493 23.1871 197.208C25.3598 196.92 27.569 197.103 29.6651 197.743C32.4011 198.484 35.1739 199.091 37.9519 198.151C39.3679 197.577 40.7441 196.909 42.0711 196.151C40.618 194.908 39.2514 193.568 37.981 192.139C37.3395 191.265 37.0671 190.174 37.2229 189.1C37.3788 188.027 37.9503 187.059 38.814 186.403C39.4391 185.915 40.1897 185.614 40.9788 185.535C41.7679 185.455 42.5633 185.601 43.273 185.955C44.0441 186.238 44.7103 186.75 45.1827 187.422C45.655 188.094 45.911 188.895 45.9161 189.716C45.8027 191.279 45.5749 192.831 45.2349 194.36C46.1406 194.353 47.0457 194.412 47.9429 194.536C51.3199 195.201 53.472 197.436 54.826 200.421C57.265 205.802 57.0791 211.337 55.4871 216.908C55.2211 217.838 54.572 217.977 53.732 217.971C48.391 217.929 43.051 217.936 37.711 217.871C37.2963 217.836 36.8801 217.919 36.5103 218.11C36.1405 218.301 35.8318 218.592 35.6199 218.95C34.2199 220.92 32.6479 222.772 30.9839 224.875C31.5909 224.913 32.031 224.962 32.472 224.965C49.8273 225.122 67.1825 225.279 84.5379 225.434C85.2839 225.441 85.946 225.521 85.938 224.395C85.875 215.717 85.854 207.039 85.815 198.362C85.7808 198.15 85.7283 197.942 85.658 197.739C85.149 197.739 84.5969 197.739 84.0459 197.739C77.3706 197.759 70.6951 197.779 64.0191 197.798C61.4411 197.804 60.6721 196.99 61.5931 194.571C62.3721 192.644 63.441 190.847 64.763 189.243C66.181 187.466 68.053 186.058 69.555 184.343C72.918 180.495 75.155 176.168 74.555 170.837C73.955 165.544 71.5929 161.479 66.5039 159.281C63.7425 158.256 61.0697 157.007 58.512 155.546C51.065 150.746 51.412 142.167 59.033 137.646C60.9213 136.637 62.6923 135.422 64.314 134.024C67.727 130.789 68.953 126.813 67.427 122.194C67.282 121.753 67.1569 121.306 67.0269 120.861L67.406 120.546C67.729 120.891 68.206 121.18 68.354 121.589C69.3371 124.275 69.3644 127.217 68.4317 129.921C67.4989 132.625 65.663 134.925 63.233 136.433C60.9013 137.801 58.6948 139.371 56.639 141.126C55.141 142.571 54.2769 144.55 54.2359 146.631C54.1948 148.711 54.9802 150.723 56.42 152.226C57.8645 153.658 59.5188 154.861 61.326 155.794C63.141 156.809 65.1711 157.436 67.0821 158.288C72.5461 160.725 75.174 165.158 75.721 170.927C76.321 177.243 73.363 182.114 69.158 186.432C67.531 188.103 65.825 189.713 64.358 191.516C63.586 192.593 62.9918 193.786 62.5979 195.051C62.1849 196.163 62.5379 196.751 63.9429 196.722C68.9479 196.634 73.9559 196.694 78.9629 196.672C93.5059 196.609 108.048 196.516 122.591 196.494C123.968 196.494 124.399 196.151 124.291 194.742C124.145 192.809 124.254 190.857 124.254 188.825C120.311 188.798 116.492 187.444 113.412 184.983C109.554 182.073 106.363 178.372 104.052 174.128C103.847 173.586 103.462 173.131 102.961 172.839C102.46 172.548 101.874 172.438 101.301 172.528C99.3291 172.663 99.0821 172.3 99.8631 170.535C101.709 166.368 103.573 162.205 105.582 158.116C106.311 156.776 107.226 155.546 108.301 154.463C109.078 153.585 110.025 152.873 111.085 152.372C112.145 151.871 113.296 151.591 114.468 151.549C115.64 151.507 116.808 151.704 117.901 152.127C118.995 152.551 119.99 153.193 120.828 154.013C121.684 154.806 122.428 155.721 123.34 156.706C123.539 155.345 124.023 154.042 124.759 152.881C125.496 151.719 126.47 150.727 127.616 149.967C131.91 147.025 137.255 147.853 141.003 151.922C143.543 154.679 144.772 158.078 145.735 161.576C146.629 164.827 147.281 168.145 148.106 171.417C148.34 172.345 148.187 172.903 147.183 172.709C145.376 172.359 144.736 173.434 144.047 174.809C140.608 181.655 135.016 185.961 127.801 188.268C126.956 188.478 126.101 188.641 125.238 188.756ZM161.114 204.696C161.488 204.143 161.624 203.896 161.807 203.679C163.142 202.126 164.402 200.497 165.842 199.048C172.998 191.848 181.592 187.782 191.816 187.614C199.141 187.584 206.342 189.505 212.679 193.18C213.253 193.581 213.947 193.773 214.645 193.723C215.344 193.673 216.003 193.384 216.514 192.905C217.128 192.456 217.693 191.943 218.198 191.374C219.335 190.017 220.173 188.434 220.655 186.73C221.138 185.027 221.255 183.24 220.998 181.488C220.498 176.866 217.898 172.288 211.198 172.415C198.998 172.648 186.788 172.522 174.585 172.346C172.023 172.309 170.294 172.773 169.534 175.373C169.324 175.853 169.058 176.306 168.74 176.722C162.788 186.769 155.74 195.867 146.13 202.731C140.317 206.885 133.997 209.845 126.789 210.578C125.027 210.757 124.653 210.41 124.624 208.673C124.605 207.546 124.624 206.419 124.624 205.361C124.388 205.279 124.146 205.219 123.899 205.181C119.134 205.321 114.363 205.376 109.606 205.647C106.58 205.783 103.677 206.883 101.322 208.787C98.6195 211.012 96.6318 213.983 95.607 217.33C94.5821 220.678 94.5653 224.252 95.5589 227.609C97.4699 234.154 101.514 238.646 108.184 240.594C109.326 240.927 109.942 240.756 110.471 239.554C111.345 237.599 112.355 235.708 113.494 233.895C115.759 229.95 118.943 226.61 122.775 224.159C125.614 222.459 128.65 221.44 132.032 222.159C136.141 223.032 138.916 225.659 141.06 229.087C143.66 233.252 144.831 237.896 145.529 242.687C145.766 244.309 145.872 245.95 146.043 247.64L154.912 247.167C153.958 244.359 153.76 241.349 154.337 238.44C155.957 230.462 164.137 225.16 171.61 227.304C174.678 228.196 177.368 230.069 179.269 232.637C181.169 235.206 182.174 238.327 182.129 241.521C182.115 244.737 181.076 247.865 179.161 250.449C177.246 253.032 174.556 254.937 171.483 255.886C170.861 256.06 170.229 256.198 169.583 256.356C169.698 257.04 169.79 257.556 169.87 258.068C170.89 264.681 172.46 271.135 175.63 277.089C177.804 281.172 180.493 284.847 184.53 287.304C184.756 287.426 185.004 287.499 185.26 287.519C185.516 287.539 185.773 287.506 186.015 287.421C189.3 285.921 192.534 284.306 195.815 282.792C197.258 282.093 198.84 281.729 200.443 281.729C202.047 281.729 203.629 282.093 205.072 282.792C205.643 283.054 206.253 283.231 207.061 283.526V262.713C205.761 263.623 204.741 264.335 203.725 265.053C203.373 265.362 202.955 265.586 202.502 265.707C202.05 265.829 201.576 265.845 201.117 265.754C200.657 265.663 200.225 265.467 199.853 265.183C199.481 264.898 199.18 264.532 198.972 264.112C198.607 263.443 198.29 262.75 198.024 262.036C197.196 260.093 196.212 259.614 194.176 260.198C193.581 260.369 192.994 260.566 192.404 260.751C191.793 260.962 191.139 261.02 190.5 260.92C189.861 260.821 189.256 260.567 188.738 260.18C187.969 259.645 187.388 258.881 187.08 257.996C186.772 257.111 186.752 256.151 187.023 255.254C187.485 253.523 189.808 251.335 191.344 251.273C191.731 251.341 192.102 251.482 192.436 251.689C192.126 252.004 191.73 252.222 191.298 252.314C190.221 252.646 189.305 253.365 188.729 254.333C188.152 255.301 187.955 256.449 188.175 257.554C188.796 259.635 190.465 260.23 193.181 259.337C196.52 258.237 198.044 258.947 199.291 262.188C200.403 265.072 201.576 265.394 203.891 263.46C204.251 263.149 204.634 262.867 205.038 262.615C205.975 262.027 207.084 261.772 208.184 261.892C209.284 262.012 210.312 262.499 211.101 263.275C211.717 263.867 212.227 264.568 212.808 265.199C213.528 266.084 214.321 266.909 215.177 267.664C215.99 268.342 216.991 268.754 218.046 268.847C219.1 268.94 220.158 268.708 221.077 268.182C222.244 267.677 223.233 266.833 223.917 265.759C224.6 264.686 224.945 263.433 224.909 262.161C224.832 242.566 224.772 222.97 224.727 203.374C224.727 202.915 224.675 202.456 224.643 201.923C222.595 201.923 220.69 201.87 218.791 201.941C218.502 201.929 218.213 201.975 217.942 202.075C217.671 202.176 217.422 202.329 217.21 202.526C216.998 202.722 216.827 202.959 216.707 203.222C216.587 203.486 216.52 203.77 216.51 204.059C216.421 204.861 216.398 205.668 216.44 206.474C216.522 207.944 216.772 209.41 216.778 210.874C216.825 211.294 216.758 211.72 216.584 212.105C216.41 212.49 216.135 212.822 215.789 213.064C215.442 213.307 215.037 213.451 214.615 213.482C214.193 213.514 213.77 213.431 213.392 213.242C212.285 212.708 211.266 212.009 210.37 211.167C208.784 209.826 207.143 210.195 206.555 212.212C206.323 213.182 206.21 214.176 206.219 215.173C206.128 217.651 204.69 218.773 202.334 217.938C201.198 217.472 200.135 216.845 199.177 216.076C197.297 214.698 195.695 215.165 195.053 217.399C194.853 218.084 194.779 218.799 194.635 219.499C194.241 221.418 192.846 222.45 190.983 221.866C189.996 221.445 189.119 220.805 188.416 219.994C187.857 219.284 187.338 218.545 186.86 217.778C186.449 217.184 185.879 216.719 185.215 216.435C184.552 216.151 183.821 216.06 183.108 216.173C182.366 216.268 181.675 216.601 181.138 217.122C180.602 217.644 180.25 218.326 180.135 219.065C180.078 219.343 179.973 219.611 179.893 219.884C179.163 222.408 176.817 223.119 174.986 221.24C174.269 220.251 173.612 219.22 173.021 218.151C172.401 217.326 171.696 216.226 170.832 216C169.532 215.658 168.796 216.934 168.181 217.98C167.882 218.574 167.548 219.151 167.181 219.706C166.839 220.159 166.414 220.543 165.929 220.837C164.593 221.624 163.392 221.055 163.276 219.505C163.111 218.327 163.178 217.127 163.476 215.975C164.431 213.217 165.64 210.546 166.762 207.804L161.114 204.696ZM142.414 69.922C143.654 69.922 145.074 69.899 146.491 69.922C157.454 70.122 168.416 70.325 179.379 70.531C180.379 70.548 181.202 70.6111 181.115 71.9671C181.093 72.3101 181.465 72.6781 181.656 73.0351C181.818 72.6451 182.15 72.24 182.115 71.87C181.722 67.752 181.508 63.597 180.792 59.532C179.17 50.2267 175.877 41.2918 171.073 33.1591C165.982 24.2197 158.883 16.5856 150.336 10.859C139.436 3.70004 127.577 0.465043 114.505 2.44204C101.953 4.34204 91.9249 10.66 83.7669 20.13C78.4732 26.2913 74.4785 33.4583 72.022 41.2011C70.633 45.5171 69.6499 49.965 68.4219 54.573C69.6219 54.63 70.3769 54.631 71.1219 54.709C71.9859 54.801 72.388 54.5871 72.741 53.6391C73.6622 51.0908 74.7491 48.6054 75.9949 46.199C80.4039 37.875 86.5151 31.1831 95.0401 26.8991C106.422 21.1831 119.281 22.621 128.54 30.704C136.586 37.73 140.603 46.851 141.84 57.26C142.321 61.314 142.23 65.427 142.415 69.923L142.414 69.922ZM134.334 73.8931L133.945 73.4351C132.486 74.2481 130.962 74.964 129.581 75.895C128.446 76.6504 127.481 77.633 126.745 78.7808C126.01 79.9286 125.521 81.2164 125.309 82.563C125.154 83.1943 125.181 83.8566 125.388 84.4729C125.595 85.0892 125.973 85.6342 126.477 86.0441C127.522 86.8781 128.635 86.4831 129.721 86.0341C130.62 85.6053 131.55 85.2436 132.503 84.952C132.936 84.8021 133.4 84.7639 133.852 84.841C134.304 84.9181 134.729 85.108 135.088 85.3931C135.447 85.6782 135.728 86.0492 135.906 86.4718C136.083 86.8945 136.151 87.3552 136.103 87.8111C135.826 89.4309 135.347 91.0098 134.678 92.511C133.997 94.326 133.051 96.05 132.471 97.892C132.245 98.5307 132.247 99.2278 132.476 99.8654C132.704 100.503 133.146 101.042 133.726 101.392C134.95 101.935 136.357 101.35 137.342 99.844C138.042 98.767 138.699 97.657 139.383 96.568C140.703 94.468 142.414 93.573 143.922 94.187C145.529 94.84 146.432 96.968 146.043 99.198C146.01 99.385 145.918 99.564 145.899 99.751C145.645 101.336 145.509 102.939 145.493 104.544C145.526 105.269 145.83 105.955 146.344 106.467C146.858 106.978 147.545 107.279 148.27 107.309C149.011 107.421 149.767 107.259 150.398 106.855C151.029 106.45 151.49 105.829 151.697 105.109C152.079 104.039 152.312 102.917 152.615 101.818C153.15 99.883 154.231 98.781 155.682 98.687C157.037 98.599 158.639 99.823 159.276 101.506C159.522 102.224 159.726 102.956 159.886 103.698C160.139 104.714 160.286 105.763 160.629 106.748C160.939 107.694 161.37 108.597 161.91 109.433C162.279 109.994 162.817 110.425 163.445 110.663C164.074 110.901 164.761 110.935 165.41 110.76C166.744 110.17 167.032 108.935 167.01 107.66C166.994 106.766 166.691 105.88 166.605 104.982C166.35 103.066 166.212 101.135 166.191 99.202C166.184 98.5678 166.401 97.9514 166.803 97.461C167.206 96.9706 167.768 96.6375 168.391 96.52C169.499 96.4937 170.582 96.8465 171.462 97.52C172.213 98.2396 172.832 99.0859 173.29 100.02C173.704 100.657 173.99 101.384 174.432 101.994C174.805 102.613 175.392 103.075 176.081 103.293C176.771 103.511 177.516 103.469 178.177 103.176C179.35 102.582 179.8 101.188 179.14 99.547C178.593 98.185 177.662 96.966 177.205 95.583C176.663 94.1911 176.416 92.7023 176.477 91.21C176.767 88.541 179.44 87.558 181.6 89.14C182.134 89.531 182.547 90.0931 183.091 90.4671C184.059 91.2173 185.109 91.8569 186.219 92.374C186.497 92.4899 186.798 92.542 187.099 92.5265C187.4 92.511 187.694 92.4282 187.959 92.2843C188.223 92.1405 188.453 91.9391 188.63 91.6951C188.807 91.451 188.927 91.1705 188.981 90.874C189.288 90.0385 189.304 89.124 189.028 88.2779C188.752 87.4317 188.2 86.7029 187.459 86.209C186.585 85.552 185.609 85.03 184.742 84.366C184.203 83.959 183.803 83.3952 183.597 82.752C183.391 82.1087 183.389 81.4176 183.591 80.7731C183.92 79.4261 185.122 79.259 186.291 79.073C187.657 78.9002 189.009 78.6302 190.337 78.265C190.921 78.1109 191.444 77.7806 191.834 77.319C192.224 76.8574 192.462 76.2869 192.516 75.6851C192.616 74.8011 192.276 74.0851 191.338 74.0711C187.972 74.0181 184.604 74.0501 181.084 74.0501C181.084 75.1101 181.084 75.8141 181.084 76.5181C181.143 77.23 181.129 77.9462 181.04 78.6551C180.947 79.0861 180.383 79.8111 180.184 79.7631C177.705 79.1721 176.807 80.614 176.266 82.619C176.155 82.9342 176.016 83.2385 175.849 83.528C173.954 87.6127 170.63 90.8626 166.503 92.664C162.376 94.4654 157.733 94.6938 153.449 93.3061C146.716 91.1651 141.999 86.665 138.935 80.391C138.796 79.9426 138.504 79.5572 138.111 79.3014C137.717 79.0457 137.246 78.9358 136.78 78.991C135.961 78.9955 135.141 78.9528 134.327 78.8631L134.334 73.8931ZM86.0511 250.868C86.0511 250.337 86.0511 249.832 86.0511 249.326C86.0184 242.418 85.985 235.509 85.951 228.6C85.942 226.549 85.9509 226.54 83.8509 226.52C66.3175 226.357 48.7843 226.196 31.251 226.036C29.766 226.023 27.587 227.67 27.597 229.128C27.623 232.72 27.8639 236.31 28.0279 240.12C28.6519 239.792 29.064 239.594 29.46 239.366C34.976 236.263 41.273 234.826 47.5889 235.228C57.0389 235.706 66.2275 238.493 74.3499 243.347C78.2979 245.626 82.03 248.266 86.052 250.869L86.0511 250.868ZM123.731 159.295C122.736 157.971 122.02 156.981 121.266 156.019C117.952 151.795 112.629 151.472 109.029 155.394C107.733 156.788 106.629 158.349 105.747 160.036C103.902 163.65 102.285 167.381 100.429 171.379H146.854C146.179 168.461 145.554 165.588 144.847 162.732C143.895 158.872 142.739 155.064 139.724 152.245C137.114 149.806 134.024 148.46 130.448 149.758C128.813 150.249 127.368 151.233 126.312 152.575C125.256 153.918 124.64 155.553 124.548 157.258C124.363 157.969 124.089 158.654 123.732 159.296L123.731 159.295ZM53.531 101.895C53.454 103.644 53.7323 105.391 54.3492 107.03C54.966 108.669 55.9083 110.165 57.1197 111.43C58.331 112.694 59.7862 113.7 61.397 114.386C63.0078 115.072 64.741 115.425 66.492 115.423C68.4 115.377 70.2793 114.947 72.0176 114.159C73.756 113.371 75.3179 112.241 76.6104 110.837C77.9029 109.432 78.8993 107.782 79.5406 105.984C80.1818 104.187 80.4549 102.278 80.3431 100.373C80.2542 98.6079 79.809 96.8789 79.0345 95.2903C78.2599 93.7017 77.1717 92.2861 75.8357 91.1291C74.4997 89.972 72.9435 89.0972 71.2605 88.5574C69.5776 88.0176 67.8028 87.8239 66.043 87.9881C59.518 88.6881 52.898 95.533 53.794 100.661C53.8749 100.709 53.9635 100.743 54.056 100.761C59.156 100.761 64.2559 100.783 69.3499 100.721C69.7499 100.716 70.2781 100.215 70.5291 99.8101C70.8001 99.2164 71.2755 98.7399 71.8687 98.4677C72.4618 98.1954 73.1332 98.1455 73.76 98.327C74.296 98.4651 74.7749 98.7684 75.1287 99.194C75.4825 99.6196 75.6932 100.146 75.731 100.698C75.8079 101.304 75.6825 101.918 75.3743 102.446C75.0661 102.973 74.5926 103.384 74.0269 103.614C73.4612 103.845 72.8353 103.882 72.2464 103.72C71.6574 103.558 71.1384 103.206 70.7701 102.719C70.3441 102.27 69.773 101.987 69.158 101.919C65.967 101.848 62.7741 101.891 59.5811 101.894C57.5871 101.898 55.5979 101.896 53.5269 101.896L53.531 101.895ZM124.354 204.068C124.354 202.182 124.303 200.519 124.373 198.86C124.415 197.844 124.04 197.56 123.059 197.56C111.434 197.627 99.8092 197.664 88.1839 197.672C87.1159 197.672 86.9229 198.103 86.9419 199.034C86.9939 201.558 86.9629 204.084 86.9729 206.609C86.9969 212.374 87.0099 218.139 87.0799 223.903C87.0859 224.413 87.45 225.345 87.69 225.359C89.715 225.476 91.7489 225.426 93.5899 225.426C93.6633 222.975 93.9029 220.532 94.3069 218.114C95.9069 211.271 99.9529 206.556 107.007 204.976C109.252 204.584 111.527 204.386 113.807 204.385C117.266 204.232 120.738 204.174 124.35 204.069L124.354 204.068ZM143.798 172.738H104.578C104.705 173.071 104.849 173.398 105.01 173.716C107.215 177.407 110.03 180.696 113.336 183.445C116.301 186.127 120.162 187.601 124.159 187.579C128.94 187.49 132.778 185.179 136.437 182.441C139.69 179.9 142.225 176.556 143.794 172.738H143.798ZM169.253 253.924C175.747 253.251 180.675 246.66 179.803 240.16C178.854 233.092 172.994 228.345 166.513 229.394C159.505 230.529 155.04 237.224 156.457 244.607C157.682 250.994 163.891 254.624 168.077 253.923C167.898 251.708 167.658 249.489 167.567 247.264C167.619 246.835 167.53 246.4 167.313 246.025C167.097 245.65 166.765 245.356 166.367 245.186C165.442 244.666 164.738 243.826 164.388 242.824C164.038 241.822 164.066 240.727 164.467 239.744C164.811 238.767 165.505 237.952 166.415 237.458C167.326 236.964 168.388 236.826 169.394 237.071C170.382 237.358 171.235 237.989 171.798 238.85C172.361 239.712 172.598 240.746 172.465 241.766C172.305 244.101 170.765 245.224 168.559 245.92L169.253 253.924ZM186.436 288.366L186.278 288.976C187.89 290.276 189.436 291.664 191.124 292.852C197.218 297.141 203.856 299.262 211.324 297.409C216.439 296.139 220.713 293.597 223.454 288.876C224.054 287.846 223.862 287.304 222.877 286.742C218.943 284.492 214.824 283.266 210.301 284.509C208.504 285.019 206.58 284.822 204.923 283.96C202.87 282.971 200.612 282.337 198.423 283.195C194.372 284.787 190.423 286.63 186.431 288.367L186.436 288.366ZM49.95 63.928C49.9687 64.099 50.0086 64.2669 50.0689 64.428C52.1795 68.9004 55.6298 72.6051 59.941 75.028C67.668 79.208 76.023 78.185 81.636 72.428C83.7838 70.2283 85.3509 67.529 86.1961 64.573C85.9771 64.442 85.8959 64.3531 85.8169 64.3521C80.1463 64.2374 74.4756 64.1307 68.805 64.032C68.5278 64.0194 68.2563 64.1139 68.0469 64.296C67.5199 64.902 67.903 67.91 68.584 68.39C69.367 68.941 69.7559 69.6961 69.2029 70.4461C68.7475 71.0886 68.0568 71.5253 67.281 71.661C66.9272 71.6045 66.5926 71.4617 66.3069 71.2453C66.0213 71.0288 65.7931 70.7454 65.6429 70.4201C65.4539 69.8941 65.873 69.063 66.201 68.463C66.483 67.948 67.028 64.7161 66.67 64.2631C66.4788 64.0642 66.2167 63.9491 65.941 63.943C60.655 63.924 55.371 63.928 49.95 63.928ZM139.677 79.0811C139.887 79.6401 139.984 79.992 140.145 80.313C141.752 83.5686 144.077 86.4172 146.945 88.6441C153.161 93.4711 161.384 94.702 168.122 90.522C172.04 88.0569 174.896 84.2174 176.131 79.756L139.677 79.0811ZM169.324 207.381C184.836 212.781 203.788 206.263 212.116 197.365C205.135 192.59 195.276 189.614 185.363 191.965C178.124 193.679 172.256 197.692 167.223 203.302C167.772 203.514 168.115 203.658 168.465 203.779C168.853 203.961 169.266 204.082 169.691 204.138C170.134 204.165 170.573 204.044 170.94 203.794C177.372 198.004 185.68 194.732 194.333 194.582C198.3 194.364 202.255 195.177 205.815 196.94C207.015 197.574 207.115 197.94 206.044 198.75C204.75 199.798 203.36 200.722 201.894 201.511C192.757 206.089 182.391 207.611 172.323 205.853C171.722 205.664 171.07 205.718 170.509 206.005C169.948 206.292 169.523 206.788 169.324 207.386V207.381ZM26.324 214.781C25.703 214.047 25.238 213.537 24.816 212.993C23.5885 211.33 21.7896 210.179 19.7649 209.761C18.9944 209.59 18.1916 209.634 17.4446 209.889C16.6976 210.144 16.0354 210.6 15.5301 211.206C14.9687 211.734 14.5881 212.426 14.4427 213.184C14.2972 213.941 14.3943 214.724 14.72 215.423C15.1794 216.665 15.8499 217.818 16.7019 218.831C19.2509 221.456 21.9629 223.924 24.6399 226.422C25.2923 226.972 25.9736 227.487 26.6809 227.964C29.2239 224.964 31.7599 222.13 34.1009 219.147C35.8022 217.192 36.8663 214.765 37.1509 212.189C37.2355 211.535 37.1526 210.871 36.9097 210.259C36.6668 209.646 36.2719 209.105 35.7625 208.687C35.2531 208.269 34.6456 207.988 33.9974 207.869C33.3491 207.75 32.6814 207.799 32.0569 208.009C31.2903 208.195 30.5721 208.541 29.9502 209.027C29.3284 209.512 28.8173 210.124 28.451 210.823C27.811 212.073 27.127 213.297 26.325 214.785L26.324 214.781ZM135.624 77.849L180.001 78.719C180.001 77.642 179.928 76.743 180.018 75.86C180.15 74.565 179.7 74.1601 178.362 74.1601C169.026 74.1921 159.689 74.14 150.353 74.115C147.638 74.1077 144.924 74.1001 142.209 74.0921C140.369 74.0851 140.279 73.9671 140.554 72.0921C140.605 71.7401 140.593 71.3791 140.611 70.9871H135.279C135.391 73.2921 135.5 75.4721 135.62 77.8531L135.624 77.849ZM90.085 56.3681C89.9742 56.2981 89.8514 56.2489 89.7229 56.223C82.9559 56.067 76.1889 55.91 69.4229 55.797C69.1069 55.792 68.531 56.16 68.503 56.403C68.261 58.503 68.117 60.615 67.92 63.017H90.087L90.085 56.3681ZM45.608 62.5251H66.7669C66.9539 60.3251 67.1419 58.1141 67.3499 55.6541H45.608V62.5251ZM141.594 72.907C142.211 72.936 142.677 72.9761 143.144 72.9781C150.237 73.0094 157.331 73.0371 164.425 73.0611C169.186 73.0751 173.948 73.0901 178.709 73.0491C179.147 73.0491 179.909 72.697 179.961 72.412C180.134 71.391 179.227 71.724 178.687 71.632C178.45 71.6045 178.212 71.5949 177.974 71.6031C166.36 71.3771 154.746 71.176 143.133 70.903C141.618 70.868 141.738 71.787 141.591 72.911L141.594 72.907ZM42.806 194.927C43.4507 194.339 43.9638 193.622 44.3116 192.821C44.6594 192.021 44.8341 191.157 44.824 190.284C44.8652 189.518 44.6506 188.761 44.2139 188.131C43.7772 187.5 43.1432 187.033 42.4119 186.803C41.773 186.595 41.0841 186.6 40.448 186.816C39.812 187.032 39.263 187.449 38.8831 188.003C38.5015 188.67 38.3516 189.444 38.4571 190.205C38.5626 190.967 38.9173 191.671 39.4659 192.209C40.5279 193.176 41.642 194.085 42.803 194.931L42.806 194.927Z"
        fill="url(#paint0_linear_1_37)" />
    <path
        d="M29.8851 242.268C32.1121 241.555 34.3049 240.71 36.5699 240.155C42.3929 238.73 48.288 238.005 54.17 239.686C55.8619 240.287 57.4752 241.09 58.9749 242.077C59.5161 242.465 59.9492 242.986 60.233 243.588C61.248 245.411 60.447 247.105 58.379 247.11C56.5368 247.07 54.7063 246.807 52.9271 246.327C48.1401 245.15 43.4269 243.652 38.5999 242.672C36.3409 242.213 33.9001 242.645 31.5401 242.699C31.043 242.738 30.5486 242.808 30.0599 242.907C30.0032 242.694 29.9451 242.481 29.8851 242.268Z"
        fill="url(#paint1_linear_1_37)" />
    <path
        d="M190.704 123.529C189.79 128.663 189.045 133.602 188.015 138.481C185.915 148.403 181.983 157.681 177.694 166.814C177.369 167.506 177.022 168.33 176.054 167.94C175.045 167.533 175.433 166.714 175.718 165.997C178.202 159.724 180.855 153.512 183.129 147.164C185.644 139.773 187.258 132.106 187.937 124.329C187.967 124.045 187.911 123.68 188.065 123.495C188.44 123.046 188.918 122.367 189.351 122.369C189.784 122.371 190.22 123.082 190.704 123.529Z"
        fill="url(#paint2_linear_1_37)" />
    <path d="M127.587 207.404L157.224 187.14C155.515 193.588 134.482 208.132 127.587 207.404Z"
        fill="url(#paint3_linear_1_37)" />
    <path
        d="M142.448 247.894C142.326 247.249 142.157 246.608 142.089 245.957C141.495 240.235 139.949 234.845 136.41 230.204C135.015 228.177 132.909 226.75 130.51 226.204C130.266 226.156 130.061 225.912 129.838 225.759L129.858 225.304C130.461 225.232 131.072 225.24 131.673 225.328C134.103 226.1 136.195 227.684 137.597 229.814C141.257 234.848 142.848 240.614 143.314 246.746C143.29 247.132 143.213 247.513 143.085 247.878L142.448 247.894Z"
        fill="url(#paint4_linear_1_37)" />
    <path
        d="M169.424 102.251C169.724 103.251 170.088 104.241 170.296 105.261C170.773 107.464 170.502 109.763 169.525 111.794C169.164 112.561 168.64 113.24 167.99 113.784C167.34 114.328 166.578 114.723 165.759 114.942C164.941 115.161 164.083 115.199 163.248 115.052C162.413 114.906 161.621 114.579 160.925 114.094C157.475 111.906 156.008 108.548 155.633 104.628C155.603 104.309 155.972 103.953 156.156 103.614C156.345 103.928 156.677 104.232 156.699 104.557C156.802 107.394 157.996 110.083 160.032 112.062C161.615 113.588 163.438 114.518 165.711 113.801C168.076 113.055 169.058 111.101 169.269 108.918C169.282 107.177 169.129 105.438 168.812 103.726C168.768 103.276 168.746 102.826 168.712 102.373L169.424 102.251Z"
        fill="url(#paint5_linear_1_37)" />
    <path
        d="M67.636 133.404C67.0626 135.113 65.9168 136.572 64.3921 137.534C61.3747 139.66 59.1322 142.711 58.0042 146.225C57.7332 146.95 56.8041 148.044 56.3521 147.965C55.1831 147.76 55.5841 146.547 55.6521 145.693C55.8701 143.047 57.4521 141.246 59.5171 139.827C62.3641 137.867 65.481 136.267 67.636 133.404Z"
        fill="url(#paint6_linear_1_37)" />
    <path
        d="M8.96701 133.453C13.161 137.597 18.3431 139.227 23.6611 140.815C19.1381 143.158 9.54401 138.491 8.96701 133.453Z"
        fill="url(#paint7_linear_1_37)" />
    <path
        d="M112.82 28.541C112.204 28.422 111.587 28.3099 110.973 28.1829C106.417 27.2359 102.182 28.3669 98.13 30.3119C92.4198 33.2037 87.4099 37.3073 83.4501 42.336C82.0241 44.053 80.763 45.9059 79.422 47.6939C79.169 48.0299 78.8919 48.348 78.6219 48.674L78.1981 48.337C79.5511 46.492 80.8329 44.5899 82.2689 42.8119C87.1429 36.7759 92.7801 31.69 100.117 28.769C103.7 27.2988 107.634 26.9061 111.437 27.639C111.949 27.7729 112.45 27.944 112.937 28.1509L112.82 28.541Z"
        fill="url(#paint8_linear_1_37)" />
    <path
        d="M123.335 190.948C122.719 190.984 122.101 190.981 121.486 190.937C116.543 190.25 111.957 187.974 108.421 184.452C105.647 181.89 103.508 178.718 102.173 175.186C102.021 174.768 101.914 174.334 101.785 173.907L102.168 173.707C102.416 174.067 102.638 174.443 102.834 174.834C104.1 178.085 106.036 181.032 108.517 183.484C110.999 185.936 113.969 187.838 117.234 189.065C119.207 189.671 121.222 190.133 123.262 190.45C123.283 190.615 123.308 190.782 123.335 190.948Z"
        fill="url(#paint9_linear_1_37)" />
    <path
        d="M204.529 211.577C204.554 210.604 204.875 209.662 205.45 208.876C206.024 208.089 206.824 207.497 207.743 207.177C209.869 206.506 211.477 207.659 213.274 208.895C213.799 206.766 212.492 204.346 214.51 203.005C214.51 204.505 214.556 206.089 214.491 207.67C214.408 208.483 214.272 209.289 214.083 210.084C213.287 209.934 212.511 209.692 211.77 209.363C210.134 208.407 208.47 207.92 206.832 209.089C205.978 209.834 205.206 210.668 204.529 211.577Z"
        fill="url(#paint10_linear_1_37)" />
    <path
        d="M71.6841 120.134C78.0041 117.624 82.7251 113.493 84.9551 106.946C87.2141 100.313 85.8919 94.339 81.3059 89.039C85.5859 92.178 87.5409 99.22 85.8869 105.768C83.9699 113.357 76.8121 119.391 71.6841 120.134Z"
        fill="url(#paint11_linear_1_37)" />
    <path
        d="M71.4481 178.636C72.4382 175.606 72.6243 172.371 71.9881 169.248C71.2967 166.182 69.6376 163.419 67.2559 161.367C69.8209 162.367 71.035 164.539 71.993 166.876C73.701 171.041 73.4811 176.823 71.4481 178.636Z"
        fill="url(#paint12_linear_1_37)" />
    <path
        d="M30.3169 131.431C29.8175 131.391 29.3508 131.167 29.0073 130.802C28.6638 130.437 28.4681 129.958 28.458 129.457C28.4631 129.173 28.5247 128.893 28.6392 128.633C28.7536 128.373 28.9185 128.139 29.1245 127.944C29.3305 127.748 29.5734 127.596 29.8389 127.495C30.1044 127.394 30.3871 127.347 30.6709 127.357C30.9199 127.368 31.1642 127.429 31.3889 127.537C31.6136 127.645 31.8144 127.797 31.9788 127.985C32.1432 128.172 32.268 128.391 32.3457 128.628C32.4234 128.865 32.4523 129.115 32.4309 129.363C32.4105 129.913 32.18 130.434 31.7866 130.819C31.3933 131.204 30.8671 131.423 30.3169 131.431Z"
        fill="url(#paint13_linear_1_37)" />
    <path
        d="M62.072 78.386C58.758 79.03 48.2969 69.529 48.3549 65.786C51.4454 71.3581 56.2581 75.7789 62.072 78.386Z"
        fill="url(#paint14_linear_1_37)" />
    <path
        d="M27.1929 114.059C31.7379 112.483 40.0249 116.978 42.6829 120.328C38.0989 116.792 33.3109 113.783 27.1929 114.059Z"
        fill="url(#paint15_linear_1_37)" />
    <path
        d="M190.734 119.067C190.129 119.588 189.634 120.223 189.434 120.142C188.929 119.905 188.526 119.495 188.296 118.987C188.223 118.821 188.907 118.038 189.217 118.055C189.653 118.079 190.062 118.587 190.734 119.067Z"
        fill="url(#paint16_linear_1_37)" />
    <path
        d="M12.7651 211.182V216.753C12.2596 215.912 11.9924 214.949 11.9924 213.968C11.9924 212.986 12.2596 212.023 12.7651 211.182Z"
        fill="url(#paint17_linear_1_37)" />
    <path
        d="M38.724 184.903C39.6333 184.265 40.7414 183.976 41.8464 184.087C42.9513 184.199 43.9795 184.704 44.7431 185.51C42.8271 184.465 40.882 183.77 38.724 184.903Z"
        fill="url(#paint18_linear_1_37)" />
    <path
        d="M103.91 208.641C103.795 208.918 103.702 209.207 103.56 209.469C102.254 211.8 101.518 214.407 101.41 217.077C101.303 219.747 101.828 222.404 102.942 224.833C103.842 226.972 105.098 228.961 106.067 231.075C106.565 232.092 106.862 233.196 106.943 234.326C106.944 234.726 106.852 235.12 106.673 235.477C106.493 235.835 106.233 236.145 105.912 236.383C105.515 236.479 105.102 236.483 104.703 236.395C104.305 236.307 103.931 236.129 103.612 235.875C100.825 233.586 98.8991 230.417 98.1511 226.889C97.4334 223.818 97.4724 220.618 98.2648 217.566C99.0572 214.513 100.579 211.698 102.7 209.364C103.009 209.046 103.336 208.746 103.679 208.464L103.91 208.641Z"
        fill="url(#paint19_linear_1_37)" />
    <path
        d="M163.497 211.344C163.008 213.202 162.397 215.044 162.073 216.927C161.904 218.097 161.952 219.289 162.215 220.442C162.674 222.631 164.409 223.283 166.315 222.118C166.584 221.954 166.842 221.771 167.278 221.482C166.865 222.13 166.28 222.651 165.588 222.987C164.896 223.322 164.125 223.459 163.36 223.382C162.721 223.269 162.137 222.951 161.695 222.477C161.253 222.002 160.977 221.397 160.909 220.752C160.16 217.149 161.543 214.136 163.497 211.344Z"
        fill="url(#paint20_linear_1_37)" />
    <path
        d="M215.873 191.382C220.311 185.974 219.167 180.545 216.073 175.097C217.603 175.904 219.29 180.074 219.292 183.408C219.298 186.534 218.51 189.378 215.873 191.382Z"
        fill="url(#paint21_linear_1_37)" />
    <path
        d="M215.187 265.746C217.609 267.267 219.887 267.628 222.038 265.146C221.111 267.746 217.381 268.046 215.187 265.746Z"
        fill="url(#paint22_linear_1_37)" />
    <path d="M175.254 270.391L173.113 264.411L173.486 264.277L175.586 270.272L175.254 270.391Z"
        fill="url(#paint23_linear_1_37)" />
    <path
        d="M184.576 187.544L179.056 189.006C179.024 188.894 178.992 188.782 178.956 188.67L184.456 187.131L184.576 187.544Z"
        fill="url(#paint24_linear_1_37)" />
    <path
        d="M176.485 59.8829C175.568 58.2379 174.618 56.61 173.74 54.944C169.504 46.7459 163.547 39.5602 156.275 33.8789C152.231 30.7542 148.719 26.9956 145.875 22.7489C145.287 21.9364 144.901 20.9964 144.746 20.0056C144.592 19.0149 144.674 18.0017 144.987 17.049C145.091 16.5992 145.308 16.1832 145.616 15.8396C145.925 15.496 146.315 15.2359 146.751 15.0836C147.187 14.9314 147.654 14.8918 148.11 14.9686C148.565 15.0454 148.993 15.2361 149.355 15.523C155.835 20.16 160.697 26.205 164.972 32.804C170.095 40.6761 174.01 49.2716 176.585 58.304C176.718 58.773 176.808 59.255 176.918 59.73L176.485 59.8829Z"
        fill="url(#paint25_linear_1_37)" />
    <path
        d="M130.362 77.054C127.417 82.465 127.417 82.465 129.753 84.72C128.996 85.348 127.653 84.7889 127.092 83.6199C126.323 82.0069 128.046 77.5739 129.729 76.8799C129.858 76.8189 130.065 76.961 130.362 77.054Z"
        fill="url(#paint26_linear_1_37)" />
    <path
        d="M187.581 87.44C188.647 88.624 188.81 90.018 187.936 90.966C186.973 92.01 185.931 91.676 184.996 91.119C185.69 90.741 186.622 90.519 187.035 89.933C187.371 89.1435 187.557 88.2978 187.581 87.44Z"
        fill="url(#paint27_linear_1_37)" />
    <path
        d="M84.3131 248.645C76.6131 242.052 68.008 237.202 57.913 235.233C57.9643 235.052 58.0154 234.87 58.066 234.688C59.2951 234.789 60.5151 234.979 61.7169 235.256C69.4968 237.563 76.7335 241.411 82.9969 246.57C83.5889 247.117 84.1476 247.7 84.67 248.314L84.3131 248.645Z"
        fill="url(#paint28_linear_1_37)" />
    <path
        d="M126.86 156.939C126.746 154.176 129.111 151.565 132.054 150.999C136.096 150.221 140.72 152.982 142.087 157.291C141.72 156.949 141.349 156.612 140.987 156.266C138.431 153.828 135.587 152.091 131.887 153.108C129.805 153.738 128.02 155.098 126.86 156.939Z"
        fill="url(#paint29_linear_1_37)" />
    <path
        d="M56.1421 96.6461C56.9153 95.6718 57.7437 94.7426 58.6231 93.863C60.8571 91.849 63.1959 89.956 66.4299 89.908C67.6299 89.89 69.0729 89.92 69.2759 91.408C69.4709 92.834 68.065 93.177 66.992 93.497C65.9384 93.7767 64.8701 93.9974 63.792 94.158C61.172 94.629 58.573 95.146 56.511 97.11L56.1421 96.6461Z"
        fill="url(#paint30_linear_1_37)" />
    <path d="M179.02 241.645C179.399 243.251 177.752 246.645 176.149 247.384L179.02 241.645Z"
        fill="url(#paint31_linear_1_37)" />
    <path
        d="M190.956 289.163C193.738 284.619 201.956 283.373 205.121 286.091C199.733 285.014 194.916 285.225 190.956 289.163Z"
        fill="url(#paint32_linear_1_37)" />
    <path
        d="M77.153 74.107C78.327 73 79.535 71.925 80.665 70.776C81.795 69.627 82.84 68.413 84.009 67.309C82.4677 70.2192 80.0762 72.5905 77.153 74.107Z"
        fill="url(#paint33_linear_1_37)" />
    <path
        d="M153.849 86.039C153.826 85.4779 153.914 84.9178 154.11 84.3914C154.305 83.865 154.604 83.383 154.988 82.9733C155.372 82.5637 155.834 82.2346 156.347 82.0056C156.859 81.7765 157.413 81.6518 157.974 81.639C159.011 81.6704 159.993 82.1086 160.709 82.8588C161.425 83.6091 161.817 84.6111 161.8 85.648C161.803 86.7791 161.373 87.8684 160.597 88.6918C159.822 89.5153 158.76 90.0103 157.631 90.075C157.117 90.0598 156.612 89.9431 156.143 89.7318C155.674 89.5204 155.252 89.2185 154.901 88.8434C154.549 88.4684 154.275 88.0275 154.095 87.5462C153.914 87.0649 153.831 86.5527 153.849 86.039ZM154.979 86.039C154.958 86.7823 155.231 87.5039 155.738 88.0479C156.244 88.5919 156.945 88.9145 157.688 88.946C158.498 88.8541 159.246 88.468 159.79 87.8609C160.334 87.2538 160.636 86.4682 160.639 85.653C160.654 84.9074 160.375 84.1859 159.862 83.6445C159.349 83.1031 158.643 82.7854 157.898 82.7601C157.088 82.8387 156.338 83.2201 155.797 83.8279C155.256 84.4358 154.963 85.2254 154.979 86.039Z"
        fill="url(#paint34_linear_1_37)" />
    <path
        d="M28.6271 224.247C29.7661 222.278 31.0349 220.372 32.0099 218.325C33.3099 215.598 33.7809 212.779 31.6959 210.115C33.7959 209.415 35.856 210.635 35.577 212.615C35.2892 214.571 34.6311 216.454 33.6381 218.164C32.1952 220.378 30.6302 222.51 28.9501 224.55L28.6271 224.247Z"
        fill="url(#paint35_linear_1_37)" />
    <path
        d="M42.6161 187.779C44.0331 188.617 44.352 191.234 43.048 192.868C42.904 191.173 42.7591 189.46 42.6161 187.779Z"
        fill="url(#paint36_linear_1_37)" />
    <defs>
        <linearGradient id="paint0_linear_1_37" x1="113.465" y1="0.657715" x2="113.465" y2="299.261"
            gradientUnits="userSpaceOnUse">
            <stop stop-color="#D98553" />
            <stop offset="1" stop-color="#F3BF9F" />
        </linearGradient>
        <linearGradient id="paint1_linear_1_37" x1="45.2782" y1="238.714" x2="45.2782" y2="247.11"
            gradientUnits="userSpaceOnUse">
            <stop stop-color="#D98553" />
            <stop offset="1" stop-color="#F3BF9F" />
        </linearGradient>
        <linearGradient id="paint2_linear_1_37" x1="183.052" y1="122.369" x2="183.052" y2="168.041"
            gradientUnits="userSpaceOnUse">
            <stop stop-color="#D98553" />
            <stop offset="1" stop-color="#F3BF9F" />
        </linearGradient>
        <linearGradient id="paint3_linear_1_37" x1="142.406" y1="187.14" x2="142.406" y2="207.43"
            gradientUnits="userSpaceOnUse">
            <stop stop-color="#D98553" />
            <stop offset="1" stop-color="#F3BF9F" />
        </linearGradient>
        <linearGradient id="paint4_linear_1_37" x1="136.576" y1="225.256" x2="136.576" y2="247.894"
            gradientUnits="userSpaceOnUse">
            <stop stop-color="#D98553" />
            <stop offset="1" stop-color="#F3BF9F" />
        </linearGradient>
        <linearGradient id="paint5_linear_1_37" x1="163.078" y1="102.251" x2="163.078" y2="115.14"
            gradientUnits="userSpaceOnUse">
            <stop stop-color="#D98553" />
            <stop offset="1" stop-color="#F3BF9F" />
        </linearGradient>
        <linearGradient id="paint6_linear_1_37" x1="61.5835" y1="133.404" x2="61.5835" y2="147.969"
            gradientUnits="userSpaceOnUse">
            <stop stop-color="#D98553" />
            <stop offset="1" stop-color="#F3BF9F" />
        </linearGradient>
        <linearGradient id="paint7_linear_1_37" x1="16.3141" y1="133.453" x2="16.3141" y2="141.438"
            gradientUnits="userSpaceOnUse">
            <stop stop-color="#D98553" />
            <stop offset="1" stop-color="#F3BF9F" />
        </linearGradient>
        <linearGradient id="paint8_linear_1_37" x1="95.5675" y1="27.2794" x2="95.5675" y2="48.674"
            gradientUnits="userSpaceOnUse">
            <stop stop-color="#D98553" />
            <stop offset="1" stop-color="#F3BF9F" />
        </linearGradient>
        <linearGradient id="paint9_linear_1_37" x1="112.56" y1="173.707" x2="112.56" y2="190.973"
            gradientUnits="userSpaceOnUse">
            <stop stop-color="#D98553" />
            <stop offset="1" stop-color="#F3BF9F" />
        </linearGradient>
        <linearGradient id="paint10_linear_1_37" x1="209.527" y1="203.005" x2="209.527" y2="211.577"
            gradientUnits="userSpaceOnUse">
            <stop stop-color="#D98553" />
            <stop offset="1" stop-color="#F3BF9F" />
        </linearGradient>
        <linearGradient id="paint11_linear_1_37" x1="79.078" y1="89.039" x2="79.078" y2="120.134"
            gradientUnits="userSpaceOnUse">
            <stop stop-color="#D98553" />
            <stop offset="1" stop-color="#F3BF9F" />
        </linearGradient>
        <linearGradient id="paint12_linear_1_37" x1="70.197" y1="161.367" x2="70.197" y2="178.636"
            gradientUnits="userSpaceOnUse">
            <stop stop-color="#D98553" />
            <stop offset="1" stop-color="#F3BF9F" />
        </linearGradient>
        <linearGradient id="paint13_linear_1_37" x1="30.4479" y1="127.356" x2="30.4479" y2="131.431"
            gradientUnits="userSpaceOnUse">
            <stop stop-color="#D98553" />
            <stop offset="1" stop-color="#F3BF9F" />
        </linearGradient>
        <linearGradient id="paint14_linear_1_37" x1="55.2133" y1="65.786" x2="55.2133" y2="78.4172"
            gradientUnits="userSpaceOnUse">
            <stop stop-color="#D98553" />
            <stop offset="1" stop-color="#F3BF9F" />
        </linearGradient>
        <linearGradient id="paint15_linear_1_37" x1="34.9379" y1="113.734" x2="34.9379" y2="120.328"
            gradientUnits="userSpaceOnUse">
            <stop stop-color="#D98553" />
            <stop offset="1" stop-color="#F3BF9F" />
        </linearGradient>
        <linearGradient id="paint16_linear_1_37" x1="189.512" y1="118.055" x2="189.512" y2="120.149"
            gradientUnits="userSpaceOnUse">
            <stop stop-color="#D98553" />
            <stop offset="1" stop-color="#F3BF9F" />
        </linearGradient>
        <linearGradient id="paint17_linear_1_37" x1="12.3788" y1="211.182" x2="12.3788" y2="216.753"
            gradientUnits="userSpaceOnUse">
            <stop stop-color="#D98553" />
            <stop offset="1" stop-color="#F3BF9F" />
        </linearGradient>
        <linearGradient id="paint18_linear_1_37" x1="41.7336" y1="184.064" x2="41.7336" y2="185.51"
            gradientUnits="userSpaceOnUse">
            <stop stop-color="#D98553" />
            <stop offset="1" stop-color="#F3BF9F" />
        </linearGradient>
        <linearGradient id="paint19_linear_1_37" x1="102.292" y1="208.464" x2="102.292" y2="236.458"
            gradientUnits="userSpaceOnUse">
            <stop stop-color="#D98553" />
            <stop offset="1" stop-color="#F3BF9F" />
        </linearGradient>
        <linearGradient id="paint20_linear_1_37" x1="163.99" y1="211.344" x2="163.99" y2="223.403"
            gradientUnits="userSpaceOnUse">
            <stop stop-color="#D98553" />
            <stop offset="1" stop-color="#F3BF9F" />
        </linearGradient>
        <linearGradient id="paint21_linear_1_37" x1="217.583" y1="175.097" x2="217.583" y2="191.382"
            gradientUnits="userSpaceOnUse">
            <stop stop-color="#D98553" />
            <stop offset="1" stop-color="#F3BF9F" />
        </linearGradient>
        <linearGradient id="paint22_linear_1_37" x1="218.613" y1="265.146" x2="218.613" y2="267.299"
            gradientUnits="userSpaceOnUse">
            <stop stop-color="#D98553" />
            <stop offset="1" stop-color="#F3BF9F" />
        </linearGradient>
        <linearGradient id="paint23_linear_1_37" x1="174.349" y1="264.277" x2="174.349" y2="270.391"
            gradientUnits="userSpaceOnUse">
            <stop stop-color="#D98553" />
            <stop offset="1" stop-color="#F3BF9F" />
        </linearGradient>
        <linearGradient id="paint24_linear_1_37" x1="181.766" y1="187.131" x2="181.766" y2="189.006"
            gradientUnits="userSpaceOnUse">
            <stop stop-color="#D98553" />
            <stop offset="1" stop-color="#F3BF9F" />
        </linearGradient>
        <linearGradient id="paint25_linear_1_37" x1="160.794" y1="14.9305" x2="160.794" y2="59.8829"
            gradientUnits="userSpaceOnUse">
            <stop stop-color="#D98553" />
            <stop offset="1" stop-color="#F3BF9F" />
        </linearGradient>
        <linearGradient id="paint26_linear_1_37" x1="128.633" y1="76.8652" x2="128.633" y2="84.9811"
            gradientUnits="userSpaceOnUse">
            <stop stop-color="#D98553" />
            <stop offset="1" stop-color="#F3BF9F" />
        </linearGradient>
        <linearGradient id="paint27_linear_1_37" x1="186.747" y1="87.44" x2="186.747" y2="91.6448"
            gradientUnits="userSpaceOnUse">
            <stop stop-color="#D98553" />
            <stop offset="1" stop-color="#F3BF9F" />
        </linearGradient>
        <linearGradient id="paint28_linear_1_37" x1="71.2915" y1="234.688" x2="71.2915" y2="248.645"
            gradientUnits="userSpaceOnUse">
            <stop stop-color="#D98553" />
            <stop offset="1" stop-color="#F3BF9F" />
        </linearGradient>
        <linearGradient id="paint29_linear_1_37" x1="134.472" y1="150.868" x2="134.472" y2="157.291"
            gradientUnits="userSpaceOnUse">
            <stop stop-color="#D98553" />
            <stop offset="1" stop-color="#F3BF9F" />
        </linearGradient>
        <linearGradient id="paint30_linear_1_37" x1="62.7181" y1="89.9053" x2="62.7181" y2="97.11"
            gradientUnits="userSpaceOnUse">
            <stop stop-color="#D98553" />
            <stop offset="1" stop-color="#F3BF9F" />
        </linearGradient>
        <linearGradient id="paint31_linear_1_37" x1="177.612" y1="241.645" x2="177.612" y2="247.384"
            gradientUnits="userSpaceOnUse">
            <stop stop-color="#D98553" />
            <stop offset="1" stop-color="#F3BF9F" />
        </linearGradient>
        <linearGradient id="paint32_linear_1_37" x1="198.038" y1="284.665" x2="198.038" y2="289.163"
            gradientUnits="userSpaceOnUse">
            <stop stop-color="#D98553" />
            <stop offset="1" stop-color="#F3BF9F" />
        </linearGradient>
        <linearGradient id="paint33_linear_1_37" x1="80.581" y1="67.309" x2="80.581" y2="74.107"
            gradientUnits="userSpaceOnUse">
            <stop stop-color="#D98553" />
            <stop offset="1" stop-color="#F3BF9F" />
        </linearGradient>
        <linearGradient id="paint34_linear_1_37" x1="157.823" y1="81.639" x2="157.823" y2="90.075"
            gradientUnits="userSpaceOnUse">
            <stop stop-color="#D98553" />
            <stop offset="1" stop-color="#F3BF9F" />
        </linearGradient>
        <linearGradient id="paint35_linear_1_37" x1="32.1148" y1="209.916" x2="32.1148" y2="224.55"
            gradientUnits="userSpaceOnUse">
            <stop stop-color="#D98553" />
            <stop offset="1" stop-color="#F3BF9F" />
        </linearGradient>
        <linearGradient id="paint36_linear_1_37" x1="43.2439" y1="187.779" x2="43.2439" y2="192.868"
            gradientUnits="userSpaceOnUse">
            <stop stop-color="#D98553" />
            <stop offset="1" stop-color="#F3BF9F" />
        </linearGradient>
    </defs>
</svg>
    