<svg width="26" height="27" viewBox="0 0 26 27" fill="none" xmlns="http://www.w3.org/2000/svg">
    <path d="M7.69904 22.5652C7.76604 22.8722 7.82403 23.1412 7.88403 23.4102C8.00303 23.9432 8.129 24.476 8.237 25.01C8.267 25.157 8.31406 25.2102 8.46906 25.2102C10.2441 25.2052 12.02 25.2102 13.795 25.2002C13.8461 25.1942 13.8954 25.1776 13.9396 25.1514C13.9839 25.1252 14.0222 25.09 14.052 25.0481C14.257 24.7361 14.452 24.4141 14.632 24.0891C14.755 23.8471 14.9312 23.636 15.1473 23.4717C15.3634 23.3073 15.6139 23.194 15.88 23.1401V22.8882C15.88 20.8882 15.88 18.8882 15.88 16.8882C15.8886 16.8135 15.8707 16.7379 15.8294 16.6751C15.7881 16.6122 15.7261 16.566 15.6541 16.5442C14.9727 16.2652 14.3908 15.7881 13.9837 15.1746C13.5767 14.561 13.3632 13.8393 13.371 13.103C13.359 12.686 13.366 12.2681 13.371 11.8501C13.3679 11.7389 13.3874 11.6283 13.4285 11.5249C13.4695 11.4215 13.5313 11.3275 13.6099 11.2488C13.6886 11.1701 13.7824 11.1081 13.8858 11.0669C13.9892 11.0257 14.0998 11.006 14.211 11.009C14.757 11.009 15.303 11.009 15.877 11.009V10.7092C15.877 9.69923 15.877 8.69018 15.877 7.68018C15.8721 7.4575 15.9118 7.23616 15.9938 7.02906C16.0757 6.82196 16.1983 6.63315 16.3542 6.47413C16.5102 6.3151 16.6964 6.18903 16.9019 6.10303C17.1073 6.01704 17.3279 5.97286 17.5506 5.97339C17.7733 5.97393 17.9937 6.01898 18.1988 6.10596C18.4038 6.19294 18.5894 6.32021 18.7446 6.47999C18.8997 6.63976 19.0214 6.82889 19.1024 7.03638C19.1833 7.24387 19.222 7.46559 19.216 7.68824C19.216 7.94824 19.216 8.20804 19.216 8.48804H18.381C18.381 8.20504 18.392 7.92808 18.381 7.65308C18.3737 7.43743 18.2844 7.23283 18.1312 7.08082C17.9781 6.9288 17.7727 6.84095 17.557 6.83521C17.3405 6.83222 17.1315 6.91434 16.9749 7.06397C16.8184 7.2136 16.7268 7.41857 16.72 7.63501C16.704 8.74801 16.715 9.86115 16.715 10.9941H17.546V10.1941H18.376V11.0171H24.142C24.2684 11.0005 24.397 11.0133 24.5176 11.0547C24.6382 11.0961 24.7476 11.1651 24.8371 11.2559C24.9266 11.3467 24.9939 11.457 25.0336 11.5781C25.0734 11.6993 25.0844 11.8279 25.066 11.9541C25.0858 12.6227 25.0486 13.2918 24.955 13.9541C24.8421 14.5342 24.5849 15.0766 24.207 15.531C23.8292 15.9854 23.3428 16.3374 22.793 16.5542C22.7168 16.5769 22.6512 16.6261 22.6082 16.6931C22.5653 16.7601 22.5478 16.8404 22.559 16.9192C22.567 18.9119 22.567 20.9049 22.559 22.8982C22.559 23.0712 22.579 23.1731 22.783 23.2261C22.9807 23.2813 23.1653 23.3753 23.3262 23.5027C23.4871 23.6301 23.621 23.7883 23.72 23.968C23.941 24.332 24.152 24.7031 24.386 25.0581C24.4197 25.1017 24.4617 25.1382 24.5096 25.1655C24.5575 25.1928 24.6103 25.2103 24.665 25.217C24.924 25.239 25.185 25.2251 25.465 25.2251V26.0432H0.0250248V25.2312H1.625V24.8982C1.625 22.8272 1.65501 20.7551 1.60901 18.6851C1.56026 17.898 1.45028 17.1161 1.28003 16.3462C0.86903 14.0742 0.435006 11.8062 0.0180058 9.53516C-0.0108606 9.40918 -0.0100313 9.27821 0.0203862 9.15259C0.0508036 9.02698 0.109998 8.9101 0.193299 8.81128C0.2766 8.71247 0.38171 8.63449 0.500367 8.58326C0.619024 8.53203 0.747968 8.50898 0.877015 8.51612C1.26901 8.51612 1.66 8.51612 2.052 8.51612C2.27641 8.49832 2.49881 8.56953 2.67114 8.71436C2.84348 8.85919 2.95193 9.06592 2.97302 9.29004C3.14636 10.2234 3.31934 11.1534 3.492 12.0801C3.827 13.8901 4.164 15.699 4.492 17.51C4.527 17.71 4.63104 17.7102 4.78204 17.7102C6.65338 17.7102 8.52435 17.7102 10.395 17.7102C10.695 17.7102 11.004 17.7102 11.309 17.7102C11.6342 17.7136 11.945 17.8445 12.1747 18.0747C12.4043 18.3049 12.5344 18.616 12.537 18.9412C12.5396 19.8738 12.1756 20.7702 11.5235 21.437C10.8714 22.1039 9.98351 22.4878 9.05103 22.5061C8.61602 22.5051 8.18304 22.5362 7.69904 22.5652ZM14.207 11.8501C14.207 12.2811 14.199 12.6892 14.207 13.0972C14.2089 13.8683 14.5153 14.6074 15.0596 15.1536C15.6039 15.6997 16.342 16.0087 17.113 16.0132C18.513 16.0362 19.913 16.0322 21.313 16.0132C21.9403 16.0117 22.5502 15.8077 23.0522 15.4316C23.5542 15.0556 23.9213 14.5275 24.099 13.926C24.2334 13.2428 24.2775 12.5449 24.23 11.8501H14.207ZM16.721 23.1021H21.711V16.8662H16.721V23.1021ZM2.48206 20.208V25.1961H7.41303L6.83905 22.6272L5.453 22.7002L5.41101 21.8652C6.22801 21.8142 7.02502 21.7652 7.82202 21.7122C8.42978 21.6915 9.03581 21.6355 9.63702 21.5442C10.0087 21.4675 10.3581 21.3074 10.6589 21.0762C10.9598 20.8449 11.2043 20.5486 11.374 20.2092L2.48206 20.208ZM0.855042 9.34205L2.38904 17.6721H3.67102L2.12201 9.34205H0.855042ZM14.955 25.187H23.474C23.284 24.874 23.123 24.5872 22.941 24.3142C22.8627 24.1978 22.7556 24.1034 22.6302 24.0405C22.5047 23.9776 22.3652 23.9482 22.225 23.9551C20.2157 23.9551 18.2064 23.9551 16.197 23.9551C16.0699 23.9473 15.9428 23.9713 15.8272 24.0249C15.7116 24.0785 15.6113 24.1602 15.535 24.2622C15.337 24.5502 15.163 24.859 14.959 25.186L14.955 25.187ZM11.635 19.3501C11.795 18.7291 11.6351 18.5232 11.0161 18.5232H2.47504V19.3501H11.635Z" fill="#B9B9B9"/>
    <path d="M20.057 8.495V7.66687H25.057V0.996952H13.387V7.65491H15.0211V8.48792C14.4161 8.48792 13.808 8.51491 13.205 8.47791C13.0048 8.44533 12.8243 8.33797 12.7003 8.17737C12.5763 8.01677 12.518 7.81493 12.5371 7.61292C12.5371 5.65492 12.5371 3.69659 12.5371 1.73792C12.5371 1.47692 12.5371 1.21596 12.5371 0.95496C12.5376 0.84811 12.5591 0.742428 12.6005 0.643925C12.642 0.545422 12.7023 0.455877 12.7783 0.380741C12.8543 0.305605 12.9443 0.246249 13.0433 0.205937C13.1423 0.165624 13.2482 0.145219 13.3551 0.145878C17.2631 0.145878 21.1706 0.145878 25.078 0.145878C25.1873 0.143945 25.2958 0.164268 25.3971 0.205448C25.4983 0.246628 25.5902 0.30796 25.6671 0.385624C25.744 0.463288 25.8045 0.555707 25.8447 0.657353C25.8849 0.758998 25.904 0.867668 25.901 0.976933C25.901 3.20493 25.901 5.43301 25.901 7.66101C25.9078 7.87241 25.8315 8.07792 25.6882 8.23352C25.5449 8.38913 25.3462 8.48241 25.135 8.49305C23.457 8.50005 21.778 8.495 20.057 8.495Z" fill="#B9B9B9"/>
    <path d="M10.8641 11.838H11.683V12.668H10.8641V13.3541C10.8834 13.4769 10.8764 13.6023 10.8437 13.7222C10.811 13.8422 10.7532 13.9539 10.6743 14.0499C10.5953 14.1459 10.4968 14.2239 10.3854 14.2791C10.2741 14.3343 10.1522 14.3655 10.028 14.3702C10.028 14.6342 10.028 14.903 10.028 15.17C10.0316 15.2812 10.0125 15.3921 9.97174 15.4957C9.93103 15.5992 9.86967 15.6933 9.79132 15.7723C9.71297 15.8513 9.61926 15.9136 9.51605 15.9551C9.41285 15.9967 9.30233 16.0166 9.1911 16.014C8.63443 16.0187 8.07772 16.0187 7.52106 16.014C7.40984 16.0158 7.29937 15.9952 7.19647 15.953C7.09357 15.9107 7.0004 15.8478 6.92255 15.7684C6.8447 15.6889 6.78386 15.5945 6.74371 15.4908C6.70357 15.3871 6.68494 15.2763 6.68903 15.1651C6.68903 14.9041 6.68903 14.6441 6.68903 14.4061C6.50964 14.3375 6.33641 14.2538 6.17108 14.1561C6.06677 14.0836 5.98273 13.9856 5.92706 13.8714C5.87139 13.7573 5.84595 13.6308 5.85309 13.504C5.85309 13.236 5.85309 12.968 5.85309 12.681H5.03802V11.8421H5.85309C5.85309 11.5421 5.85309 11.279 5.85309 11.012C5.84966 10.9009 5.86884 10.7903 5.90961 10.6868C5.95038 10.5834 6.01182 10.4894 6.09015 10.4105C6.16848 10.3316 6.26216 10.2696 6.3653 10.2281C6.46843 10.1866 6.57886 10.1664 6.69 10.169C7.80334 10.165 8.91707 10.165 10.0311 10.169C10.1423 10.1669 10.2527 10.1875 10.3557 10.2296C10.4586 10.2716 10.5519 10.3343 10.6298 10.4136C10.7077 10.493 10.7686 10.5875 10.8087 10.6912C10.8488 10.795 10.8673 10.906 10.8631 11.0172C10.8641 11.2792 10.8641 11.539 10.8641 11.838ZM10.0191 11.0211H6.70807V13.4971H10.0191V11.0211ZM9.18304 14.3631H7.54303V15.168H9.18304V14.3631Z" fill="#B9B9B9"/>
    <path d="M21.149 5.29883L20.6171 5.823L17.303 2.51001L17.8201 1.96997L21.149 5.29883Z" fill="#B9B9B9"/>
    <path d="M22.824 4.05811L22.3001 4.56714L20.2241 2.49219L20.747 1.98413L22.824 4.05811Z" fill="#B9B9B9"/>
    <path d="M15.611 4.17114L16.121 3.66211L17.371 4.90625L16.845 5.40625L15.611 4.17114Z" fill="#B9B9B9"/>
    </svg>
    